<svg width="85" height="32" viewBox="0 0 85 32" fill="none" xmlns="http://www.w3.org/2000/svg">
<g clip-path="url(#clip0_569_3583)">
<path d="M7.02499 0.487549L5.77777 7.75035H4L5.23755 0.487549H7.02499ZM5.12274 7.75035L5.39345 6.19403H6.69264C7.09387 6.19403 7.46852 6.11682 7.81537 5.96119C8.16223 5.80556 8.45469 5.57392 8.69398 5.26628C8.93328 4.95863 9.09039 4.57619 9.16653 4.12015C9.21487 3.78838 9.21003 3.49401 9.15081 3.23824C9.0916 2.98248 8.99008 2.76411 8.84384 2.58435C8.69882 2.40459 8.50908 2.26947 8.27704 2.18019C8.045 2.08971 7.78395 2.04507 7.49269 2.04507H6.08957L6.36995 0.488755H7.72111C8.28187 0.488755 8.77979 0.579239 9.21245 0.758999C9.64511 0.938759 10.0053 1.1897 10.2929 1.51182C10.5805 1.83394 10.7811 2.21759 10.896 2.66398C11.0108 3.11036 11.0289 3.59656 10.9528 4.12136C10.8694 4.66788 10.7038 5.16252 10.4536 5.60529C10.2047 6.04805 9.88682 6.42808 9.5025 6.74658C9.11818 7.06508 8.67948 7.31241 8.1876 7.48855C7.69573 7.66469 7.16155 7.75276 6.58749 7.75276H5.12153L5.12274 7.75035Z" fill="#44D8C6"/>
<path d="M14.5179 0.487549L13.2707 7.75034H11.5147L12.751 0.487549H14.5179Z" fill="#44D8C6"/>
<path d="M19.0295 3.77628H22.6043C22.5415 4.33608 22.4049 4.86932 22.1934 5.37362C21.9819 5.87912 21.6979 6.32671 21.3414 6.7176C20.9849 7.10849 20.5583 7.41613 20.0628 7.64053C19.5673 7.86493 19.0041 7.97713 18.3732 7.97713C17.8125 7.97713 17.3097 7.87699 16.8662 7.67672C16.4226 7.47645 16.054 7.19897 15.7592 6.84669C15.4643 6.4944 15.2564 6.08421 15.1355 5.61732C15.0147 5.15043 14.9917 4.65096 15.0679 4.11771C15.1573 3.56395 15.3362 3.05604 15.6033 2.59276C15.8703 2.12949 16.2063 1.72774 16.6112 1.38873C17.016 1.04972 17.4753 0.786715 17.9877 0.599716C18.5001 0.412718 19.0404 0.319821 19.6096 0.319821C20.3021 0.312583 20.893 0.468214 21.3813 0.786715C21.8696 1.10522 22.2623 1.52747 22.5608 2.05228L20.939 2.84129C20.8072 2.5445 20.6199 2.30322 20.3782 2.11984C20.1353 1.93646 19.8235 1.84477 19.4428 1.84477C19.1237 1.84477 18.8228 1.90147 18.5388 2.01608C18.2548 2.13069 17.9986 2.28995 17.7702 2.49383C17.5418 2.69772 17.3496 2.93781 17.1937 3.21529C17.0378 3.49156 16.9314 3.79318 16.8771 4.11771C16.836 4.42897 16.8372 4.72334 16.8819 4.99962C16.9266 5.2759 17.0209 5.52322 17.1623 5.74158C17.3037 5.95995 17.4934 6.13006 17.7291 6.25553C17.9647 6.381 18.2415 6.44253 18.5606 6.44253C18.824 6.44253 19.0597 6.40995 19.2676 6.3436C19.4754 6.27845 19.6628 6.18676 19.8283 6.06853C19.9951 5.9515 20.1438 5.81035 20.2755 5.64869C20.4072 5.48582 20.5208 5.31209 20.6187 5.12509H18.7998L19.0283 3.77628H19.0295Z" fill="#44D8C6"/>
<path d="M26.2009 0.487549L24.9537 7.75034H23.1977L24.434 0.487549H26.2009Z" fill="#44D8C6"/>
<path d="M27.0735 0.487549H32.686L32.4153 2.05472H30.4816L29.4942 7.75034H27.7684L28.7449 2.05472H26.7907L27.0711 0.487549H27.0735Z" fill="#44D8C6"/>
<path d="M33.6843 5.49897L33.6951 5.89348L32.4999 7.7502H30.5046L35.5756 0L37.9661 7.7502H36.0639L35.5333 5.94536L35.6481 5.50983L35.0451 3.15485L33.683 5.50018L33.6843 5.49897ZM32.9881 5.01157H36.5219L36.4071 6.34952H32.6449L32.9881 5.01157Z" fill="#44D8C6"/>
<path d="M41.8009 0.487549L40.8135 6.24591H43.6511L43.3804 7.75034H38.8182L40.0654 0.487549H41.8009Z" fill="#44D8C6"/>
<path d="M50.4999 0.487549L49.2418 7.75034H47.5269L48.7633 0.487549H50.4987H50.4999ZM49.8352 0.487549H51.3012C51.8487 0.487549 52.3115 0.586477 52.6886 0.783128C53.0657 0.979778 53.3473 1.25485 53.531 1.60834C53.7147 1.96062 53.7751 2.37925 53.7122 2.86424C53.6434 3.342 53.4681 3.76063 53.1877 4.12015C52.9074 4.47967 52.5448 4.75474 52.1013 4.94536C51.6577 5.13598 51.155 5.23008 50.5942 5.23008H49.0146L49.2636 3.87042H50.6039C50.825 3.87042 51.0281 3.83423 51.2118 3.76184C51.3955 3.68945 51.549 3.58087 51.6746 3.43489C51.7991 3.29012 51.8789 3.11639 51.9139 2.91612C51.949 2.72309 51.9333 2.5566 51.8668 2.41786C51.8003 2.27912 51.694 2.17054 51.5441 2.09091C51.3955 2.01129 51.2166 1.97148 51.0087 1.97148H49.5851L49.834 0.487549H49.8352ZM51.6227 4.46158L53.2542 7.75034H51.2903L49.8763 4.46158H51.6227Z" fill="#44D8C6"/>
<path d="M57.1832 0.487549L55.9359 7.75034H54.1799L55.4163 0.487549H57.1832Z" fill="#44D8C6"/>
<path d="M61.6947 3.77628H65.2696C65.2067 4.33608 65.0702 4.86932 64.8587 5.37362C64.6472 5.87912 64.3632 6.32671 64.0066 6.7176C63.6501 7.10849 63.2235 7.41613 62.728 7.64053C62.2325 7.86493 61.6693 7.97713 61.0385 7.97713C60.4777 7.97713 59.9749 7.87699 59.5314 7.67672C59.0879 7.47645 58.7193 7.19897 58.4244 6.84669C58.1295 6.4944 57.9216 6.08421 57.8008 5.61732C57.6799 5.15043 57.657 4.65096 57.7331 4.11771C57.8225 3.56395 58.0014 3.05604 58.2685 2.59276C58.5356 2.12949 58.8715 1.72774 59.2764 1.38873C59.6813 1.04972 60.1405 0.786715 60.6529 0.599716C61.1654 0.412718 61.7056 0.319821 62.2748 0.319821C62.9673 0.312583 63.5583 0.468214 64.0465 0.786715C64.5348 1.10522 64.9276 1.52747 65.2261 2.05228L63.6042 2.84129C63.4725 2.5445 63.2851 2.30322 63.0434 2.11984C62.8005 1.93646 62.4887 1.84477 62.108 1.84477C61.789 1.84477 61.488 1.90147 61.204 2.01608C60.92 2.13069 60.6638 2.28995 60.4354 2.49383C60.207 2.69772 60.0148 2.93781 59.8589 3.21529C59.703 3.49156 59.5967 3.79318 59.5423 4.11771C59.5012 4.42897 59.5024 4.72334 59.5471 4.99962C59.5918 5.2759 59.6861 5.52322 59.8275 5.74158C59.9689 5.95995 60.1586 6.13006 60.3943 6.25553C60.63 6.381 60.9067 6.44253 61.2258 6.44253C61.4892 6.44253 61.7249 6.40995 61.9328 6.3436C62.1406 6.27845 62.328 6.18676 62.4935 6.06853C62.6603 5.9515 62.809 5.81035 62.9407 5.64869C63.0724 5.48582 63.186 5.31209 63.2839 5.12509H61.4651L61.6935 3.77628H61.6947Z" fill="#44D8C6"/>
<path d="M68.8347 0.487549L67.5766 7.75034H65.8617L67.098 0.487549H68.8335H68.8347ZM67.1295 3.13328H72.493L72.2223 4.70045H66.8491L67.1295 3.13328ZM73.5734 0.487549L72.3153 7.75034H70.6004L71.8367 0.487549H73.5722H73.5734Z" fill="#44D8C6"/>
<path d="M74.4472 0.487549H80.0597L79.789 2.05472H77.8553L76.8679 7.75034H75.1421L76.1186 2.05472H74.1644L74.4448 0.487549H74.4472Z" fill="#44D8C6"/>
<path d="M81.2598 5.85739C81.4012 6.04801 81.568 6.19641 81.7589 6.30378C81.9499 6.41115 82.1698 6.46424 82.4188 6.46424C82.6061 6.46424 82.7753 6.42925 82.9276 6.36048C83.0799 6.29171 83.2044 6.19641 83.3022 6.07576C83.3989 5.95512 83.4509 5.8212 83.4581 5.67643C83.4859 5.48943 83.4473 5.33983 83.3433 5.22522C83.2394 5.11061 83.0908 5.00685 82.8962 4.91395C82.7016 4.82106 82.4804 4.72213 82.2315 4.61838C82.0442 4.54237 81.852 4.43982 81.655 4.31194C81.458 4.18406 81.2767 4.02963 81.1148 3.84987C80.9516 3.67011 80.8235 3.4626 80.7305 3.22734C80.6374 2.99209 80.6036 2.72546 80.6314 2.42868C80.6725 1.99315 80.8247 1.61795 81.0882 1.30307C81.3517 0.988183 81.6864 0.744482 82.0913 0.57196C82.4961 0.399438 82.9348 0.316194 83.4062 0.323432C83.8425 0.323432 84.2207 0.395819 84.5386 0.541799C84.8576 0.686572 85.1235 0.88081 85.3386 1.12331C85.5538 1.3658 85.7193 1.63122 85.8378 1.92197L84.4552 2.63739C84.3718 2.47814 84.2763 2.33458 84.1688 2.20669C84.0612 2.07881 83.9355 1.97867 83.7893 1.90629C83.6443 1.8339 83.4666 1.79771 83.2587 1.79771C83.0992 1.79771 82.9578 1.82304 82.8321 1.87613C82.7076 1.928 82.6049 1.99918 82.5252 2.08846C82.4454 2.17894 82.4019 2.28511 82.3946 2.41058C82.3741 2.53485 82.3995 2.64946 82.4732 2.75321C82.5457 2.85697 82.6496 2.94986 82.785 3.03311C82.9204 3.11635 83.0726 3.19236 83.2418 3.26113C83.411 3.32989 83.5826 3.39987 83.7567 3.46863C84.0757 3.58687 84.3537 3.7437 84.593 3.94035C84.8323 4.137 85.0123 4.37467 85.1332 4.65095C85.254 4.92723 85.3012 5.25297 85.2734 5.62576C85.225 6.10954 85.0571 6.52818 84.7694 6.88167C84.4818 7.23395 84.1216 7.5054 83.689 7.69602C83.2563 7.88663 82.8007 7.98074 82.3221 7.98074C81.8786 7.98074 81.4737 7.89749 81.1063 7.73221C80.7389 7.56693 80.4235 7.3377 80.16 7.04695C79.8966 6.7562 79.7032 6.43166 79.5775 6.07214L80.8658 5.20109C80.9831 5.44962 81.1136 5.66919 81.255 5.85981L81.2598 5.85739Z" fill="#44D8C6"/>
<path d="M51.0174 9.03853L38.2117 9.03491C37.634 9.03491 37.0756 9.51266 36.9657 10.1014C36.8545 10.6914 37.234 11.1691 37.8116 11.1691H40.1744L36.8279 28.9931C36.5572 30.4336 37.4817 31.6015 38.8933 31.6015H41.8639C43.2743 31.6027 44.6375 30.436 44.9082 28.9955L48.2547 11.1727H50.6174C51.1951 11.1727 51.7534 10.6962 51.8634 10.1062C51.9746 9.51628 51.5951 9.03853 51.0174 9.03853Z" fill="#44D8C6"/>
<path d="M65.6565 19.0905H62.124L62.13 19.0604C61.1547 19.0604 60.5154 18.2533 60.7027 17.2568L61.5016 12.9992C61.6889 12.0039 62.6303 11.1968 63.6068 11.1968L63.6105 11.1763H67.143C67.7207 11.1763 68.2791 10.6997 68.389 10.1098C68.5002 9.51982 68.1207 9.04207 67.5431 9.04207L54.7373 9.03845C54.1596 9.03845 53.6013 9.5162 53.4913 10.1049C53.4841 10.1411 53.4792 10.1761 53.4768 10.2111H53.472L51.606 20.1522L49.7122 30.2369H49.7545C49.7098 30.331 49.6759 30.4311 49.6566 30.5349C49.5454 31.1248 49.9249 31.6026 50.5026 31.6026L63.3083 31.6062C63.886 31.6062 64.4444 31.1285 64.5543 30.5397C64.6655 29.9498 64.286 29.472 63.7084 29.472H60.1758L60.1842 29.4286C59.2089 29.4286 58.5696 28.6215 58.7569 27.6249L59.6259 22.9946C59.7927 22.1091 60.5565 21.3743 61.4097 21.2223H65.2577C65.8354 21.2235 66.3937 20.7458 66.5037 20.1558C66.6149 19.5659 66.2354 19.0881 65.6577 19.0881L65.6565 19.0905Z" fill="#44D8C6"/>
<path d="M82.0504 19.0956H78.4888L78.4924 19.0738C77.5171 19.0738 76.8778 18.2667 77.0651 17.2702L77.864 13.0127C78.0513 12.0173 78.9928 11.2102 79.9693 11.2102L79.9753 11.1813H83.5369C84.1146 11.1813 84.6729 10.7047 84.7829 10.1148C84.8941 9.52483 84.5146 9.04708 83.9369 9.04708L71.1312 9.04346C70.5596 9.04346 70.0072 9.51156 69.8888 10.0931L67.9987 20.1584L67.9709 20.3032H67.9817C67.9539 20.8232 68.3141 21.2249 68.8434 21.2249H72.5984C73.3948 21.3781 73.8831 22.1129 73.7163 22.9984L72.8473 27.6287C72.66 28.6241 71.7185 29.4312 70.742 29.4312L70.7336 29.4734H67.2941C66.7164 29.4734 66.158 29.9499 66.0481 30.5399C65.9369 31.1298 66.3164 31.6076 66.894 31.6076L79.6998 31.6112C80.2775 31.6112 80.8358 31.1335 80.9458 30.5447C80.9663 30.4373 80.97 30.3336 80.9591 30.2359H81.0038L82.8746 20.273H82.8686C82.8795 20.2368 82.8879 20.1995 82.8952 20.1621C83.0063 19.5721 82.6269 19.0943 82.0492 19.0943L82.0504 19.0956Z" fill="#44D8C6"/>
<path d="M43.8181 11.1679C44.1493 11.1679 44.3632 11.4598 44.2955 11.8206H44.4876L44.6375 11.0255H43.8459L43.8193 11.1679H43.8181Z" fill="#44D8C6"/>
<path d="M34.0833 9.05176C33.5056 9.05176 32.9473 9.52951 32.8373 10.1183L31.1381 19.1702H31.1139C30.923 20.1909 29.9573 21.0173 28.9567 21.0173H28.5772C27.5777 21.0173 26.9227 20.1897 27.1136 19.169H27.1015L28.53 11.5587C28.8008 10.1183 27.852 9.07468 26.4417 9.07468H23.4711C22.0607 9.07347 20.7204 10.1158 20.4497 11.5563L18.6006 21.4057H18.5741L18.4846 21.8823C18.4629 21.9993 18.452 22.1139 18.4472 22.2273L18.4399 22.2647H18.446C18.4121 23.4036 19.2134 24.2759 20.3796 24.2759H21.06L20.1754 28.9883C19.9047 30.4287 20.8292 31.5966 22.2408 31.5966H25.2114C26.6218 31.5978 27.985 30.4312 28.2557 28.9907L29.1404 24.2783H29.9271C31.2215 24.2783 32.4723 23.2082 32.7201 21.8871L32.8022 21.4504L32.8095 21.4106L34.9293 10.1207C35.0405 9.53072 34.661 9.05296 34.0833 9.05296V9.05176Z" fill="#44D8C6"/>
<path d="M17.038 17.8262L18.2091 11.5913C18.4798 10.1508 17.5552 8.98421 16.1437 8.983L6.35567 8.98059C4.9453 8.98059 3.58206 10.1472 3.31135 11.5877L3.17599 12.308L2.14027 17.8238L1.21815 22.7377L0.515985 26.4752L0.0470699 28.9738C-0.223644 30.4143 0.700892 31.5809 2.11247 31.5821L11.9005 31.5845C13.3108 31.5845 14.6741 30.4179 14.9448 28.9774L16.1159 22.7425C16.3286 21.606 15.7968 20.6421 14.8711 20.285C15.931 19.9279 16.8253 18.9639 17.0392 17.8287L17.038 17.8262ZM14.262 23.6751L13.4426 28.04C13.2528 29.0486 12.2993 29.8654 11.3119 29.8641H9.57402C8.58664 29.8641 7.93886 29.0462 8.1286 28.0376L8.948 23.6727C9.13774 22.6641 10.0913 21.8473 11.0787 21.8485H12.8165C13.8039 21.8485 14.4517 22.6665 14.262 23.6751ZM15.5358 16.8912C15.346 17.8998 14.3925 18.7166 13.4051 18.7154H11.6672C10.6798 18.7154 10.0321 17.8974 10.2218 16.8888L11.0412 12.5239C11.2309 11.5153 12.1845 10.6986 13.1719 10.6998H14.9097C15.8971 10.6998 16.5449 11.5177 16.3552 12.5263L15.5358 16.8912Z" fill="#44D8C6"/>
<path d="M44.6097 11.1679C44.2786 11.1679 43.9547 11.4598 43.887 11.8206H43.6949L43.8447 11.0255H44.6363L44.6097 11.1679Z" fill="#44D8C6"/>
</g>
<defs>
<clipPath id="clip0_569_3583">
<rect width="84.8023" height="31.6112" fill="white"/>
</clipPath>
</defs>
</svg>
