<?xml version="1.0" encoding="utf-8"?>
<!-- Generator: Adobe Illustrator 24.0.1, SVG Export Plug-In . SVG Version: 6.00 Build 0)  -->
<svg version="1.1" id="Layer_1" xmlns="http://www.w3.org/2000/svg" xmlns:xlink="http://www.w3.org/1999/xlink" x="0px" y="0px"
	 viewBox="0 0 497.6 203.3" style="enable-background:new 0 0 497.6 203.3;" xml:space="preserve">
<style type="text/css">
	.st0{fill:#FFFFFF;}
	.st1{fill:#ED1C24;}
</style>
<rect class="st0" width="497.6" height="203.3"/>
<g id="Layer_1_1_">
</g>
<g>
	<g id="Layer_5">
		<g id="XMLID_260_">
			<path id="XMLID_261_" d="M66.5,39v11h-9.1V39c-2.8,1.6-4.7,4.6-4.7,8c0,5.1,4.1,9.2,9.2,9.2s9.2-4.1,9.2-9.2
				C71.2,43.6,69.3,40.6,66.5,39z"/>
		</g>
		<g id="XMLID_258_">
			<path id="XMLID_259_" d="M147.1,39v11h9.1V39c2.8,1.6,4.7,4.6,4.7,8c0,5.1-4.1,9.2-9.2,9.2c-5.1,0-9.2-4.1-9.2-9.2
				C142.4,43.6,144.3,40.6,147.1,39z"/>
		</g>
	</g>
	<g id="Layer_2_1_">
		<rect id="XMLID_83_" x="89.1" y="133" class="st1" width="13.3" height="43.6"/>
		<rect id="XMLID_82_" x="110.6" y="133" class="st1" width="13.3" height="43.6"/>
		<polygon id="XMLID_81_" class="st1" points="155.3,92.7 153.3,52.5 149.4,52.5 146.8,92.7 		"/>
		<path id="XMLID_80_" class="st1" d="M126.9,100.3c0,0,14,1.9,19.9-7.6l9.2,2.6c0,0-8.9,15.9-29.1,23.4V100.3z"/>
		<g id="XMLID_75_">
			<circle id="XMLID_79_" class="st0" cx="151" cy="95.3" r="5"/>
			<path id="XMLID_76_" class="st1" d="M151,101.7c-3.6,0-6.5-2.9-6.5-6.5s2.9-6.5,6.5-6.5s6.5,2.9,6.5,6.5S154.6,101.7,151,101.7z
				 M151,91.8c-1.9,0-3.5,1.6-3.5,3.5s1.6,3.5,3.5,3.5s3.5-1.6,3.5-3.5S153,91.8,151,91.8z"/>
		</g>
		<g id="XMLID_70_">
			<circle id="XMLID_74_" class="st0" cx="95.3" cy="155.1" r="6"/>
			<path id="XMLID_71_" class="st1" d="M95.3,162.6c-4.1,0-7.5-3.4-7.5-7.5s3.4-7.5,7.5-7.5s6,3.4,6,7.5S99.4,162.6,95.3,162.6z
				 M95.3,150.5c-2.5,0-4.6,2-4.6,4.6s2,4.6,4.6,4.6s4.6-2,4.6-4.6S97.8,150.5,95.3,150.5z"/>
		</g>
		<g id="XMLID_65_">
			<circle id="XMLID_69_" class="st0" cx="117.8" cy="155.1" r="6"/>
			<path id="XMLID_66_" class="st1" d="M117.8,162.6c-4.1,0-6.7-3.4-6.7-7.5s2.5-7.5,6.7-7.5c4.1,0,7.5,3.4,7.5,7.5
				S121.9,162.6,117.8,162.6z M117.8,150.5c-2.5,0-4.6,2-4.6,4.6s2,4.6,4.6,4.6s4.6-2,4.6-4.6S120.3,150.5,117.8,150.5z"/>
		</g>
		<polygon id="XMLID_64_" class="st1" points="57.8,92.7 59.7,52.5 63.6,52.5 66.2,92.7 		"/>
		<path id="XMLID_63_" class="st1" d="M86.1,100.3c0,0-14,1.9-19.9-7.6L57,95.3c0,0,8.9,15.9,29.1,23.4V100.3L86.1,100.3z"/>
		<g id="XMLID_58_">
			<circle id="XMLID_62_" class="st0" cx="62" cy="95.3" r="5"/>
			<path id="XMLID_59_" class="st1" d="M62,101.7c-3.6,0-6.5-2.9-6.5-6.5s2.9-6.5,6.5-6.5s6.5,2.9,6.5,6.5S65.6,101.7,62,101.7z
				 M62,91.8c-1.9,0-3.5,1.6-3.5,3.5s1.6,3.5,3.5,3.5s3.5-1.6,3.5-3.5S63.9,91.8,62,91.8z"/>
		</g>
		<path id="XMLID_57_" d="M87,97.8l0.2-21.2c0.1-5.3,2.2-10.2,6-13.9s8.8-5.7,14.1-5.6s10.2,2.2,13.9,6c3.7,3.8,5.7,8.8,5.6,14.1
			l-0.3,23.4l-6.8-0.1l0.3-23.4c0-3.5-1.3-6.8-3.7-9.3c-2.4-2.5-5.7-3.9-9.2-3.9s-6.8,1.3-9.3,3.7c-2.5,2.4-3.9,5.7-3.9,9.2L93.6,98
			L87,97.8z"/>
		<circle id="XMLID_56_" cx="100.2" cy="81.7" r="2.9"/>
		<circle id="XMLID_55_" cx="113.8" cy="81.7" r="2.9"/>
		<circle id="XMLID_54_" cx="106.9" cy="114.8" r="26.4"/>
		<path id="XMLID_53_" class="st1" d="M104.5,110.5l-1,18.9h7.4l-1.5-19c1.8-0.9,3-2.7,3-4.9c0-3-2.5-5.5-5.5-5.5s-5.5,2.5-5.5,5.5
			C101.5,107.8,102.7,109.6,104.5,110.5z"/>
		<g id="XMLID_50_">
			<path id="XMLID_52_" d="M105.1,180.2c-0.9-5.9-6-10.5-12.2-10.5s-11.3,4.5-12.2,10.5h23H105.1z"/>
			<path id="XMLID_51_" d="M132.6,180.2c-0.9-5.9-6-10.5-12.2-10.5s-11.3,4.5-12.2,10.5h1.4H132.6z"/>
		</g>
	</g>
	<g id="Layer_4">
		<path id="XMLID_236_" class="st1" d="M43.4,32.9c-2.7-4-6.5-6.3-10.5-6.3c-4.1,0-7.8,2.2-10.6,6.2c-2.5,3.7-3.9,8.6-3.9,13.7
			s1.4,10,3.9,13.7c2.7,4,6.5,6.2,10.5,6.2s7.8-2.2,10.6-6.2c1.8-2.6,3-5.7,3.5-9.1c0.1-0.6,0.7-1.1,1.3-1.1l158.5,0.1
			c0.7,0,1.3-0.6,1.4-1.3v-4.2c0-0.7-0.6-1.3-1.3-1.4H202c-0.7,0-1.3-0.6-1.3-1.4V24c0-0.7-0.6-1.3-1.3-1.4h-20
			c-0.7,0-1.3,0.6-1.4,1.3v17.8c0,0.7-0.6,1.3-1.4,1.3h-1.2c-0.7,0-1.3-0.6-1.3-1.4V28c0-0.7-0.6-1.3-1.3-1.4h-3.1
			c-0.7,0-1.3,0.6-1.4,1.3v13.6c0,0.7-0.6,1.3-1.4,1.3H48.3c-0.7,0-1.2-0.5-1.3-1.1C46.3,38.6,45.2,35.4,43.4,32.9z M32.8,60.8
			c-4.8,0-8.9-6.6-8.9-14.3s4.1-14.3,9-14.3s8.9,6.6,8.9,14.3S37.6,60.8,32.8,60.8z"/>
	</g>
	<g id="Layer_3">
		<g id="XMLID_45_">
			<path id="XMLID_46_" d="M68.6,52.5c-0.7-1-1.4-1.5-2.1-2.5l0,0h-9.1V39c-2.8,1.6-4.7,4.6-4.7,8c0,5.1,4.1,9.2,9.2,9.2
				c2.8,0,5.3-1.3,7-3.2C68.9,52.8,68.7,52.7,68.6,52.5z"/>
		</g>
		<g id="XMLID_23_">
			<path id="XMLID_43_" d="M167.9,169.4c2.6,0,4.7-0.8,6.2-2.3c1.6-1.5,2.3-3.5,2.3-6h13.1l0.1,0.3c0.1,5.4-1.9,10-6.1,13.7
				s-9.5,5.5-15.7,5.5c-8,0-14.2-2.5-18.6-7.6c-4.3-5.1-6.5-11.6-6.5-19.6v-1.5c0-7.9,2.2-14.4,6.7-19.6c4.5-5.1,10.8-7.7,19.1-7.7
				c4.3,0,8.2,0.6,11.7,1.9c3.4,1.3,6.3,3.1,8.6,5.5l0.2,14.4h-11.8l-2.4-8.4c-0.7-0.6-1.6-1.2-2.7-1.6c-1.1-0.4-2.3-0.6-3.6-0.6
				c-4.1,0-7,1.5-8.7,4.5s-2.5,6.8-2.5,11.5v1.5c0,4.8,0.8,8.7,2.3,11.6C161.3,167.9,164,169.4,167.9,169.4z"/>
			<path id="XMLID_40_" d="M221,180.5c-7.8,0-14-2.5-18.6-7.5s-7-11.3-7-19v-2c0-8,2.2-14.6,6.6-19.8c4.4-5.2,10.3-7.7,17.7-7.7
				c7.3,0,12.9,2.2,16.9,6.6s6,10.3,6,17.8v7.9h-32.1l-0.1,0.3c0.3,3.6,1.5,6.5,3.6,8.8s5,3.4,8.6,3.4c3.2,0,5.9-0.3,8-1
				c2.1-0.6,4.4-1.7,7-3.1l3.9,9c-2.2,1.8-5.1,3.2-8.6,4.4C229.3,179.9,225.4,180.5,221,180.5z M219.7,135.9c-2.7,0-4.8,1-6.4,3.1
				c-1.6,2.1-2.5,4.8-2.9,8.1l0.1,0.2h17.9V146c0-3.1-0.7-5.5-2.2-7.4C224.8,136.8,222.7,135.9,219.7,135.9z"/>
			<path id="XMLID_38_" d="M251.1,170.8l7-1.5v-33.4l-7.7-1.5v-8.8h21.2l0.6,7.9c1.3-2.8,2.9-5,4.9-6.5c2-1.6,4.3-2.3,6.9-2.3
				c0.8,0,1.6,0.1,2.4,0.2s1.5,0.3,2.1,0.4v11l-4.3,0.1c-3.8,0-7.2,1.4-8.4,2.2c-1.3,0.9-2.5,3-3.3,4.5v26.2l7,1.5v8.7H251
				L251.1,170.8L251.1,170.8z"/>
			<path id="XMLID_32_" d="M317.7,112.5v12.8h9.5v11h-9.5v27c0,2.1,0.4,3.6,1.3,4.5s2,1.3,3.5,1.3c1,0,1.9,0,2.6-0.1
				s1.6-0.2,2.5-0.4l1.2,10.5c-1.6,0.5-3.2,0.9-4.8,1.1s-3.3,0.4-5.2,0.4c-5,0-8.9-1.4-11.6-4.1c-2.7-2.8-4.1-7.1-4.1-13.1v-27h-7.9
				v-11h7.9v-12.9C303.1,112.5,317.7,112.5,317.7,112.5z"/>
			<path id="XMLID_29_" class="st1" d="M385.2,154.1c0,8-1.8,14.4-5.4,19.3c-3.6,4.8-8.8,7.2-15.5,7.2c-3.2,0-5.9-0.7-8.2-2
				c-2.3-1.3-4.3-3.2-5.9-5.7l-1,6.6h-12.5v-67.4l-7.7-1.5v-8.8h22.2v29.5c1.6-2.2,3.4-3.8,5.6-5s4.7-1.7,7.5-1.7
				c6.8,0,12,2.6,15.6,7.7c3.6,5.2,5.4,12,5.4,20.6v1.2L385.2,154.1L385.2,154.1z M370.7,153c0-5.2-0.8-9.4-2.3-12.5
				s-4.2-4.6-7.9-4.6c-2.3,0-4.2,0.5-5.7,1.4c-1.6,0.9-2.8,2.3-3.7,4.1v22.7c0.9,1.7,2.1,2.9,3.7,3.8s3.5,1.3,5.8,1.3
				c3.7,0,6.4-1.3,7.9-4c1.5-2.6,2.2-6.4,2.2-11.2V153z"/>
			<path id="XMLID_26_" class="st1" d="M391.3,152.1c0-8,2.2-14.6,6.7-19.7s10.7-7.7,18.6-7.7c8,0,14.2,2.6,18.7,7.7
				c4.5,5.1,6.7,11.7,6.7,19.8v1c0,8.1-2.2,14.7-6.7,19.8s-10.7,7.6-18.6,7.6c-8,0-14.2-2.5-18.7-7.6s-6.7-11.7-6.7-19.8V152.1z
				 M405.8,153.1c0,4.9,0.9,8.8,2.6,11.8s4.5,4.5,8.4,4.5c3.7,0,6.5-1.5,8.2-4.5s2.6-6.9,2.6-11.8v-1c0-4.8-0.9-8.7-2.6-11.7
				c-1.8-3-4.5-4.5-8.3-4.5s-6.5,1.5-8.3,4.5c-1.7,3-2.6,6.9-2.6,11.7L405.8,153.1L405.8,153.1z"/>
			<path id="XMLID_24_" class="st1" d="M468,112.5v13.2h9.5v10.2H468v27.4c0,2.1,0.4,3.6,1.3,4.5s2,1.3,3.5,1.3c1,0,1.9,0,2.6-0.1
				s1.6-0.2,2.5-0.4l1.2,10.5c-1.6,0.5-3.2,0.9-4.8,1.1s-3.3,0.4-5.2,0.4c-5,0-8.9-1.4-11.6-4.1c-2.7-2.8-4.1-7.1-4.1-13.1v-27.5
				h-7.9v-10.2h7.9v-13.2L468,112.5L468,112.5z"/>
		</g>
		<g id="XMLID_21_">
			<path id="XMLID_22_" d="M145.1,52.5c0.7-1,0.9-1.5,1.6-2.5h0.5h9.1V39c2.8,1.6,4.7,4.6,4.7,8c0,5.1-4.1,9.2-9.2,9.2
				c-2.8,0-5.3-1.3-7-3.2C144.8,52.8,144.9,52.7,145.1,52.5z"/>
		</g>
	</g>
</g>
</svg>
