<?xml version="1.0" encoding="utf-8"?>
<!-- Generator: Adobe Illustrator 24.0.1, SVG Export Plug-In . SVG Version: 6.00 Build 0)  -->
<svg version="1.1" id="Layer_1" xmlns="http://www.w3.org/2000/svg" xmlns:xlink="http://www.w3.org/1999/xlink" x="0px" y="0px"
	 viewBox="0 0 189.67 157.58" style="enable-background:new 0 0 189.67 157.58;" xml:space="preserve">
<style type="text/css">
	.st0{fill:#ED1C24;}
	.st1{fill:#FFFFFF;}
</style>
<g id="Layer_1_1_">
</g>
<g id="Layer_5">
	<g id="XMLID_260_">
		<path id="XMLID_261_" d="M48.13,16.41V27.4h-9.06V16.41c-2.8,1.58-4.69,4.58-4.69,8.02c0,5.09,4.12,9.22,9.21,9.22
			s9.22-4.12,9.22-9.21C52.81,20.99,50.92,18,48.13,16.41z"/>
	</g>
	<g id="XMLID_258_">
		<path id="XMLID_259_" d="M128.72,16.41V27.4h9.06V16.41c2.8,1.58,4.69,4.58,4.69,8.02c0,5.09-4.12,9.22-9.21,9.22
			c-5.09,0-9.22-4.12-9.22-9.21C124.04,20.99,125.93,18,128.72,16.41z"/>
	</g>
</g>
<g id="Layer_2_1_">
	<rect id="XMLID_83_" x="70.69" y="110.36" class="st0" width="13.35" height="43.63"/>
	<rect id="XMLID_82_" x="92.2" y="110.36" class="st0" width="13.35" height="43.63"/>
	<polygon id="XMLID_81_" class="st0" points="136.85,70.07 134.9,29.87 130.98,29.87 128.37,70.07 	"/>
	<path id="XMLID_80_" class="st0" d="M108.49,77.68c0,0,14.01,1.92,19.88-7.61l9.23,2.62c0,0-8.9,15.88-29.12,23.38V77.68H108.49z"
		/>
	<g id="XMLID_75_">
		<circle id="XMLID_79_" class="st1" cx="132.61" cy="72.69" r="4.99"/>
		<path id="XMLID_76_" class="st0" d="M132.62,79.15c-3.56,0-6.46-2.9-6.46-6.46s2.9-6.46,6.46-6.46s6.46,2.9,6.46,6.46
			S136.17,79.15,132.62,79.15z M132.62,69.17c-1.94,0-3.52,1.58-3.52,3.52s1.58,3.52,3.52,3.52s3.52-1.58,3.52-3.52
			S134.56,69.17,132.62,69.17z"/>
	</g>
	<g id="XMLID_70_">
		<circle id="XMLID_74_" class="st1" cx="76.87" cy="132.46" r="6.04"/>
		<path id="XMLID_71_" class="st0" d="M76.87,139.96c-4.14,0-7.5-3.37-7.5-7.5c0-4.14,3.37-7.5,7.5-7.5c4.14,0,6.04,3.37,6.04,7.5
			C82.91,136.6,81.01,139.96,76.87,139.96z M76.87,127.89c-2.52,0-4.57,2.05-4.57,4.57s2.05,4.57,4.57,4.57s4.57-2.05,4.57-4.57
			S79.39,127.89,76.87,127.89z"/>
	</g>
	<g id="XMLID_65_">
		<circle id="XMLID_69_" class="st1" cx="99.36" cy="132.46" r="6.04"/>
		<path id="XMLID_66_" class="st0" d="M99.36,139.96c-4.14,0-6.66-3.37-6.66-7.5c0-4.14,2.53-7.5,6.66-7.5c4.14,0,7.5,3.37,7.5,7.5
			C106.87,136.6,103.5,139.96,99.36,139.96z M99.36,127.89c-2.52,0-4.57,2.05-4.57,4.57s2.05,4.57,4.57,4.57s4.57-2.05,4.57-4.57
			S101.88,127.89,99.36,127.89z"/>
	</g>
	<polygon id="XMLID_64_" class="st0" points="39.36,70.07 41.31,29.87 45.22,29.87 47.84,70.07 	"/>
	<path id="XMLID_63_" class="st0" d="M67.72,77.68c0,0-14.01,1.92-19.88-7.61l-9.23,2.62c0,0,8.9,15.88,29.12,23.38V77.68H67.72z"/>
	<g id="XMLID_58_">
		<circle id="XMLID_62_" class="st1" cx="43.59" cy="72.69" r="4.99"/>
		<path id="XMLID_59_" class="st0" d="M43.59,79.15c-3.56,0-6.46-2.9-6.46-6.46s2.9-6.46,6.46-6.46s6.46,2.9,6.46,6.46
			S47.15,79.15,43.59,79.15z M43.59,69.17c-1.94,0-3.52,1.58-3.52,3.52s1.58,3.52,3.52,3.52s3.52-1.58,3.52-3.52
			S45.53,69.17,43.59,69.17z"/>
	</g>
	<path id="XMLID_57_" d="M68.58,75.22l0.27-21.19c0.07-5.29,2.19-10.25,5.98-13.94c3.79-3.7,8.79-5.7,14.09-5.63
		c5.29,0.07,10.25,2.19,13.94,5.98c3.7,3.79,5.7,8.79,5.63,14.09l-0.29,23.36l-6.77-0.09l0.29-23.36c0.04-3.49-1.27-6.78-3.71-9.27
		c-2.43-2.5-5.69-3.89-9.18-3.94c-3.49-0.04-6.78,1.27-9.28,3.71c-2.5,2.43-3.89,5.69-3.94,9.18l-0.27,21.19L68.58,75.22z"/>
	<circle id="XMLID_56_" cx="81.83" cy="59.11" r="2.94"/>
	<circle id="XMLID_55_" cx="95.37" cy="59.11" r="2.94"/>
	<circle id="XMLID_54_" cx="88.53" cy="92.19" r="26.41"/>
	<path id="XMLID_53_" class="st0" d="M86.14,87.93l-1.01,18.94h7.44l-1.53-18.99c1.76-0.91,2.97-2.75,2.97-4.87
		c0-3.03-2.46-5.48-5.48-5.47c-3.03,0-5.48,2.46-5.47,5.48C83.06,85.17,84.32,87.04,86.14,87.93z"/>
	<g id="XMLID_50_">
		<path id="XMLID_52_" d="M86.74,157.58c-0.91-5.91-6.02-10.45-12.18-10.45s-11.27,4.54-12.18,10.45h22.96H86.74z"/>
		<path id="XMLID_51_" d="M114.16,157.58c-0.91-5.91-6.02-10.45-12.18-10.45s-11.27,4.54-12.18,10.45h1.41H114.16z"/>
	</g>
</g>
<g id="Layer_4">
	<path id="XMLID_236_" class="st0" d="M25.01,10.27c-2.73-4.01-6.47-6.22-10.53-6.23s-7.81,2.19-10.55,6.2
		C1.4,13.92,0.01,18.76,0,23.87s1.37,9.96,3.88,13.65c2.73,4.01,6.47,6.22,10.53,6.23s7.81-2.19,10.55-6.2
		c1.75-2.56,2.96-5.68,3.53-9.06c0.11-0.64,0.67-1.11,1.33-1.11l158.49,0.06c0.74,0,1.35-0.6,1.35-1.35l0.01-4.25
		c0-0.74-0.6-1.35-1.35-1.35l-4.8-0.01c-0.74,0-1.35-0.61-1.35-1.35l0.01-17.78c0-0.74-0.6-1.35-1.35-1.35h-20
		c-0.74,0-1.35,0.6-1.35,1.35l-0.01,17.78c0,0.74-0.61,1.35-1.35,1.35h-1.19c-0.74,0-1.35-0.61-1.35-1.35l0.01-13.62
		c0-0.74-0.6-1.35-1.35-1.35l-3.14-0.01c-0.74,0-1.35,0.6-1.35,1.35l-0.01,13.62c0,0.74-0.61,1.35-1.35,1.35L29.83,20.45
		c-0.65,0-1.22-0.47-1.32-1.11C27.94,15.96,26.75,12.83,25.01,10.27z M14.42,38.2c-4.82-0.01-8.88-6.56-8.86-14.32
		c0.01-7.75,4.09-14.3,8.91-14.29s8.88,6.56,8.86,14.32C23.32,31.67,19.24,38.21,14.42,38.2z"/>
</g>
<g id="Layer_3">
	<g id="XMLID_45_">
		<path id="XMLID_46_" d="M50.18,29.89c-0.71-0.97-1.4-1.5-2.06-2.48l0,0h-9.06V16.42c-2.8,1.58-4.69,4.58-4.69,8.02
			c0,5.09,4.12,9.22,9.21,9.22c2.81,0,5.32-1.26,7.01-3.24C50.46,30.24,50.32,30.07,50.18,29.89z"/>
	</g>
	<g id="XMLID_21_">
		<path id="XMLID_22_" d="M126.67,29.89c0.71-0.97,0.92-1.47,1.58-2.45l0.48-0.03h9.06V16.42c2.8,1.58,4.69,4.58,4.69,8.02
			c0,5.09-4.12,9.22-9.21,9.22c-2.81,0-5.32-1.26-7.01-3.24C126.39,30.24,126.53,30.07,126.67,29.89z"/>
	</g>
</g>
</svg>
