<?xml version="1.0" encoding="utf-8"?>
<!-- Generator: Adobe Illustrator 25.4.1, SVG Export Plug-In . SVG Version: 6.00 Build 0)  -->
<svg version="1.1" id="Layer_1" xmlns="http://www.w3.org/2000/svg" xmlns:xlink="http://www.w3.org/1999/xlink" x="0px" y="0px"
	 viewBox="0 0 756.6 123.3" style="enable-background:new 0 0 756.6 123.3;" xml:space="preserve">
<style type="text/css">
	.st0{fill:#DB0096;}
	.st1{fill:#FFFFFF;}
	.st2{stroke:#000000;stroke-width:1.0812;stroke-miterlimit:10;}
</style>
<g>
	<rect y="24.5" class="st0" width="756.6" height="98.8"/>
	<g>
		<path class="st1" d="M44.2,103c-0.1,4.1-1,7.7-2.5,10.8c-1.2,2.7-3.2,5.3-5.9,7.3c-2.7,2.2-6.4,3.4-11.4,3.4s-8.8-1.2-11.5-3.4
			c-2.7-2-4.5-4.6-5.8-7.3c-1.5-3.1-2.3-6.8-2.5-10.8V44.5c0.1-3.9,1-7.6,2.5-10.7c1.2-2.7,3-5.4,5.8-7.4c2.7-2,6.6-3.4,11.5-3.4
			s8.6,1.4,11.4,3.4c2.7,2,4.7,4.7,5.9,7.4c1.5,3.1,2.3,6.8,2.5,10.7V103z M29.4,44.5c0-2.7-0.5-4.6-1.9-6.2c-0.7-0.7-1.8-1.1-3-1.1
			c-2.6,0-3.8,1.9-4.4,3.7c-0.4,1.1-0.5,2.3-0.5,3.7v58.6c0,2.8,0.7,4.7,2.1,6.2c0.7,0.7,1.6,1.1,2.9,1.1c2.6,0,3.8-1.6,4.4-3.7
			c0.4-0.9,0.5-2.2,0.5-3.7L29.4,44.5L29.4,44.5z"/>
		<path class="st1" d="M69.8,71.7l-1.2-4.6h-0.8v56.4H54.2V24h13.2l14.4,51.8l1.2,4.6h0.8V24h13.6v99.4H84.2L69.8,71.7z"/>
		<path class="st1" d="M108.4,24h14.8v85.9h19.6v13.5h-34.4C108.4,123.4,108.4,24,108.4,24z"/>
		<path class="st1" d="M148.9,24h14.8v99.4h-14.8V24z"/>
		<path class="st1" d="M190.3,71.7l-1.2-4.6h-0.8v56.4h-13.7V24h13.2l14.4,51.8l1.2,4.6h0.8V24h13.6v99.4h-13.2L190.3,71.7z"/>
		<path class="st1" d="M228.8,24h33.9v15h-19.1v26.1h13.7v16h-13.7v27.3h19.1v15h-33.9L228.8,24L228.8,24z"/>
		<path class="st1" d="M330.6,89.4v13.7c-0.1,4.1-1,7.7-2.5,10.8c-1.2,2.7-3.2,5.3-5.9,7.3c-2.7,2.2-6.4,3.4-11.4,3.4
			s-8.8-1.2-11.5-3.4c-2.7-2-4.5-4.6-5.8-7.3c-1.5-3.1-2.3-6.8-2.5-10.8V44.5c0.1-3.9,1-7.6,2.5-10.7c1.2-2.7,3-5.4,5.8-7.4
			c2.7-2,6.6-3.4,11.5-3.4s8.6,1.4,11.4,3.4c2.7,2,4.7,4.7,5.9,7.4c1.5,3.1,2.3,6.8,2.5,10.7v13.7h-13.9V44.5c0-2.7-0.7-4.6-2.2-6.2
			c-0.7-0.7-1.9-1.1-3.4-1.1c-2.6,0-3.8,1.9-4.5,3.7c-0.4,1.1-0.5,2.3-0.7,3.7v58.6c0.1,2.8,1,4.7,2.3,6.2c0.7,0.7,1.6,1.1,2.9,1.1
			c3.2,0,4.4-1.6,5.1-3.7c0.4-0.9,0.5-2.2,0.5-3.7V89.4H330.6z"/>
		<path class="st1" d="M339.5,24h33.9v15h-19.1v26.1H368v16h-13.7v27.3h19.1v15h-33.9V24z"/>
		<path class="st1" d="M397.3,71.7l-0.5-1.2l-1.6-0.1l0.1,0.4l-0.1,52.7h-13.6V24h13.2l14.4,51.8l1.2,4.6h0.8V24h13.6v99.4h-13.2
			L397.3,71.7z"/>
		<path class="st1" d="M460.4,50.7c0-3.2-0.1-6.9-1.1-9.7c-1-2.7-2.5-4.6-4.8-4.6c-3.8,0.1-5.1,4.1-5.1,9.9c0,3.4,1.5,6.9,3.7,10.7
			c2.2,3.8,5.1,7.7,8,11.9c3.4,5,6.9,10.1,9.5,15.2s4.4,10.1,4.4,15.6c0,6.6-1.1,12.9-4.3,17.4c-3.2,4.6-8.2,7.6-16.3,7.6
			c-9.5,0-14.8-3.5-17.8-8.9s-3.7-12.6-3.7-20l14.5-1.4c0,4.2,0.1,8.4,1.2,11.5c1,3.2,2.6,5.4,5.8,5.4c4.4,0,6-4.6,6-11
			c0-3.2-1.6-7-3.8-11c-1.2-1.9-2.5-3.9-3.8-6c-2.9-4.1-6-8.7-9.3-13.7s-5.8-10.1-7.3-15.4c-0.8-2.6-1.2-5.3-1.2-8
			c0-5.4,1.2-11.2,4.4-15.7c3.2-4.3,8-7.4,15-7.6c8.9-0.1,14.1,3.5,17,8.8c2.9,5.4,3.7,12,3.7,17.6L460.4,50.7z"/>
		<path class="st1" d="M521.4,103c-0.1,4.1-1,7.7-2.5,10.8c-1.2,2.7-3.2,5.3-5.9,7.3c-2.7,2.2-6.4,3.4-11.4,3.4s-8.8-1.2-11.5-3.4
			c-2.7-2-4.5-4.6-5.8-7.3c-1.5-3.1-2.3-6.8-2.5-10.8V44.5c0.1-3.9,1-7.6,2.5-10.7c1.2-2.7,3-5.4,5.8-7.4c2.7-2,6.6-3.4,11.5-3.4
			s8.6,1.4,11.4,3.4c2.7,2,4.7,4.7,5.9,7.4c1.5,3.1,2.3,6.8,2.5,10.7V103z M506.6,44.5c0-2.7-0.5-4.6-1.9-6.2
			c-0.7-0.7-1.8-1.1-3-1.1c-2.6,0-3.8,1.9-4.4,3.7c-0.4,1.1-0.5,2.3-0.5,3.7v58.6c0,2.8,0.7,4.7,2.1,6.2c0.7,0.7,1.6,1.1,2.9,1.1
			c2.6,0,3.8-1.6,4.4-3.7c0.4-0.9,0.5-2.2,0.5-3.7L506.6,44.5L506.6,44.5z"/>
		<path class="st1" d="M557.9,123.5l-7.7-41.9h-4v41.9h-14.8V24h14.8c17.7,0,25.2,9.9,25.2,28.7c0,9.9-2.6,18.8-8.2,22.6l9.5,48.2
			H557.9z M546.3,68c2.1,0,4.8-0.3,7-2.2c2.2-1.9,4-5.5,4-12.6c0-7-1.8-10.8-4-12.7s-4.9-2-7-2V68z"/>
		<path class="st1" d="M605.5,50.7c0-3.2-0.1-6.9-1.1-9.7c-1-2.7-2.5-4.6-4.8-4.6c-3.8,0.1-5.1,4.1-5.1,9.9c0,3.4,1.5,6.9,3.7,10.7
			c2.2,3.8,5.1,7.7,8,11.9c3.4,5,6.9,10.1,9.5,15.2s4.4,10.1,4.4,15.6c0,6.6-1.1,12.9-4.3,17.4c-3.2,4.6-8.2,7.6-16.3,7.6
			c-9.5,0-14.8-3.5-17.8-8.9s-3.7-12.6-3.7-20l14.5-1.4c0,4.2,0.1,8.4,1.2,11.5c1,3.2,2.6,5.4,5.8,5.4c4.4,0,6-4.6,6-11
			c0-3.2-1.6-7-3.8-11c-1.2-1.9-2.5-3.9-3.8-6c-2.9-4.1-6-8.7-9.3-13.7s-5.8-10.1-7.3-15.4c-0.8-2.6-1.2-5.3-1.2-8
			c0-5.4,1.2-11.2,4.4-15.7c3.2-4.3,8-7.4,15-7.6c8.9-0.1,14.1,3.5,17,8.8c2.9,5.4,3.7,12,3.7,17.6L605.5,50.7z"/>
		<path class="st1" d="M654.4,80.2h-11.5v43.3h-14.8V24h14.8v41.1h11.5V24h14.8v99.4h-14.8V80.2z"/>
		<path class="st1" d="M680.2,24H695v99.4h-14.8V24z"/>
		<path class="st1" d="M705.9,24h14.8c6.4,0,12.9,1.6,17.8,6.2c4.9,4.6,8.2,12.2,8.2,23.5s-3.3,18.8-8.2,23.4s-11.4,6.5-17.8,6.5
			v39.8h-14.8V24z M720.8,68.8c4.5,0,7.4-0.8,9.1-3.1c1.6-2.2,2.1-5.8,2.1-11.4s-0.4-9.5-2.1-11.9c-1.6-2.4-4.5-3.5-9.1-3.5V68.8z"
			/>
	</g>
	<rect x="281.1" y="70.2" width="475.5" height="18.3"/>
</g>
<g>
	<path class="st2" d="M9.6,4.5v13.4H5.9V4.5H1.2V1.3h13.1v3.2H9.6z"/>
	<path class="st2" d="M32.1,6.8c0,2.7-1.1,4.4-3.2,5.2l4.2,5.9h-4.5l-3.7-5.3h-2.6v5.3h-3.7V1.3h6.3c2.6,0,4.4,0.4,5.5,1.3
		S32.1,4.9,32.1,6.8z M27.6,8.8c0.5-0.4,0.7-1.1,0.7-2S28.1,5.3,27.6,5s-1.3-0.5-2.5-0.5h-2.8v4.9H25C26.3,9.4,27.2,9.2,27.6,8.8z"
		/>
	<path class="st2" d="M49.3,17.9l-1.5-3.6h-7l-1.5,3.6h-3.9l7.2-16.6h3.6l7.2,16.6H49.3z M44.3,6.2L42.2,11h4.2L44.3,6.2z"/>
	<path class="st2" d="M64.3,14.6c1.8,0,3.3-0.7,4.5-2.2l2.4,2.4c-1.9,2.1-4.1,3.2-6.7,3.2s-4.7-0.8-6.3-2.4
		c-1.7-1.6-2.5-3.7-2.5-6.1c0-2.5,0.8-4.5,2.5-6.2c1.7-1.6,3.8-2.5,6.2-2.5c2.7,0,5,1,6.9,3.1L69,6.5c-1.2-1.3-2.6-2.1-4.4-2.1
		c-1.4,0-2.6,0.5-3.6,1.4s-1.5,2.1-1.5,3.7s0.5,2.8,1.4,3.7C61.9,14.2,63,14.6,64.3,14.6z"/>
	<path class="st2" d="M75.7,1.3h3.7v6.8l6.3-6.8h4.6l-6.6,7.4c0.6,0.8,1.6,2.3,3.2,4.4s2.7,3.8,3.4,4.8H86l-4.9-6.6l-1.7,1.9v4.7
		h-3.7V1.3z"/>
	<path class="st2" d="M94.1,1.3h3.7v16.6h-3.7V1.3z"/>
	<path class="st2" d="M115.1,1.3h3.7v16.6h-3.7l-7.9-10.4v10.4h-3.7V1.3h3.5l8.2,10.7V1.3H115.1z"/>
	<path class="st2" d="M135.2,9.4h3.7v5.9c-1.6,1.8-3.9,2.8-6.9,2.8c-2.4,0-4.5-0.8-6.1-2.4c-1.7-1.6-2.5-3.7-2.5-6.1
		c0-2.5,0.8-4.5,2.5-6.2c1.7-1.6,3.7-2.5,6.1-2.5c2.4,0,4.5,0.8,6.2,2.4l-1.9,2.8c-0.7-0.6-1.4-1.1-2.1-1.3c-0.6-0.2-1.3-0.4-2-0.4
		c-1.4,0-2.6,0.5-3.6,1.4c-1,0.9-1.5,2.2-1.5,3.8s0.5,2.8,1.4,3.8c0.9,0.9,2,1.4,3.3,1.4s2.4-0.2,3.2-0.7V9.4H135.2z"/>
	<path class="st2" d="M162.4,9.4h3.7v5.9c-1.6,1.8-3.9,2.8-6.9,2.8c-2.4,0-4.5-0.8-6.1-2.4c-1.7-1.6-2.5-3.7-2.5-6.1
		c0-2.5,0.8-4.5,2.5-6.2c1.7-1.6,3.7-2.5,6.1-2.5c2.4,0,4.5,0.8,6.2,2.4l-1.9,2.8c-0.7-0.6-1.4-1.1-2.1-1.3c-0.6-0.2-1.3-0.4-2-0.4
		c-1.4,0-2.6,0.5-3.6,1.4s-1.5,2.2-1.5,3.8s0.5,2.8,1.4,3.8c0.9,0.9,2,1.4,3.3,1.4s2.4-0.2,3.2-0.7V9.4H162.4z"/>
	<path class="st2" d="M171,17.9V1.3h3.7v13.3h7.1v3.3H171z"/>
	<path class="st2" d="M199.6,15.6c-1.7,1.6-3.8,2.5-6.2,2.5c-2.5,0-4.5-0.8-6.2-2.5s-2.5-3.7-2.5-6.1s0.8-4.5,2.5-6.1
		s3.8-2.5,6.2-2.5c2.5,0,4.5,0.8,6.2,2.5c1.7,1.6,2.5,3.7,2.5,6.1S201.3,14,199.6,15.6z M198.4,9.5c0-1.5-0.5-2.7-1.4-3.8
		c-1-1-2.1-1.6-3.5-1.6s-2.6,0.5-3.5,1.6c-1,1-1.4,2.3-1.4,3.8s0.5,2.7,1.4,3.8c1,1,2.1,1.6,3.5,1.6s2.6-0.5,3.5-1.6
		S198.4,11,198.4,9.5z"/>
	<path class="st2" d="M214.1,17.9h-7.3V1.3h6.5c1.1,0,2.1,0.1,2.9,0.4c0.8,0.3,1.4,0.6,1.8,1.1c0.7,0.9,1.1,1.8,1.1,2.9
		c0,1.3-0.4,2.3-1.3,2.9c-0.3,0.2-0.5,0.4-0.6,0.4c-0.1,0.1-0.3,0.1-0.6,0.3c1,0.2,1.9,0.7,2.5,1.4c0.6,0.7,0.9,1.6,0.9,2.6
		c0,1.2-0.4,2.2-1.2,3.1C218,17.4,216.4,17.9,214.1,17.9z M210.5,8h1.8c1,0,1.8-0.1,2.3-0.3c0.5-0.2,0.7-0.7,0.7-1.4
		s-0.2-1.2-0.7-1.5s-1.2-0.4-2.3-0.4h-1.8V8z M210.5,14.8h2.5c1.1,0,1.9-0.1,2.4-0.4s0.8-0.8,0.8-1.5s-0.3-1.3-0.8-1.5
		c-0.6-0.2-1.5-0.4-2.7-0.4h-2.2V14.8z"/>
	<path class="st2" d="M236.4,17.9l-1.5-3.6h-7l-1.5,3.6h-3.9l7.2-16.6h3.6l7.2,16.6H236.4z M231.4,6.2l-2.1,4.8h4.2L231.4,6.2z"/>
	<path class="st2" d="M243.8,17.9V1.3h3.7v13.3h7.1v3.3H243.8z"/>
</g>
</svg>
