<?xml version="1.0" encoding="utf-8"?>
<!-- Generator: Adobe Illustrator 25.4.1, SVG Export Plug-In . SVG Version: 6.00 Build 0)  -->
<svg version="1.1" id="Layer_1" xmlns="http://www.w3.org/2000/svg" xmlns:xlink="http://www.w3.org/1999/xlink" x="0px" y="0px"
	 viewBox="0 0 612 792" style="enable-background:new 0 0 612 792;" xml:space="preserve">
<style type="text/css">
	.st0{fill:#073F60;}
	.st1{fill:#45FFFF;}
</style>
<rect id="XMLID_6_" x="33.9" y="25.3" class="st0" width="542.5" height="257.1"/>
<g>
	<g>
		<g id="XMLID_00000075162070911264222550000014129528329218510758_">
			<g>
				<g>
					<path class="st1" d="M170.8,207.7c3.5,0,6.4,3.4,6.4,7.5c0,5.3-3.8,9.9-8.7,9.9c-3.5,0-6.4-3.4-6.4-7.5
						C162.1,212.3,165.9,207.7,170.8,207.7z M174.3,215.5c0-2.7-1.6-5-3.8-5c-2.9,0-5.6,3.1-5.6,6.8c0,2.8,1.6,5.2,3.9,5.2
						C171.7,222.5,174.3,219.3,174.3,215.5z"/>
					<path class="st1" d="M182.9,210.6h-2.6c-0.4,0-0.7-0.4-0.6-0.8l0.2-0.9c0.1-0.5,0.4-0.8,0.8-0.8h2.6l0.8-5.8
						c0.7-4.8,3.3-7,6.9-7c2,0,3.3,1,3.9,1.7c0.2,0.2,0.2,0.7,0,1l-0.8,1c-0.3,0.4-0.7,0.4-1,0c-0.4-0.5-1.4-1.1-2.5-1.1
						c-1.7,0-3.2,1.3-3.6,4.5l-0.8,5.8h4.2c0.4,0,0.7,0.3,0.7,0.8l-0.2,0.9c0,0.4-0.4,0.8-0.8,0.8h-4.2l-3.6,25.7
						c-0.1,0.4-0.5,0.8-0.8,0.8h-1.4c-0.4,0-0.7-0.4-0.6-0.8L182.9,210.6z"/>
					<path class="st1" d="M205.4,220.8l1.9-3.4c0.3-0.5,1.1-0.5,1.4-0.2c0.2,0.1,3.1,2.3,5.9,2.3c1.7,0,2.9-1,2.9-2.5
						c0-1.7-1.4-3.1-4.3-4.2c-3.6-1.4-8-4.2-8-9.1c0-4.1,3.2-8.2,9.6-8.2c4.3,0,7.6,2.2,8.8,3.1c0.5,0.3,0.4,1,0.2,1.3l-2.1,3.2
						c-0.3,0.5-1,0.8-1.4,0.5c-0.4-0.2-3.4-2.5-5.9-2.5c-1.5,0-2.6,1-2.6,2.1c0,1.5,1.2,2.7,4.5,4c3.2,1.3,8.4,3.8,8.4,9.4
						c0,4.3-3.7,8.6-9.8,8.6c-5.4,0-8.4-2.2-9.3-3.2C205.2,221.5,205.1,221.4,205.4,220.8z"/>
					<path class="st1" d="M231,196.5c0-0.4,0.4-0.8,0.8-0.8h5.1c0.5,0,0.8,0.4,0.8,0.8v16.7c0,2.9,2.2,5.2,5.1,5.2
						c3,0,5.2-2.3,5.2-5.2v-16.7c0-0.4,0.3-0.8,0.8-0.8h5.1c0.4,0,0.8,0.4,0.8,0.8v17.1c0,6.3-5.3,11.5-11.8,11.5
						c-6.5,0-11.7-5.2-11.7-11.5V196.5z"/>
					<path class="st1" d="M262.9,196.5c0-0.4,0.3-0.8,0.8-0.8h12.4c5,0,9,4,9,8.9c0,3.8-2.5,6.9-6.1,8.3l5.7,10.5
						c0.3,0.5,0,1.2-0.7,1.2h-5.5c-0.3,0-0.6-0.2-0.7-0.4l-5.5-11h-2.9v10.5c0,0.4-0.4,0.8-0.8,0.8h-4.9c-0.5,0-0.8-0.4-0.8-0.8
						V196.5z M275.5,208.1c1.7,0,3.1-1.6,3.1-3.3c0-1.7-1.4-3.1-3.1-3.1h-6.1v6.5H275.5z"/>
					<path class="st1" d="M288.6,196.8c-0.2-0.5,0.1-1.1,0.7-1.1h5.5c0.3,0,0.6,0.2,0.7,0.5l6.8,15.1h0.2l6.8-15.1
						c0.1-0.2,0.4-0.5,0.7-0.5h5.5c0.6,0,1,0.5,0.7,1.1l-13,27.8c-0.1,0.2-0.4,0.5-0.7,0.5h-0.4c-0.3,0-0.6-0.2-0.7-0.5L288.6,196.8
						z"/>
					<path class="st1" d="M321.4,196.5c0-0.4,0.3-0.8,0.8-0.8h17.1c0.5,0,0.8,0.4,0.8,0.8v4.5c0,0.4-0.3,0.8-0.8,0.8h-11.5v5.1h9.4
						c0.4,0,0.8,0.4,0.8,0.8v4.5c0,0.5-0.4,0.8-0.8,0.8h-9.4v5.6h11.5c0.5,0,0.8,0.4,0.8,0.8v4.5c0,0.4-0.3,0.8-0.8,0.8h-17.1
						c-0.5,0-0.8-0.4-0.8-0.8V196.5z"/>
					<path class="st1" d="M347.3,196.5c0-0.4,0.4-0.8,0.8-0.8h5c0.4,0,0.8,0.4,0.8,0.8v27.4c0,0.4-0.4,0.8-0.8,0.8h-5
						c-0.4,0-0.8-0.4-0.8-0.8V196.5z"/>
					<path class="st1" d="M362.7,196.5c0-0.4,0.3-0.8,0.8-0.8h4.9c0.4,0,0.8,0.4,0.8,0.8v22.1h9.8c0.5,0,0.8,0.4,0.8,0.8v4.5
						c0,0.4-0.3,0.8-0.8,0.8h-15.5c-0.5,0-0.8-0.4-0.8-0.8V196.5z"/>
					<path class="st1" d="M385.5,196.5c0-0.4,0.3-0.8,0.8-0.8h4.9c0.4,0,0.8,0.4,0.8,0.8v22.1h9.8c0.5,0,0.8,0.4,0.8,0.8v4.5
						c0,0.4-0.3,0.8-0.8,0.8h-15.5c-0.5,0-0.8-0.4-0.8-0.8V196.5z"/>
					<path class="st1" d="M405.9,223.6l12.9-27.8c0.1-0.2,0.4-0.5,0.7-0.5h0.4c0.3,0,0.6,0.2,0.7,0.5l12.9,27.8
						c0.2,0.5-0.1,1.1-0.7,1.1h-4.6c-0.7,0-1.1-0.2-1.4-1l-1.5-3.3h-11.2l-1.5,3.3c-0.2,0.5-0.7,1-1.5,1h-4.5
						C406,224.7,405.7,224.2,405.9,223.6z M422.9,214.8l-3.1-6.8h0l-3.1,6.8H422.9z"/>
					<path class="st1" d="M438.7,196.1c0-0.4,0.4-0.7,0.8-0.7h1l16.5,15.9h0v-14.7c0-0.4,0.3-0.8,0.8-0.8h5c0.4,0,0.8,0.4,0.8,0.8
						v27.8c0,0.4-0.4,0.7-0.8,0.7h-0.7c-0.1,0-0.5-0.1-0.5-0.2l-16.3-16.4h0v15.4c0,0.4-0.3,0.8-0.8,0.8h-4.9
						c-0.4,0-0.8-0.4-0.8-0.8L438.7,196.1z"/>
					<path class="st1" d="M485.2,195.3c4.1,0,7.2,1.3,10,3.8c0.4,0.3,0.4,0.8,0,1.2l-3.2,3.3c-0.3,0.3-0.7,0.3-1,0
						c-1.5-1.4-3.6-2.1-5.6-2.1c-4.7,0-8.1,3.9-8.1,8.5c0,4.6,3.5,8.4,8.1,8.4c1.9,0,4.1-0.7,5.5-2c0.3-0.2,0.8-0.2,1.1,0l3.2,3.4
						c0.3,0.3,0.2,0.8,0,1.1c-2.8,2.7-6.4,4-10,4c-8.3,0-14.9-6.6-14.9-14.8C470.3,202,476.9,195.3,485.2,195.3z"/>
					<path class="st1" d="M501.9,196.5c0-0.4,0.3-0.8,0.8-0.8h17.1c0.5,0,0.8,0.4,0.8,0.8v4.5c0,0.4-0.3,0.8-0.8,0.8h-11.5v5.1h9.4
						c0.4,0,0.8,0.4,0.8,0.8v4.5c0,0.5-0.4,0.8-0.8,0.8h-9.4v5.6h11.5c0.5,0,0.8,0.4,0.8,0.8v4.5c0,0.4-0.3,0.8-0.8,0.8h-17.1
						c-0.5,0-0.8-0.4-0.8-0.8V196.5z"/>
				</g>
			</g>
			<g>
				<path class="st1" d="M207.3,180l32.6-70.2c0.3-0.6,1-1.1,1.8-1.1h1c0.7,0,1.5,0.5,1.8,1.1l32.6,70.2c0.6,1.4-0.2,2.7-1.8,2.7
					h-11.6c-1.9,0-2.7-0.6-3.6-2.6l-3.8-8.2H228l-3.8,8.3c-0.5,1.3-1.7,2.5-3.8,2.5h-11.5C207.5,182.7,206.7,181.3,207.3,180z
					 M250.1,157.7l-7.9-17.2h-0.1l-7.8,17.2H250.1z"/>
				<path class="st1" d="M295.5,125h-14.9c-1.1,0-2-0.9-2-2v-11.4c0-1,0.8-2,2-2h46.3c1.1,0,2,0.9,2,2v11.4c0,1-0.8,2-2,2h-14.9
					v55.7c0,1-0.9,2-2,2h-12.5c-1,0-2-0.9-2-2V125z"/>
				<path class="st1" d="M343.4,111.7c0-1,0.8-2,2-2h12.4c1,0,2,0.9,2,2v55.7h24.8c1.1,0,2,0.9,2,2v11.4c0,1-0.8,2-2,2h-39.2
					c-1.1,0-2-0.9-2-2V111.7z"/>
				<path class="st1" d="M394.9,180l32.6-70.2c0.3-0.6,1-1.1,1.8-1.1h1c0.7,0,1.5,0.5,1.8,1.1l32.6,70.2c0.6,1.4-0.2,2.7-1.8,2.7
					h-11.6c-1.9,0-2.7-0.6-3.6-2.6l-3.8-8.2h-28.4l-3.8,8.3c-0.5,1.3-1.7,2.5-3.8,2.5h-11.5C395.1,182.7,394.3,181.3,394.9,180z
					 M437.8,157.7l-7.9-17.2h-0.1l-7.8,17.2H437.8z"/>
				<path class="st1" d="M473.3,172.8l4.9-8.7c0.8-1.4,2.8-1.1,3.5-0.6c0.4,0.2,7.9,5.7,14.8,5.7c4.2,0,7.2-2.6,7.2-6.3
					c0-4.4-3.6-7.7-10.7-10.5c-9-3.5-20.2-10.5-20.2-23c0-10.3,8-20.7,24.1-20.7c10.8,0,19.2,5.5,22.3,7.8c1.2,0.7,1,2.6,0.6,3.3
					l-5.3,8c-0.7,1.1-2.6,2.1-3.5,1.4c-0.9-0.5-8.5-6.3-14.9-6.3c-3.8,0-6.6,2.5-6.6,5.3c0,3.9,3.1,6.8,11.4,10.1
					c8.1,3.2,21.1,9.6,21.1,23.8c0,10.7-9.3,21.6-24.6,21.6c-13.6,0-21.1-5.6-23.5-8C472.8,174.7,472.5,174.2,473.3,172.8z"/>
			</g>
		</g>
		<g>
			<g>
				<g>
					<path class="st1" d="M178.2,162.7l25.1-10.7l-25.1-12.6c-3.7-13.1-13.4-23.7-25.9-28.7l-14.8-48.7L120.2,111
						c-12.4,5-21.9,15.6-25.5,28.6l-25.1,10.7l25.1,12.6c4.1,14.5,15.5,26,30,30.1l10.7,25.2L148,193
						C162.6,188.9,174.2,177.4,178.2,162.7z M98,151.2c0-21.2,17.2-38.4,38.4-38.4c21.2,0,38.4,17.2,38.4,38.4s-17.2,38.4-38.4,38.4
						C115.3,189.5,98,172.3,98,151.2z M137.1,77.5l0.2,0.8v29.5c-0.3,0-0.6,0-1,0c-3.6,0-7.1,0.4-10.5,1.3L137.1,77.5z"/>
				</g>
			</g>
			<g>
				<g>
					<path class="st1" d="M168.3,151.2c0-17.6-14.3-31.9-31.9-31.9s-31.9,14.3-31.9,31.9s14.3,31.9,31.9,31.9
						S168.3,168.8,168.3,151.2z M111.5,151.3c6.6-8.9,15.5-14.4,25.3-14.4s18.7,5.5,25.3,14.4c-6.6,8.9-15.5,14.4-25.3,14.4
						S118.1,160.3,111.5,151.3z"/>
				</g>
			</g>
			<g>
				<g>
					<path class="st1" d="M148.8,151.1c0-6.9-5.6-12.4-12.4-12.4c-6.9,0-12.4,5.6-12.4,12.4c0,6.9,5.6,12.4,12.4,12.4
						C143.2,163.6,148.8,158,148.8,151.1z M136.3,156.6c-3,0-5.4-2.4-5.4-5.4c0-3,2.4-5.4,5.4-5.4c3,0,5.4,2.4,5.4,5.4
						C141.8,154.1,139.3,156.6,136.3,156.6z"/>
				</g>
			</g>
		</g>
	</g>
</g>
<rect id="XMLID_00000047773687711939868800000011195347804549312439_" x="28" y="545.3" class="st0" width="548.3" height="104.8"/>
<g>
	<g>
		<g>
			<g>
				<g>
					<path class="st1" d="M104.2,606.2l9.3-4l-9.3-4.7c-1.4-4.9-5-8.8-9.6-10.7L89,568.7l-6.4,18.2c-4.6,1.9-8.2,5.8-9.5,10.6
						l-9.3,4l9.3,4.7c1.5,5.4,5.8,9.7,11.2,11.2l4,9.4l4.7-9.4C98.4,615.9,102.7,611.6,104.2,606.2z M74.4,601.9
						c0-7.9,6.4-14.3,14.3-14.3c7.9,0,14.3,6.4,14.3,14.3s-6.4,14.3-14.3,14.3C80.8,616.1,74.4,609.7,74.4,601.9z M88.9,574.5
						l0.1,0.3v11c-0.1,0-0.2,0-0.4,0c-1.3,0-2.6,0.2-3.9,0.5L88.9,574.5z"/>
				</g>
			</g>
			<g>
				<g>
					<path class="st1" d="M100.5,601.9c0-6.6-5.3-11.9-11.9-11.9s-11.9,5.3-11.9,11.9s5.3,11.9,11.9,11.9S100.5,608.4,100.5,601.9z
						 M79.4,601.9c2.5-3.3,5.8-5.4,9.4-5.4c3.7,0,7,2,9.4,5.4c-2.5,3.3-5.8,5.4-9.4,5.4C85.1,607.3,81.8,605.2,79.4,601.9z"/>
				</g>
			</g>
			<g>
				<g>
					<path class="st1" d="M93.2,601.8c0-2.6-2.1-4.6-4.6-4.6c-2.6,0-4.6,2.1-4.6,4.6c0,2.6,2.1,4.6,4.6,4.6
						C91.2,606.5,93.2,604.4,93.2,601.8z M88.6,603.9c-1.1,0-2-0.9-2-2c0-1.1,0.9-2,2-2c1.1,0,2,0.9,2,2
						C90.6,603,89.7,603.9,88.6,603.9z"/>
				</g>
			</g>
		</g>
	</g>
</g>
<g>
	<g id="XMLID_00000081616348282406022130000016883212398558148275_">
		<g>
			<g>
				<path d="M170.8,464.8c3.5,0,6.4,3.4,6.4,7.5c0,5.3-3.8,9.9-8.7,9.9c-3.5,0-6.4-3.4-6.4-7.5C162.1,469.4,165.9,464.8,170.8,464.8
					z M174.3,472.5c0-2.7-1.6-5-3.8-5c-2.9,0-5.6,3.1-5.6,6.8c0,2.8,1.6,5.2,3.9,5.2C171.7,479.6,174.3,476.3,174.3,472.5z"/>
				<path d="M182.9,467.7h-2.6c-0.4,0-0.7-0.4-0.6-0.8l0.2-0.9c0.1-0.5,0.4-0.8,0.8-0.8h2.6l0.8-5.8c0.7-4.8,3.3-7,6.9-7
					c2,0,3.3,1,3.9,1.7c0.2,0.2,0.2,0.7,0,1l-0.8,1c-0.3,0.4-0.7,0.4-1,0c-0.4-0.5-1.4-1.1-2.5-1.1c-1.7,0-3.2,1.3-3.6,4.5l-0.8,5.8
					h4.2c0.4,0,0.7,0.3,0.7,0.8l-0.2,0.9c0,0.4-0.4,0.8-0.8,0.8h-4.2l-3.6,25.7c-0.1,0.4-0.5,0.8-0.8,0.8h-1.4
					c-0.4,0-0.7-0.4-0.6-0.8L182.9,467.7z"/>
				<path d="M205.4,477.8l1.9-3.4c0.3-0.5,1.1-0.5,1.4-0.2c0.2,0.1,3.1,2.3,5.9,2.3c1.7,0,2.9-1,2.9-2.5c0-1.7-1.4-3.1-4.3-4.2
					c-3.6-1.4-8-4.2-8-9.1c0-4.1,3.2-8.2,9.6-8.2c4.3,0,7.6,2.2,8.8,3.1c0.5,0.3,0.4,1,0.2,1.3l-2.1,3.2c-0.3,0.5-1,0.8-1.4,0.5
					c-0.4-0.2-3.4-2.5-5.9-2.5c-1.5,0-2.6,1-2.6,2.1c0,1.5,1.2,2.7,4.5,4c3.2,1.3,8.4,3.8,8.4,9.4c0,4.3-3.7,8.6-9.8,8.6
					c-5.4,0-8.4-2.2-9.3-3.2C205.2,478.6,205.1,478.4,205.4,477.8z"/>
				<path d="M231,453.6c0-0.4,0.4-0.8,0.8-0.8h5.1c0.5,0,0.8,0.4,0.8,0.8v16.7c0,2.9,2.2,5.2,5.1,5.2c3,0,5.2-2.3,5.2-5.2v-16.7
					c0-0.4,0.3-0.8,0.8-0.8h5.1c0.4,0,0.8,0.4,0.8,0.8v17.1c0,6.3-5.3,11.5-11.8,11.5c-6.5,0-11.7-5.2-11.7-11.5V453.6z"/>
				<path d="M262.9,453.6c0-0.4,0.3-0.8,0.8-0.8h12.4c5,0,9,4,9,8.9c0,3.8-2.5,6.9-6.1,8.3l5.7,10.5c0.3,0.5,0,1.2-0.7,1.2h-5.5
					c-0.3,0-0.6-0.2-0.7-0.4l-5.5-11h-2.9V481c0,0.4-0.4,0.8-0.8,0.8h-4.9c-0.5,0-0.8-0.4-0.8-0.8V453.6z M275.5,465.2
					c1.7,0,3.1-1.6,3.1-3.3c0-1.7-1.4-3.1-3.1-3.1h-6.1v6.5H275.5z"/>
				<path d="M288.6,453.9c-0.2-0.5,0.1-1.1,0.7-1.1h5.5c0.3,0,0.6,0.2,0.7,0.5l6.8,15.1h0.2l6.8-15.1c0.1-0.2,0.4-0.5,0.7-0.5h5.5
					c0.6,0,1,0.5,0.7,1.1l-13,27.8c-0.1,0.2-0.4,0.5-0.7,0.5h-0.4c-0.3,0-0.6-0.2-0.7-0.5L288.6,453.9z"/>
				<path d="M321.4,453.6c0-0.4,0.3-0.8,0.8-0.8h17.1c0.5,0,0.8,0.4,0.8,0.8v4.5c0,0.4-0.3,0.8-0.8,0.8h-11.5v5.1h9.4
					c0.4,0,0.8,0.4,0.8,0.8v4.5c0,0.5-0.4,0.8-0.8,0.8h-9.4v5.6h11.5c0.5,0,0.8,0.4,0.8,0.8v4.5c0,0.4-0.3,0.8-0.8,0.8h-17.1
					c-0.5,0-0.8-0.4-0.8-0.8V453.6z"/>
				<path d="M347.3,453.6c0-0.4,0.4-0.8,0.8-0.8h5c0.4,0,0.8,0.4,0.8,0.8V481c0,0.4-0.4,0.8-0.8,0.8h-5c-0.4,0-0.8-0.4-0.8-0.8
					V453.6z"/>
				<path d="M362.7,453.6c0-0.4,0.3-0.8,0.8-0.8h4.9c0.4,0,0.8,0.4,0.8,0.8v22.1h9.8c0.5,0,0.8,0.4,0.8,0.8v4.5
					c0,0.4-0.3,0.8-0.8,0.8h-15.5c-0.5,0-0.8-0.4-0.8-0.8V453.6z"/>
				<path d="M385.5,453.6c0-0.4,0.3-0.8,0.8-0.8h4.9c0.4,0,0.8,0.4,0.8,0.8v22.1h9.8c0.5,0,0.8,0.4,0.8,0.8v4.5
					c0,0.4-0.3,0.8-0.8,0.8h-15.5c-0.5,0-0.8-0.4-0.8-0.8V453.6z"/>
				<path d="M405.9,480.7l12.9-27.8c0.1-0.2,0.4-0.5,0.7-0.5h0.4c0.3,0,0.6,0.2,0.7,0.5l12.9,27.8c0.2,0.5-0.1,1.1-0.7,1.1h-4.6
					c-0.7,0-1.1-0.2-1.4-1l-1.5-3.3h-11.2l-1.5,3.3c-0.2,0.5-0.7,1-1.5,1h-4.5C406,481.8,405.7,481.2,405.9,480.7z M422.9,471.8
					l-3.1-6.8h0l-3.1,6.8H422.9z"/>
				<path d="M438.7,453.1c0-0.4,0.4-0.7,0.8-0.7h1l16.5,15.9h0v-14.7c0-0.4,0.3-0.8,0.8-0.8h5c0.4,0,0.8,0.4,0.8,0.8v27.8
					c0,0.4-0.4,0.7-0.8,0.7h-0.7c-0.1,0-0.5-0.1-0.5-0.2l-16.3-16.4h0V481c0,0.4-0.3,0.8-0.8,0.8h-4.9c-0.4,0-0.8-0.4-0.8-0.8
					L438.7,453.1z"/>
				<path d="M485.2,452.4c4.1,0,7.2,1.3,10,3.8c0.4,0.3,0.4,0.8,0,1.2l-3.2,3.3c-0.3,0.3-0.7,0.3-1,0c-1.5-1.4-3.6-2.1-5.6-2.1
					c-4.7,0-8.1,3.9-8.1,8.5c0,4.6,3.5,8.4,8.1,8.4c1.9,0,4.1-0.7,5.5-2c0.3-0.2,0.8-0.2,1.1,0l3.2,3.4c0.3,0.3,0.2,0.8,0,1.1
					c-2.8,2.7-6.4,4-10,4c-8.3,0-14.9-6.6-14.9-14.8C470.3,459.1,476.9,452.4,485.2,452.4z"/>
				<path d="M501.9,453.6c0-0.4,0.3-0.8,0.8-0.8h17.1c0.5,0,0.8,0.4,0.8,0.8v4.5c0,0.4-0.3,0.8-0.8,0.8h-11.5v5.1h9.4
					c0.4,0,0.8,0.4,0.8,0.8v4.5c0,0.5-0.4,0.8-0.8,0.8h-9.4v5.6h11.5c0.5,0,0.8,0.4,0.8,0.8v4.5c0,0.4-0.3,0.8-0.8,0.8h-17.1
					c-0.5,0-0.8-0.4-0.8-0.8V453.6z"/>
			</g>
		</g>
		<g>
			<path d="M207.3,437l32.6-70.2c0.3-0.6,1-1.1,1.8-1.1h1c0.7,0,1.5,0.5,1.8,1.1l32.6,70.2c0.6,1.4-0.2,2.7-1.8,2.7h-11.6
				c-1.9,0-2.7-0.6-3.6-2.6l-3.8-8.2H228l-3.8,8.3c-0.5,1.3-1.7,2.5-3.8,2.5h-11.5C207.5,439.7,206.7,438.4,207.3,437z M250.1,414.7
				l-7.9-17.2h-0.1l-7.8,17.2H250.1z"/>
			<path d="M295.5,382.1h-14.9c-1.1,0-2-0.9-2-2v-11.4c0-1,0.8-2,2-2h46.3c1.1,0,2,0.9,2,2v11.4c0,1-0.8,2-2,2h-14.9v55.7
				c0,1-0.9,2-2,2h-12.5c-1,0-2-0.9-2-2V382.1z"/>
			<path d="M343.4,368.7c0-1,0.8-2,2-2h12.4c1,0,2,0.9,2,2v55.7h24.8c1.1,0,2,0.9,2,2v11.4c0,1-0.8,2-2,2h-39.2c-1.1,0-2-0.9-2-2
				V368.7z"/>
			<path d="M394.9,437l32.6-70.2c0.3-0.6,1-1.1,1.8-1.1h1c0.7,0,1.5,0.5,1.8,1.1l32.6,70.2c0.6,1.4-0.2,2.7-1.8,2.7h-11.6
				c-1.9,0-2.7-0.6-3.6-2.6l-3.8-8.2h-28.4l-3.8,8.3c-0.5,1.3-1.7,2.5-3.8,2.5h-11.5C395.1,439.7,394.3,438.4,394.9,437z
				 M437.8,414.7l-7.9-17.2h-0.1l-7.8,17.2H437.8z"/>
			<path d="M473.3,429.8l4.9-8.7c0.8-1.4,2.8-1.1,3.5-0.6c0.4,0.2,7.9,5.7,14.8,5.7c4.2,0,7.2-2.6,7.2-6.3c0-4.4-3.6-7.7-10.7-10.5
				c-9-3.5-20.2-10.5-20.2-23c0-10.3,8-20.7,24.1-20.7c10.8,0,19.2,5.5,22.3,7.8c1.2,0.7,1,2.6,0.6,3.3l-5.3,8
				c-0.7,1.1-2.6,2.1-3.5,1.4c-0.9-0.5-8.5-6.3-14.9-6.3c-3.8,0-6.6,2.5-6.6,5.3c0,3.9,3.1,6.8,11.4,10.1
				c8.1,3.2,21.1,9.6,21.1,23.8c0,10.7-9.3,21.6-24.6,21.6c-13.6,0-21.1-5.6-23.5-8C472.8,431.7,472.5,431.3,473.3,429.8z"/>
		</g>
	</g>
	<g>
		<path d="M178.2,419.8l25.1-10.7l-25.1-12.6c-3.7-13.1-13.4-23.7-25.9-28.7l-14.8-48.7L120.2,368c-12.4,5-21.9,15.6-25.5,28.6
			l-25.1,10.7l25.1,12.6c4.1,14.5,15.5,26,30,30.1l10.7,25.2L148,450C162.6,446,174.2,434.4,178.2,419.8z M98,408.2
			c0-21.2,17.2-38.4,38.4-38.4c21.2,0,38.4,17.2,38.4,38.4c0,21.2-17.2,38.4-38.4,38.4C115.3,446.6,98,429.4,98,408.2z M137.1,334.6
			l0.2,0.8v29.5c-0.3,0-0.6,0-1,0c-3.6,0-7.1,0.4-10.5,1.3L137.1,334.6z"/>
		<path d="M168.3,408.2c0-17.6-14.3-31.9-31.9-31.9s-31.9,14.3-31.9,31.9c0,17.6,14.3,31.9,31.9,31.9S168.3,425.8,168.3,408.2z
			 M111.5,408.4c6.6-8.9,15.5-14.4,25.3-14.4s18.7,5.5,25.3,14.4c-6.6,8.9-15.5,14.4-25.3,14.4S118.1,417.3,111.5,408.4z"/>
		<path d="M148.8,408.2c0-6.9-5.6-12.4-12.4-12.4c-6.9,0-12.4,5.6-12.4,12.4c0,6.9,5.6,12.4,12.4,12.4
			C143.2,420.6,148.8,415.1,148.8,408.2z M136.3,413.6c-3,0-5.4-2.4-5.4-5.4c0-3,2.4-5.4,5.4-5.4c3,0,5.4,2.4,5.4,5.4
			C141.8,411.2,139.3,413.6,136.3,413.6z"/>
	</g>
</g>
<g id="XMLID_146_">
	<g>
		<path class="st1" d="M119.7,612.8l10.8-23.2c0.1-0.2,0.3-0.4,0.6-0.4h0.3c0.2,0,0.5,0.2,0.6,0.4l10.8,23.2
			c0.2,0.4-0.1,0.9-0.6,0.9h-3.8c-0.6,0-0.9-0.2-1.2-0.9l-1.2-2.7h-9.4l-1.2,2.8c-0.2,0.4-0.6,0.8-1.2,0.8h-3.8
			C119.7,613.7,119.5,613.3,119.7,612.8z M133.9,605.4l-2.6-5.7h0l-2.6,5.7H133.9z"/>
		<path class="st1" d="M148.9,594.6h-4.9c-0.4,0-0.7-0.3-0.7-0.7v-3.8c0-0.3,0.3-0.7,0.7-0.7h15.3c0.4,0,0.7,0.3,0.7,0.7v3.8
			c0,0.3-0.3,0.7-0.7,0.7h-4.9v18.4c0,0.3-0.3,0.7-0.7,0.7h-4.1c-0.3,0-0.7-0.3-0.7-0.7V594.6z"/>
		<path class="st1" d="M164.8,590.2c0-0.3,0.3-0.7,0.7-0.7h4.1c0.3,0,0.7,0.3,0.7,0.7v18.4h8.2c0.4,0,0.7,0.3,0.7,0.7v3.8
			c0,0.3-0.3,0.7-0.7,0.7h-13c-0.4,0-0.7-0.3-0.7-0.7V590.2z"/>
		<path class="st1" d="M181.8,612.8l10.8-23.2c0.1-0.2,0.3-0.4,0.6-0.4h0.3c0.2,0,0.5,0.2,0.6,0.4l10.8,23.2
			c0.2,0.4-0.1,0.9-0.6,0.9h-3.8c-0.6,0-0.9-0.2-1.2-0.9l-1.2-2.7h-9.4l-1.2,2.8c-0.2,0.4-0.6,0.8-1.2,0.8h-3.8
			C181.9,613.7,181.6,613.3,181.8,612.8z M196,605.4l-2.6-5.7h0l-2.6,5.7H196z"/>
		<path class="st1" d="M207.8,610.5l1.6-2.9c0.3-0.4,0.9-0.4,1.2-0.2c0.1,0.1,2.6,1.9,4.9,1.9c1.4,0,2.4-0.9,2.4-2.1
			c0-1.5-1.2-2.6-3.6-3.5c-3-1.2-6.7-3.5-6.7-7.6c0-3.4,2.7-6.9,8-6.9c3.6,0,6.4,1.8,7.4,2.6c0.4,0.2,0.3,0.9,0.2,1.1l-1.8,2.7
			c-0.2,0.4-0.9,0.7-1.2,0.4c-0.3-0.2-2.8-2.1-4.9-2.1c-1.2,0-2.2,0.8-2.2,1.8c0,1.3,1,2.2,3.8,3.3c2.7,1.1,7,3.2,7,7.9
			c0,3.6-3.1,7.1-8.1,7.1c-4.5,0-7-1.9-7.8-2.7C207.6,611.1,207.5,610.9,207.8,610.5z"/>
		<path class="st1" d="M242.1,602.4c2.3,0,4.3,2.3,4.3,5c0,3.6-2.6,6.6-5.8,6.6c-2.3,0-4.3-2.3-4.3-5
			C236.3,605.5,238.9,602.4,242.1,602.4z M244.5,607.6c0-1.8-1-3.3-2.6-3.3c-1.9,0-3.7,2-3.7,4.5c0,1.9,1,3.4,2.6,3.4
			C242.7,612.3,244.5,610.1,244.5,607.6z"/>
		<path class="st1" d="M250.2,604.4h-1.7c-0.3,0-0.4-0.2-0.4-0.5l0.1-0.6c0.1-0.3,0.2-0.5,0.5-0.5h1.7l0.6-3.9
			c0.4-3.2,2.2-4.7,4.6-4.7c1.3,0,2.2,0.7,2.6,1.1c0.1,0.2,0.1,0.4,0,0.6l-0.5,0.7c-0.2,0.2-0.4,0.2-0.6,0c-0.3-0.3-1-0.7-1.7-0.7
			c-1.1,0-2.1,0.9-2.4,3l-0.6,3.9h2.8c0.3,0,0.5,0.2,0.4,0.5l-0.1,0.6c0,0.3-0.3,0.5-0.6,0.5h-2.8l-2.4,17.1
			c-0.1,0.3-0.3,0.5-0.6,0.5h-1c-0.2,0-0.4-0.2-0.4-0.5L250.2,604.4z"/>
		<path class="st1" d="M267.3,610.5l1.6-2.9c0.3-0.4,0.9-0.4,1.2-0.2c0.1,0.1,2.6,1.9,4.9,1.9c1.4,0,2.4-0.9,2.4-2.1
			c0-1.5-1.2-2.6-3.6-3.5c-3-1.2-6.7-3.5-6.7-7.6c0-3.4,2.7-6.9,8-6.9c3.6,0,6.4,1.8,7.4,2.6c0.4,0.2,0.3,0.9,0.2,1.1l-1.8,2.7
			c-0.2,0.4-0.9,0.7-1.2,0.4c-0.3-0.2-2.8-2.1-4.9-2.1c-1.2,0-2.2,0.8-2.2,1.8c0,1.3,1,2.2,3.8,3.3c2.7,1.1,7,3.2,7,7.9
			c0,3.6-3.1,7.1-8.1,7.1c-4.5,0-7-1.9-7.8-2.7C267.1,611.1,267,610.9,267.3,610.5z"/>
		<path class="st1" d="M288.6,590.2c0-0.3,0.3-0.7,0.7-0.7h4.2c0.4,0,0.7,0.3,0.7,0.7v14c0,2.4,1.8,4.4,4.2,4.4
			c2.5,0,4.3-1.9,4.3-4.4v-14c0-0.3,0.3-0.7,0.7-0.7h4.2c0.3,0,0.7,0.3,0.7,0.7v14.3c0,5.2-4.4,9.6-9.9,9.6c-5.4,0-9.8-4.4-9.8-9.6
			V590.2z"/>
		<path class="st1" d="M315.2,590.2c0-0.3,0.3-0.7,0.7-0.7h10.3c4.1,0,7.5,3.3,7.5,7.5c0,3.2-2.1,5.7-5.1,6.9l4.7,8.8
			c0.2,0.4,0,1-0.6,1h-4.6c-0.3,0-0.5-0.2-0.6-0.3l-4.6-9.2h-2.4v8.8c0,0.3-0.3,0.7-0.7,0.7h-4.1c-0.4,0-0.7-0.3-0.7-0.7V590.2z
			 M325.8,599.9c1.4,0,2.6-1.3,2.6-2.8s-1.2-2.6-2.6-2.6h-5.1v5.4H325.8z"/>
		<path class="st1" d="M336.6,590.5c-0.2-0.4,0.1-0.9,0.6-0.9h4.6c0.3,0,0.5,0.2,0.6,0.4l5.7,12.6h0.2l5.7-12.6
			c0.1-0.2,0.3-0.4,0.6-0.4h4.6c0.5,0,0.8,0.4,0.6,0.9l-10.8,23.2c-0.1,0.2-0.3,0.4-0.6,0.4H348c-0.3,0-0.5-0.2-0.6-0.4L336.6,590.5
			z"/>
		<path class="st1" d="M364,590.2c0-0.3,0.3-0.7,0.7-0.7h14.3c0.4,0,0.7,0.3,0.7,0.7v3.8c0,0.3-0.3,0.7-0.7,0.7h-9.6v4.3h7.9
			c0.3,0,0.7,0.3,0.7,0.7v3.8c0,0.4-0.3,0.7-0.7,0.7h-7.9v4.7h9.6c0.4,0,0.7,0.3,0.7,0.7v3.8c0,0.3-0.3,0.7-0.7,0.7h-14.3
			c-0.4,0-0.7-0.3-0.7-0.7V590.2z"/>
		<path class="st1" d="M385.6,590.2c0-0.3,0.3-0.7,0.7-0.7h4.1c0.3,0,0.7,0.3,0.7,0.7v22.9c0,0.3-0.3,0.7-0.7,0.7h-4.1
			c-0.3,0-0.7-0.3-0.7-0.7V590.2z"/>
		<path class="st1" d="M398.4,590.2c0-0.3,0.3-0.7,0.7-0.7h4.1c0.3,0,0.7,0.3,0.7,0.7v18.4h8.2c0.4,0,0.7,0.3,0.7,0.7v3.8
			c0,0.3-0.3,0.7-0.7,0.7h-13c-0.4,0-0.7-0.3-0.7-0.7V590.2z"/>
		<path class="st1" d="M417.4,590.2c0-0.3,0.3-0.7,0.7-0.7h4.1c0.3,0,0.7,0.3,0.7,0.7v18.4h8.2c0.4,0,0.7,0.3,0.7,0.7v3.8
			c0,0.3-0.3,0.7-0.7,0.7h-13c-0.4,0-0.7-0.3-0.7-0.7V590.2z"/>
		<path class="st1" d="M434.5,612.8l10.8-23.2c0.1-0.2,0.3-0.4,0.6-0.4h0.3c0.2,0,0.5,0.2,0.6,0.4l10.8,23.2
			c0.2,0.4-0.1,0.9-0.6,0.9h-3.8c-0.6,0-0.9-0.2-1.2-0.9l-1.2-2.7h-9.4l-1.2,2.8c-0.2,0.4-0.6,0.8-1.2,0.8h-3.8
			C434.5,613.7,434.3,613.3,434.5,612.8z M448.7,605.4l-2.6-5.7h0l-2.6,5.7H448.7z"/>
		<path class="st1" d="M461.8,589.8c0-0.3,0.3-0.6,0.7-0.6h0.9l13.8,13.3h0v-12.3c0-0.3,0.3-0.7,0.7-0.7h4.1c0.3,0,0.7,0.3,0.7,0.7
			v23.2c0,0.3-0.3,0.6-0.7,0.6h-0.6c-0.1,0-0.4-0.1-0.4-0.2l-13.6-13.7h0v12.9c0,0.3-0.3,0.7-0.7,0.7h-4.1c-0.3,0-0.7-0.3-0.7-0.7
			L461.8,589.8z"/>
		<path class="st1" d="M500.6,589.2c3.5,0,6,1.1,8.4,3.2c0.3,0.3,0.3,0.7,0,1l-2.7,2.8c-0.2,0.2-0.6,0.2-0.9,0
			c-1.3-1.1-3-1.8-4.7-1.8c-3.9,0-6.8,3.2-6.8,7.1c0,3.8,2.9,7,6.8,7c1.6,0,3.4-0.6,4.6-1.7c0.2-0.2,0.7-0.2,0.9,0l2.7,2.9
			c0.2,0.2,0.2,0.7,0,0.9c-2.3,2.3-5.3,3.3-8.4,3.3c-6.9,0-12.5-5.5-12.5-12.4C488.1,594.8,493.7,589.2,500.6,589.2z"/>
		<path class="st1" d="M514.5,590.2c0-0.3,0.3-0.7,0.7-0.7h14.3c0.4,0,0.7,0.3,0.7,0.7v3.8c0,0.3-0.3,0.7-0.7,0.7h-9.6v4.3h7.9
			c0.3,0,0.7,0.3,0.7,0.7v3.8c0,0.4-0.3,0.7-0.7,0.7h-7.9v4.7h9.6c0.4,0,0.7,0.3,0.7,0.7v3.8c0,0.3-0.3,0.7-0.7,0.7h-14.3
			c-0.4,0-0.7-0.3-0.7-0.7V590.2z"/>
	</g>
</g>
<g>
	<g>
		<path d="M104.2,710.9l9.3-4l-9.3-4.7c-1.4-4.9-5-8.8-9.6-10.7L89,673.5l-6.4,18.2c-4.6,1.9-8.2,5.8-9.5,10.6l-9.3,4l9.3,4.7
			c1.5,5.4,5.8,9.7,11.2,11.2l4,9.4l4.7-9.4C98.4,720.7,102.7,716.4,104.2,710.9z M74.4,706.6c0-7.9,6.4-14.3,14.3-14.3
			c7.9,0,14.3,6.4,14.3,14.3c0,7.9-6.4,14.3-14.3,14.3C80.8,720.9,74.4,714.5,74.4,706.6z M88.9,679.2l0.1,0.3v11
			c-0.1,0-0.2,0-0.4,0c-1.3,0-2.6,0.2-3.9,0.5L88.9,679.2z"/>
		<path d="M100.5,706.6c0-6.6-5.3-11.9-11.9-11.9s-11.9,5.3-11.9,11.9s5.3,11.9,11.9,11.9S100.5,713.2,100.5,706.6z M79.4,706.7
			c2.5-3.3,5.8-5.4,9.4-5.4c3.7,0,7,2,9.4,5.4c-2.5,3.3-5.8,5.4-9.4,5.4C85.1,712.1,81.8,710,79.4,706.7z"/>
		<path d="M93.2,706.6c0-2.6-2.1-4.6-4.6-4.6c-2.6,0-4.6,2.1-4.6,4.6s2.1,4.6,4.6,4.6C91.2,711.2,93.2,709.2,93.2,706.6z
			 M88.6,708.6c-1.1,0-2-0.9-2-2c0-1.1,0.9-2,2-2c1.1,0,2,0.9,2,2C90.6,707.7,89.7,708.6,88.6,708.6z"/>
	</g>
</g>
<g id="XMLID_00000036940912777328644440000012758283554964253867_">
	<g>
		<path d="M119.7,717.6l10.8-23.2c0.1-0.2,0.3-0.4,0.6-0.4h0.3c0.2,0,0.5,0.2,0.6,0.4l10.8,23.2c0.2,0.4-0.1,0.9-0.6,0.9h-3.8
			c-0.6,0-0.9-0.2-1.2-0.9l-1.2-2.7h-9.4l-1.2,2.8c-0.2,0.4-0.6,0.8-1.2,0.8h-3.8C119.7,718.5,119.5,718.1,119.7,717.6z
			 M133.9,710.2l-2.6-5.7h0l-2.6,5.7H133.9z"/>
		<path d="M148.9,699.4h-4.9c-0.4,0-0.7-0.3-0.7-0.7V695c0-0.3,0.3-0.7,0.7-0.7h15.3c0.4,0,0.7,0.3,0.7,0.7v3.8
			c0,0.3-0.3,0.7-0.7,0.7h-4.9v18.4c0,0.3-0.3,0.7-0.7,0.7h-4.1c-0.3,0-0.7-0.3-0.7-0.7V699.4z"/>
		<path d="M164.8,695c0-0.3,0.3-0.7,0.7-0.7h4.1c0.3,0,0.7,0.3,0.7,0.7v18.4h8.2c0.4,0,0.7,0.3,0.7,0.7v3.8c0,0.3-0.3,0.7-0.7,0.7
			h-13c-0.4,0-0.7-0.3-0.7-0.7V695z"/>
		<path d="M181.8,717.6l10.8-23.2c0.1-0.2,0.3-0.4,0.6-0.4h0.3c0.2,0,0.5,0.2,0.6,0.4l10.8,23.2c0.2,0.4-0.1,0.9-0.6,0.9h-3.8
			c-0.6,0-0.9-0.2-1.2-0.9l-1.2-2.7h-9.4l-1.2,2.8c-0.2,0.4-0.6,0.8-1.2,0.8h-3.8C181.9,718.5,181.6,718.1,181.8,717.6z M196,710.2
			l-2.6-5.7h0l-2.6,5.7H196z"/>
		<path d="M207.8,715.2l1.6-2.9c0.3-0.4,0.9-0.4,1.2-0.2c0.1,0.1,2.6,1.9,4.9,1.9c1.4,0,2.4-0.9,2.4-2.1c0-1.5-1.2-2.6-3.6-3.5
			c-3-1.2-6.7-3.5-6.7-7.6c0-3.4,2.7-6.9,8-6.9c3.6,0,6.4,1.8,7.4,2.6c0.4,0.2,0.3,0.9,0.2,1.1l-1.8,2.7c-0.2,0.4-0.9,0.7-1.2,0.4
			c-0.3-0.2-2.8-2.1-4.9-2.1c-1.2,0-2.2,0.8-2.2,1.8c0,1.3,1,2.2,3.8,3.3c2.7,1.1,7,3.2,7,7.9c0,3.6-3.1,7.1-8.1,7.1
			c-4.5,0-7-1.9-7.8-2.7C207.6,715.8,207.5,715.7,207.8,715.2z"/>
		<path d="M242.1,707.2c2.3,0,4.3,2.3,4.3,5c0,3.6-2.6,6.6-5.8,6.6c-2.3,0-4.3-2.3-4.3-5C236.3,710.2,238.9,707.2,242.1,707.2z
			 M244.5,712.4c0-1.8-1-3.3-2.6-3.3c-1.9,0-3.7,2-3.7,4.5c0,1.9,1,3.4,2.6,3.4C242.7,717,244.5,714.9,244.5,712.4z"/>
		<path d="M250.2,709.1h-1.7c-0.3,0-0.4-0.2-0.4-0.5l0.1-0.6c0.1-0.3,0.2-0.5,0.5-0.5h1.7l0.6-3.9c0.4-3.2,2.2-4.7,4.6-4.7
			c1.3,0,2.2,0.7,2.6,1.1c0.1,0.2,0.1,0.4,0,0.6l-0.5,0.7c-0.2,0.2-0.4,0.2-0.6,0c-0.3-0.3-1-0.7-1.7-0.7c-1.1,0-2.1,0.9-2.4,3
			l-0.6,3.9h2.8c0.3,0,0.5,0.2,0.4,0.5l-0.1,0.6c0,0.3-0.3,0.5-0.6,0.5h-2.8l-2.4,17.1c-0.1,0.3-0.3,0.5-0.6,0.5h-1
			c-0.2,0-0.4-0.2-0.4-0.5L250.2,709.1z"/>
		<path d="M267.3,715.2l1.6-2.9c0.3-0.4,0.9-0.4,1.2-0.2c0.1,0.1,2.6,1.9,4.9,1.9c1.4,0,2.4-0.9,2.4-2.1c0-1.5-1.2-2.6-3.6-3.5
			c-3-1.2-6.7-3.5-6.7-7.6c0-3.4,2.7-6.9,8-6.9c3.6,0,6.4,1.8,7.4,2.6c0.4,0.2,0.3,0.9,0.2,1.1l-1.8,2.7c-0.2,0.4-0.9,0.7-1.2,0.4
			c-0.3-0.2-2.8-2.1-4.9-2.1c-1.2,0-2.2,0.8-2.2,1.8c0,1.3,1,2.2,3.8,3.3c2.7,1.1,7,3.2,7,7.9c0,3.6-3.1,7.1-8.1,7.1
			c-4.5,0-7-1.9-7.8-2.7C267.1,715.8,267,715.7,267.3,715.2z"/>
		<path d="M288.6,695c0-0.3,0.3-0.7,0.7-0.7h4.2c0.4,0,0.7,0.3,0.7,0.7v14c0,2.4,1.8,4.4,4.2,4.4c2.5,0,4.3-1.9,4.3-4.4v-14
			c0-0.3,0.3-0.7,0.7-0.7h4.2c0.3,0,0.7,0.3,0.7,0.7v14.3c0,5.2-4.4,9.6-9.9,9.6c-5.4,0-9.8-4.4-9.8-9.6V695z"/>
		<path d="M315.2,695c0-0.3,0.3-0.7,0.7-0.7h10.3c4.1,0,7.5,3.3,7.5,7.5c0,3.2-2.1,5.7-5.1,6.9l4.7,8.8c0.2,0.4,0,1-0.6,1h-4.6
			c-0.3,0-0.5-0.2-0.6-0.3L323,709h-2.4v8.8c0,0.3-0.3,0.7-0.7,0.7h-4.1c-0.4,0-0.7-0.3-0.7-0.7V695z M325.8,704.7
			c1.4,0,2.6-1.3,2.6-2.8s-1.2-2.6-2.6-2.6h-5.1v5.4H325.8z"/>
		<path d="M336.6,695.2c-0.2-0.4,0.1-0.9,0.6-0.9h4.6c0.3,0,0.5,0.2,0.6,0.4l5.7,12.6h0.2l5.7-12.6c0.1-0.2,0.3-0.4,0.6-0.4h4.6
			c0.5,0,0.8,0.4,0.6,0.9l-10.8,23.2c-0.1,0.2-0.3,0.4-0.6,0.4H348c-0.3,0-0.5-0.2-0.6-0.4L336.6,695.2z"/>
		<path d="M364,695c0-0.3,0.3-0.7,0.7-0.7h14.3c0.4,0,0.7,0.3,0.7,0.7v3.8c0,0.3-0.3,0.7-0.7,0.7h-9.6v4.3h7.9
			c0.3,0,0.7,0.3,0.7,0.7v3.8c0,0.4-0.3,0.7-0.7,0.7h-7.9v4.7h9.6c0.4,0,0.7,0.3,0.7,0.7v3.8c0,0.3-0.3,0.7-0.7,0.7h-14.3
			c-0.4,0-0.7-0.3-0.7-0.7V695z"/>
		<path d="M385.6,695c0-0.3,0.3-0.7,0.7-0.7h4.1c0.3,0,0.7,0.3,0.7,0.7v22.9c0,0.3-0.3,0.7-0.7,0.7h-4.1c-0.3,0-0.7-0.3-0.7-0.7V695
			z"/>
		<path d="M398.4,695c0-0.3,0.3-0.7,0.7-0.7h4.1c0.3,0,0.7,0.3,0.7,0.7v18.4h8.2c0.4,0,0.7,0.3,0.7,0.7v3.8c0,0.3-0.3,0.7-0.7,0.7
			h-13c-0.4,0-0.7-0.3-0.7-0.7V695z"/>
		<path d="M417.4,695c0-0.3,0.3-0.7,0.7-0.7h4.1c0.3,0,0.7,0.3,0.7,0.7v18.4h8.2c0.4,0,0.7,0.3,0.7,0.7v3.8c0,0.3-0.3,0.7-0.7,0.7
			h-13c-0.4,0-0.7-0.3-0.7-0.7V695z"/>
		<path d="M434.5,717.6l10.8-23.2c0.1-0.2,0.3-0.4,0.6-0.4h0.3c0.2,0,0.5,0.2,0.6,0.4l10.8,23.2c0.2,0.4-0.1,0.9-0.6,0.9h-3.8
			c-0.6,0-0.9-0.2-1.2-0.9l-1.2-2.7h-9.4l-1.2,2.8c-0.2,0.4-0.6,0.8-1.2,0.8h-3.8C434.5,718.5,434.3,718.1,434.5,717.6z
			 M448.7,710.2l-2.6-5.7h0l-2.6,5.7H448.7z"/>
		<path d="M461.8,694.6c0-0.3,0.3-0.6,0.7-0.6h0.9l13.8,13.3h0V695c0-0.3,0.3-0.7,0.7-0.7h4.1c0.3,0,0.7,0.3,0.7,0.7v23.2
			c0,0.3-0.3,0.6-0.7,0.6h-0.6c-0.1,0-0.4-0.1-0.4-0.2L467.3,705h0v12.9c0,0.3-0.3,0.7-0.7,0.7h-4.1c-0.3,0-0.7-0.3-0.7-0.7
			L461.8,694.6z"/>
		<path d="M500.6,694c3.5,0,6,1.1,8.4,3.2c0.3,0.3,0.3,0.7,0,1l-2.7,2.8c-0.2,0.2-0.6,0.2-0.9,0c-1.3-1.1-3-1.8-4.7-1.8
			c-3.9,0-6.8,3.2-6.8,7.1c0,3.8,2.9,7,6.8,7c1.6,0,3.4-0.6,4.6-1.7c0.2-0.2,0.7-0.2,0.9,0l2.7,2.9c0.2,0.2,0.2,0.7,0,0.9
			c-2.3,2.3-5.3,3.3-8.4,3.3c-6.9,0-12.5-5.5-12.5-12.4C488.1,699.5,493.7,694,500.6,694z"/>
		<path d="M514.5,695c0-0.3,0.3-0.7,0.7-0.7h14.3c0.4,0,0.7,0.3,0.7,0.7v3.8c0,0.3-0.3,0.7-0.7,0.7h-9.6v4.3h7.9
			c0.3,0,0.7,0.3,0.7,0.7v3.8c0,0.4-0.3,0.7-0.7,0.7h-7.9v4.7h9.6c0.4,0,0.7,0.3,0.7,0.7v3.8c0,0.3-0.3,0.7-0.7,0.7h-14.3
			c-0.4,0-0.7-0.3-0.7-0.7V695z"/>
	</g>
</g>
</svg>
