<?xml version="1.0" encoding="utf-8"?>
<!-- Generator: Adobe Illustrator 24.0.1, SVG Export Plug-In . SVG Version: 6.00 Build 0)  -->
<svg version="1.1" id="Layer_1" xmlns="http://www.w3.org/2000/svg" xmlns:xlink="http://www.w3.org/1999/xlink" x="0px" y="0px"
	 viewBox="0 0 356.92 348.66" style="enable-background:new 0 0 356.92 348.66;" xml:space="preserve">
<style type="text/css">
	.st0{fill:#20C9C9;}
	.st1{fill:#F42AAC;}
	.st2{fill:#2FEFF4;}
</style>
<circle id="XMLID_9_" class="st0" cx="193.75" cy="133.42" r="133.42"/>
<g id="XMLID_211_">
	<path id="XMLID_220_" d="M338.67,108.21c-3.33-4.1-7.48-8.45-9.65-10.04c-2.17-1.58-5.15-7.08-2.54-11.34
		c2.61-4.26,6.41-9.47,3.29-15.91s-3.53-9.07-3.53-9.07s-0.9,5.34-2.66,10.04c-1.77,4.7-3.13,9.53-3.65,14.81s-2.82,6.6-5.73,7.63
		s-7.31-0.01-10.16-5.92c-2.85-5.9-9.83-11.16-21.99-13.88c0,0,2.58,14.03,10.91,18.11c8.33,4.08,10.9,6.95,11.02,10.21
		c0.39,10.23-15.96,20.97-32.38,11.99s-44.95-48.77-98.17-39.69c-53.22,9.09-88.32,92.3-99.87,134.13
		C62,251.11,37.54,271.87,0,275.42c0,0,28.84,9.73,54.27-7.33s38.34-45.24,45.26-62.49c6.93-17.24,21.85-39.97,37.73-46.69
		c0,0,2.63,11.9,10.19,18.42c7.56,6.51,8.04,26.83-0.75,37.06c-8.79,10.22-21.21,26.79-21.21,26.79s4.37,37.8,6.3,50.19
		c1.94,12.4-3.31,30.53-11.22,34.08c0,0,1.4,4.01,5.53,3.37c0,0-3.05,5.09-2.52,8.48c0.53,3.38-1.28,9.05-3.73,10.59
		c0,0,7.15,3.89,12.56-5.81c5.41-9.7,14.44-30.73,14.44-30.73s-2.47-28.09-4.64-41.99s13.44-37.12,23.89-44.14
		s46.58-19.59,71.96-56.65c0,0,19.21,3.69,34.71-1.04c1.05,3.51,2.6,7.7,3.23,11.75c0.88,5.63-3.08,7.99-9.53,11.01
		s-4.75,10.27-4.75,10.27s2.69-1.29,11.89-3.3c9.21-2.02,9.83-12.79,9.12-21.05c-0.67-7.75,5.61-16.58,6.38-17.64
		c9.93-7.48,15.95-15.8,19.83-21.47c5.01-7.33,21.16-9.85,28.48-9.84s19.51-0.74,19.51-0.74l-0.42-7.63
		C356.5,118.89,342,112.31,338.67,108.21z"/>
	<g id="XMLID_214_">
		<path id="XMLID_215_" class="st1" d="M222.55,165c-8.13,6.65-15.63,10.02-25.88,11.62c-25.31,3.96-47.32-11.76-51.2-36.56
			c-3.83-24.52,12.27-46.71,36.67-50.52c11.73-1.83,23.38,0.69,32.8,7.1c8.99,6.11,15.02,15.27,16.56,25.13
			c2.08,13.28-1.8,22.41-9.77,23.92c-2.53,0.48-5.19,0.7-7.1-0.73l-0.33-0.28c-0.9-0.98-1.5-2.23-1.73-3.68
			c-0.14-0.9-0.26-2.38-0.21-3.55l0.56-31.14l-13.63-0.06l-0.31,6.17c-3.82-3.79-8.97-6.45-16.75-5.23
			c-13.18,2.06-23.31,16.34-20.82,32.23c2.1,13.41,12.53,20.32,24.02,18.53c7.32-1.14,12.34-5.28,15.62-9.37
			c3.33,2.83,9.17,5.49,18.3,4.07c0.13-0.02,0.26-0.05,0.4-0.07c0.2-0.03,0.4-0.05,0.58-0.08c14.31-2.24,20.95-13.95,18.15-31.81
			c-1.8-11.54-8.92-22.3-19.54-29.52c-11.02-7.5-24.47-10.47-37.87-8.38c-27.84,4.35-46.95,30.54-42.6,58.37
			c4.4,28.18,30.43,46.73,59.24,42.23c11.14-1.74,20.39-5.99,29.1-13.37c6.36-5.48,10.12-7.22,15.37-6.89
			C242.2,163.11,233.39,156.34,222.55,165z M187.57,145.72c-6.2,0.97-11.21-2.29-12.3-9.28c-1.41-9.02,3.72-16.86,11.04-18
			c6.09-0.95,11.13,2.53,12.14,8.96C199.88,136.63,194.67,144.61,187.57,145.72z"/>
	</g>
	<path id="XMLID_213_" class="st2" d="M326.12,117.64c0,0-1.63-3-1.41-5.39c0.03-0.29,0.01-0.55-0.02-0.79
		c-0.01-0.29-0.03-0.58-0.07-0.87c-0.57-3.63-3.97-6.11-7.6-5.55c-0.16,0.03-0.32,0.06-0.47,0.1c-0.23,0.02-0.47,0.07-0.74,0.16
		c-2.26,0.79-5.57-0.07-5.57-0.07s0.19,0.76,0.49,1.73c0.26,0.86,0.6,4.19,0.67,4.93c0.01,0.25,0.03,0.5,0.07,0.75
		c0.57,3.63,3.97,6.11,7.6,5.55c0.15-0.02,0.29-0.06,0.44-0.09c0.93-0.14,3.97-0.57,4.82-0.52
		C325.33,117.64,326.12,117.64,326.12,117.64z"/>
	<circle id="XMLID_212_" cx="318.2" cy="111.56" r="5.1"/>
</g>
</svg>
