<?xml version="1.0" encoding="utf-8"?>
<!-- Generator: Adobe Illustrator 24.0.1, SVG Export Plug-In . SVG Version: 6.00 Build 0)  -->
<svg version="1.1" id="Layer_1" xmlns="http://www.w3.org/2000/svg" xmlns:xlink="http://www.w3.org/1999/xlink" x="0px" y="0px"
	 viewBox="0 0 356.92 348.66" style="enable-background:new 0 0 356.92 348.66;" xml:space="preserve">
<style type="text/css">
	.st0{fill:#20C9C9;}
</style>
<circle id="XMLID_9_" class="st0" cx="193.75" cy="133.42" r="133.42"/>
<path id="XMLID_220_" d="M338.67,108.21c-3.33-4.1-7.48-8.45-9.65-10.04c-2.17-1.58-5.15-7.08-2.54-11.34
	c2.61-4.26,6.41-9.47,3.29-15.91s-3.53-9.07-3.53-9.07s-0.9,5.34-2.66,10.04c-1.77,4.7-3.13,9.53-3.65,14.81
	c-0.52,5.28-2.82,6.6-5.73,7.63s-7.31-0.01-10.16-5.92c-2.85-5.9-9.83-11.16-21.99-13.88c0,0,2.58,14.03,10.91,18.11
	c8.33,4.08,10.9,6.95,11.02,10.21c0.39,10.23-15.96,20.97-32.38,11.99s-44.95-48.77-98.17-39.69
	c-53.22,9.09-88.32,92.3-99.87,134.13C62,251.11,37.54,271.87,0,275.42c0,0,28.84,9.73,54.27-7.33
	c25.43-17.06,38.34-45.24,45.26-62.49c6.93-17.24,21.85-39.97,37.73-46.69c0,0,2.63,11.9,10.19,18.42
	c7.56,6.51,8.04,26.83-0.75,37.06c-8.79,10.22-21.21,26.79-21.21,26.79s4.37,37.8,6.3,50.19c1.94,12.4-3.31,30.53-11.22,34.08
	c0,0,1.4,4.01,5.53,3.37c0,0-3.05,5.09-2.52,8.48c0.53,3.38-1.28,9.05-3.73,10.59c0,0,7.15,3.89,12.56-5.81
	c5.41-9.7,14.44-30.73,14.44-30.73s-2.47-28.09-4.64-41.99c-2.17-13.9,13.44-37.12,23.89-44.14c10.45-7.02,46.58-19.59,71.96-56.65
	c0,0,19.21,3.69,34.71-1.04c1.05,3.51,2.6,7.7,3.23,11.75c0.88,5.63-3.08,7.99-9.53,11.01s-4.75,10.27-4.75,10.27
	s2.69-1.29,11.89-3.3c9.21-2.02,9.83-12.79,9.12-21.05c-0.67-7.75,5.61-16.58,6.38-17.64c9.93-7.48,15.95-15.8,19.83-21.47
	c5.01-7.33,21.16-9.85,28.48-9.84s19.51-0.74,19.51-0.74l-0.42-7.63C356.5,118.89,342,112.31,338.67,108.21z"/>
</svg>
