<?xml version="1.0" encoding="utf-8"?>
<!-- Generator: Adobe Illustrator 24.0.1, SVG Export Plug-In . SVG Version: 6.00 Build 0)  -->
<svg version="1.1" id="Layer_1" xmlns="http://www.w3.org/2000/svg" xmlns:xlink="http://www.w3.org/1999/xlink" x="0px" y="0px"
	 viewBox="0 0 603.4 116.2" style="enable-background:new 0 0 603.4 116.2;" xml:space="preserve">
<style type="text/css">
	.st0{fill:#EC1E1E;}
</style>
<g>
	<polygon class="st0" points="0,2.6 0,113 145.2,113 145.2,81.3 47.3,81.3 47.3,73.4 145.2,73.4 145.2,42 47.3,42 47.3,34.1 
		145.2,34.1 145.2,2.6 	"/>
	<polygon class="st0" points="305.1,2.6 305.1,113 352.4,113 352.4,73.4 450.3,73.4 450.3,42 352.4,42 352.4,34.1 450.3,34.1 
		450.3,2.6 	"/>
	<polygon class="st0" points="458.2,2.6 458.2,113 505.5,113 505.5,73.4 603.4,73.4 603.4,42 505.5,42 505.5,34.1 603.4,34.1 
		603.4,2.6 	"/>
</g>
<g>
	<path d="M153.1,2.4h10.6v4.8h-6v8.3h4.3v5.1h-4.3v8.7h6v4.8h-10.6V2.4z"/>
	<path d="M166.2,2.4h4.6v27.3h6.1V34h-10.8L166.2,2.4L166.2,2.4z"/>
	<path d="M179.4,2.4H190v4.8h-6v8.3h4.3v5.1H184v8.7h6v4.8h-10.6V2.4z"/>
	<path d="M204.8,23.1v4.3c0,1.3-0.3,2.4-0.8,3.4c-0.4,0.9-1,1.7-1.8,2.3c-0.9,0.7-2,1.1-3.6,1.1c-1.5,0-2.7-0.4-3.6-1.1
		c-0.9-0.6-1.4-1.5-1.8-2.3c-0.5-1-0.7-2.1-0.8-3.4V8.9c0-1.2,0.3-2.4,0.8-3.4c0.4-0.9,0.9-1.7,1.8-2.4c0.9-0.6,2.1-1.1,3.6-1.1
		s2.7,0.4,3.6,1.1c0.9,0.6,1.5,1.5,1.8,2.4c0.5,1,0.7,2.1,0.8,3.4v4.3h-4.3V8.9c0-0.9-0.2-1.5-0.7-2c-0.2-0.2-0.6-0.3-1.1-0.3
		c-0.8,0-1.2,0.6-1.4,1.2c-0.1,0.3-0.2,0.7-0.2,1.2v18.6c0,0.9,0.3,1.5,0.7,2c0.2,0.2,0.5,0.3,0.9,0.3c1,0,1.4-0.5,1.6-1.2
		c0.1-0.3,0.2-0.7,0.2-1.2v-4.3L204.8,23.1L204.8,23.1z"/>
	<path d="M206.2,7.2V2.4h13.4v4.8h-4.4V34h-4.6V7.2H206.2z"/>
	<path d="M229.9,34l-2.4-13.3h-1.2V34h-4.6V2.4h4.6c5.5,0,7.9,3.1,7.9,9.1c0,3.1-0.8,6-2.6,7.2l3,15.3H229.9z M226.3,16.3
		c0.6,0,1.5-0.1,2.2-0.7s1.2-1.8,1.2-4s-0.6-3.4-1.2-4C227.8,7,227,7,226.3,7V16.3z"/>
	<path d="M249.4,27.5c0,1.3-0.3,2.4-0.8,3.4c-0.4,0.9-1,1.7-1.8,2.3c-0.9,0.7-2,1.1-3.6,1.1c-1.5,0-2.7-0.4-3.6-1.1
		c-0.9-0.6-1.4-1.5-1.8-2.3c-0.5-1-0.7-2.1-0.8-3.4V8.9c0-1.2,0.3-2.4,0.8-3.4c0.4-0.9,0.9-1.7,1.8-2.4c0.9-0.6,2.1-1.1,3.6-1.1
		s2.7,0.4,3.6,1.1c0.9,0.6,1.5,1.5,1.8,2.4c0.5,1,0.7,2.1,0.8,3.4V27.5z M244.8,8.9c0-0.9-0.2-1.5-0.6-2c-0.2-0.2-0.6-0.3-0.9-0.3
		c-0.8,0-1.2,0.6-1.4,1.2c-0.1,0.3-0.2,0.7-0.2,1.2v18.6c0,0.9,0.2,1.5,0.6,2c0.2,0.2,0.5,0.3,0.9,0.3c0.8,0,1.2-0.5,1.4-1.2
		c0.1-0.3,0.2-0.7,0.2-1.2V8.9z"/>
	<path d="M257.7,17.5l-0.4-1.5H257v17.9h-4.3V2.4h4.1l4.5,16.4l0.4,1.5h0.3V2.4h4.3V34h-4.1L257.7,17.5z"/>
	<path d="M269.9,2.4h4.6V34h-4.6V2.4z"/>
	<path d="M290.3,23.1v4.3c0,1.3-0.3,2.4-0.8,3.4c-0.4,0.9-1,1.7-1.8,2.3c-0.9,0.7-2,1.1-3.6,1.1c-1.5,0-2.7-0.4-3.6-1.1
		c-0.9-0.6-1.4-1.5-1.8-2.3c-0.5-1-0.7-2.1-0.8-3.4V8.9c0-1.2,0.3-2.4,0.8-3.4c0.4-0.9,0.9-1.7,1.8-2.4c0.9-0.6,2.1-1.1,3.6-1.1
		s2.7,0.4,3.6,1.1c0.9,0.6,1.5,1.5,1.8,2.4c0.5,1,0.7,2.1,0.8,3.4v4.3H286V8.9c0-0.9-0.2-1.5-0.7-2c-0.2-0.2-0.6-0.3-1.1-0.3
		c-0.8,0-1.2,0.6-1.4,1.2c-0.1,0.3-0.2,0.7-0.2,1.2v18.6c0,0.9,0.3,1.5,0.7,2c0.2,0.2,0.5,0.3,0.9,0.3c1,0,1.4-0.5,1.6-1.2
		c0.1-0.3,0.2-0.7,0.2-1.2v-4.3L290.3,23.1L290.3,23.1z"/>
	<path d="M163.7,46.6h-6v8.3h4.3v4.8h-4.3v13.7h-4.6V41.8h10.6V46.6z"/>
	<path d="M174.5,73.4l-2.4-13.3h-1.2v13.3h-4.6V41.8h4.6c5.5,0,7.9,3.1,7.9,9.1c0,3.1-0.8,6-2.6,7.2l3,15.3H174.5z M170.9,55.8
		c0.6,0,1.5-0.1,2.2-0.7c0.7-0.6,1.2-1.8,1.2-4s-0.6-3.4-1.2-4c-0.7-0.6-1.5-0.6-2.2-0.6V55.8z"/>
	<path d="M194,66.9c0,1.3-0.3,2.4-0.8,3.4c-0.4,0.9-1,1.7-1.8,2.3c-0.9,0.7-2,1.1-3.6,1.1c-1.5,0-2.7-0.4-3.6-1.1
		c-0.9-0.6-1.4-1.5-1.8-2.3c-0.5-1-0.7-2.1-0.8-3.4V48.3c0-1.2,0.3-2.4,0.8-3.4c0.4-0.9,0.9-1.7,1.8-2.4c0.9-0.6,2.1-1.1,3.6-1.1
		s2.7,0.4,3.6,1.1c0.9,0.6,1.5,1.5,1.8,2.4c0.5,1,0.7,2.1,0.8,3.4V66.9z M189.4,48.3c0-0.9-0.2-1.5-0.6-2c-0.2-0.2-0.6-0.3-0.9-0.3
		c-0.8,0-1.2,0.6-1.4,1.2c-0.1,0.3-0.2,0.7-0.2,1.2V67c0,0.9,0.2,1.5,0.6,2c0.2,0.2,0.5,0.3,0.9,0.3c0.8,0,1.2-0.5,1.4-1.2
		c0.1-0.3,0.2-0.7,0.2-1.2V48.3z"/>
	<path d="M202.3,56.9l-0.4-1.5h-0.3v17.9h-4.3V41.8h4.1l4.5,16.4l0.4,1.5h0.3V41.8h4.3v31.6h-4.1L202.3,56.9z"/>
	<path d="M212.9,46.6v-4.8h13.4v4.8h-4.4v26.8h-4.6V46.6H212.9z"/>
	<path d="M228.3,41.8h4.6v31.6h-4.6V41.8z"/>
	<path d="M236.6,41.8h10.6v4.8h-6v8.3h4.3V60h-4.3v8.7h6v4.8h-10.6V41.8z"/>
	<path d="M258.3,73.4l-2.4-13.3h-1.2v13.3H250V41.8h4.6c5.5,0,7.9,3.1,7.9,9.1c0,3.1-0.8,6-2.6,7.2l3,15.3H258.3z M254.7,55.8
		c0.6,0,1.5-0.1,2.2-0.7c0.7-0.6,1.2-1.8,1.2-4s-0.6-3.4-1.2-4c-0.7-0.6-1.5-0.6-2.2-0.6V55.8z"/>
	<path d="M163.7,86h-6v8.3h4.3v4.8h-4.3v13.7h-4.6V81.2h10.6V86z"/>
	<path d="M178.3,106.3c0,1.3-0.3,2.4-0.8,3.4c-0.4,0.9-1,1.7-1.8,2.3c-0.9,0.7-2,1.1-3.6,1.1c-1.5,0-2.7-0.4-3.6-1.1
		c-0.9-0.6-1.4-1.5-1.8-2.3c-0.5-1-0.7-2.1-0.8-3.4V87.7c0-1.2,0.3-2.4,0.8-3.4c0.4-0.9,0.9-1.7,1.8-2.4c0.9-0.6,2.1-1.1,3.6-1.1
		s2.7,0.4,3.6,1.1c0.9,0.6,1.5,1.5,1.8,2.4c0.5,1,0.7,2.1,0.8,3.4V106.3z M173.7,87.7c0-0.9-0.2-1.5-0.6-2c-0.2-0.2-0.6-0.3-0.9-0.3
		c-0.8,0-1.2,0.6-1.4,1.2c-0.1,0.3-0.2,0.7-0.2,1.2v18.6c0,0.9,0.2,1.5,0.6,2c0.2,0.2,0.5,0.3,0.9,0.3c0.8,0,1.2-0.5,1.4-1.2
		c0.1-0.3,0.2-0.7,0.2-1.2V87.7z"/>
	<path d="M194,81.2v25.1c0,1.3-0.3,2.4-0.8,3.4c-0.4,0.9-1,1.7-1.8,2.3c-0.9,0.7-2,1.1-3.6,1.1c-1.5,0-2.7-0.4-3.6-1.1
		c-0.9-0.6-1.4-1.5-1.8-2.3c-0.5-1-0.7-2.1-0.8-3.4V81.2h4.6v25.1c0,0.9,0.2,1.5,0.6,2c0.2,0.2,0.5,0.3,0.9,0.3
		c0.8,0,1.2-0.5,1.4-1.2c0.1-0.3,0.2-0.7,0.2-1.2v-25L194,81.2L194,81.2z"/>
	<path d="M202.5,96.3l-0.4-1.5h-0.3v18h-4.3V81.2h4.1l4.5,16.4l0.4,1.5h0.3V81.2h4.3v31.6H207L202.5,96.3z"/>
	<path d="M214.8,112.8V81.2h3.7c4.3,0,6.6,0.9,7.9,3.3c1.2,2.4,1.4,6.4,1.4,12.5c0,6.2-0.2,10.1-1.4,12.5c-1.2,2.4-3.6,3.3-7.9,3.3
		C218.5,112.8,214.8,112.8,214.8,112.8z M219.4,108.2c1.6,0,2.5-0.2,3-1.7c0.2-0.7,0.4-1.8,0.4-3.4c0-1.5,0-3.5,0-6.1s0-4.6,0-6.1
		s-0.2-2.6-0.4-3.4c-0.5-1.5-1.4-1.7-3-1.7V108.2z"/>
	<path d="M229.3,112.8l4.8-31.6h5.7l4.8,31.6H240l-0.9-6.4h-4.5l-0.9,6.4H229.3z M237.2,91.5l-0.1-0.8h-0.3l-0.1,0.8l-1.3,10h3.2
		L237.2,91.5z"/>
	<path d="M243.9,86v-4.8h13.4V86h-4.4v26.8h-4.6V86H243.9z"/>
	<path d="M260,81.2h4.6v31.6H260V81.2z"/>
	<path d="M280.3,106.3c0,1.3-0.3,2.4-0.8,3.4c-0.4,0.9-1,1.7-1.8,2.3c-0.9,0.7-2,1.1-3.6,1.1c-1.5,0-2.7-0.4-3.6-1.1
		c-0.9-0.6-1.4-1.5-1.8-2.3c-0.5-1-0.7-2.1-0.8-3.4V87.7c0-1.2,0.3-2.4,0.8-3.4c0.4-0.9,0.9-1.7,1.8-2.4c0.9-0.6,2.1-1.1,3.6-1.1
		s2.7,0.4,3.6,1.1c0.9,0.6,1.5,1.5,1.8,2.4c0.5,1,0.7,2.1,0.8,3.4V106.3z M275.7,87.7c0-0.9-0.2-1.5-0.6-2c-0.2-0.2-0.6-0.3-0.9-0.3
		c-0.8,0-1.2,0.6-1.4,1.2c-0.1,0.3-0.2,0.7-0.2,1.2v18.6c0,0.9,0.2,1.5,0.6,2c0.2,0.2,0.5,0.3,0.9,0.3c0.8,0,1.2-0.5,1.4-1.2
		c0.1-0.3,0.2-0.7,0.2-1.2V87.7z"/>
	<path d="M288.6,96.3l-0.4-1.5h-0.3v18h-4.3V81.2h4.1l4.5,16.4l0.4,1.5h0.3V81.2h4.3v31.6h-4.1L288.6,96.3z"/>
</g>
</svg>
