<?xml version="1.0" encoding="utf-8"?>
<!-- Generator: Adobe Illustrator 24.0.1, SVG Export Plug-In . SVG Version: 6.00 Build 0)  -->
<svg version="1.1" id="Layer_1" xmlns="http://www.w3.org/2000/svg" xmlns:xlink="http://www.w3.org/1999/xlink" x="0px" y="0px"
	 viewBox="0 0 1200 600" style="enable-background:new 0 0 1200 600;" xml:space="preserve">
<style type="text/css">
	.st0{fill:#20C9C9;}
	.st1{fill:#F42AAC;}
	.st2{fill:#2FEFF4;}
</style>
<circle id="XMLID_9_" class="st0" cx="589.72" cy="176.42" r="133.42"/>
<g id="XMLID_211_">
	<path id="XMLID_220_" d="M734.63,151.21c-3.33-4.1-7.48-8.45-9.65-10.04c-2.17-1.58-5.15-7.08-2.54-11.34
		c2.61-4.26,6.41-9.47,3.29-15.91s-3.53-9.07-3.53-9.07s-0.9,5.34-2.66,10.04c-1.77,4.7-3.13,9.53-3.65,14.81s-2.82,6.6-5.73,7.63
		c-2.92,1.03-7.31-0.01-10.16-5.92c-2.85-5.9-9.83-11.16-21.99-13.88c0,0,2.58,14.03,10.91,18.11c8.33,4.08,10.9,6.95,11.02,10.21
		c0.39,10.23-15.96,20.97-32.38,11.99c-16.41-8.98-44.95-48.77-98.17-39.69c-53.22,9.09-88.32,92.3-99.87,134.13
		s-36.01,62.58-73.55,66.14c0,0,28.84,9.73,54.27-7.33s38.34-45.24,45.26-62.49c6.93-17.24,21.85-39.97,37.73-46.69
		c0,0,2.63,11.9,10.19,18.42c7.56,6.51,8.04,26.83-0.75,37.06c-8.79,10.23-21.21,26.79-21.21,26.79s4.37,37.8,6.3,50.19
		c1.94,12.4-3.31,30.53-11.22,34.08c0,0,1.4,4.01,5.53,3.37c0,0-3.05,5.09-2.52,8.48s-1.28,9.05-3.73,10.59
		c0,0,7.15,3.89,12.56-5.81s14.44-30.73,14.44-30.73s-2.47-28.09-4.64-41.99c-2.17-13.9,13.44-37.12,23.89-44.14
		s46.58-19.59,71.96-56.65c0,0,19.21,3.69,34.71-1.04c1.05,3.51,2.6,7.7,3.23,11.75c0.88,5.63-3.08,7.99-9.53,11.01
		s-4.75,10.27-4.75,10.27s2.69-1.29,11.89-3.3c9.21-2.02,9.83-12.79,9.12-21.05c-0.67-7.75,5.61-16.58,6.38-17.64
		c9.93-7.48,15.95-15.8,19.83-21.47c5.01-7.33,21.16-9.85,28.48-9.84c7.31,0.01,19.51-0.74,19.51-0.74l-0.42-7.63
		C752.47,161.89,737.97,155.31,734.63,151.21z"/>
	<g id="XMLID_214_">
		<path id="XMLID_215_" class="st1" d="M618.51,208c-8.13,6.65-15.63,10.02-25.88,11.62c-25.31,3.96-47.32-11.76-51.2-36.56
			c-3.83-24.52,12.27-46.71,36.67-50.52c11.73-1.83,23.38,0.69,32.8,7.1c8.99,6.11,15.02,15.27,16.56,25.13
			c2.08,13.28-1.8,22.41-9.77,23.92c-2.53,0.48-5.19,0.7-7.1-0.73l-0.33-0.28c-0.9-0.98-1.5-2.23-1.73-3.68
			c-0.14-0.9-0.26-2.38-0.21-3.55l0.56-31.14l-13.63-0.06l-0.31,6.17c-3.82-3.79-8.97-6.45-16.75-5.23
			c-13.18,2.06-23.31,16.34-20.82,32.23c2.1,13.41,12.53,20.32,24.02,18.53c7.32-1.14,12.34-5.28,15.62-9.37
			c3.33,2.83,9.17,5.49,18.3,4.07c0.13-0.02,0.26-0.05,0.4-0.07c0.2-0.03,0.4-0.05,0.58-0.08c14.31-2.24,20.95-13.95,18.15-31.81
			c-1.8-11.54-8.92-22.3-19.54-29.52c-11.02-7.5-24.47-10.47-37.87-8.38c-27.84,4.35-46.95,30.54-42.6,58.37
			c4.4,28.18,30.43,46.73,59.24,42.23c11.14-1.74,20.39-5.99,29.1-13.37c6.36-5.48,10.12-7.22,15.37-6.89
			C638.16,206.11,629.35,199.34,618.51,208z M583.53,188.72c-6.2,0.97-11.21-2.29-12.3-9.28c-1.41-9.02,3.72-16.86,11.04-18
			c6.09-0.95,11.13,2.53,12.14,8.96C595.85,179.63,590.63,187.61,583.53,188.72z"/>
	</g>
	<path id="XMLID_213_" class="st2" d="M722.08,160.64c0,0-1.63-3-1.41-5.39c0.03-0.29,0.01-0.55-0.02-0.79
		c-0.01-0.29-0.03-0.58-0.07-0.87c-0.57-3.63-3.97-6.11-7.6-5.55c-0.16,0.03-0.32,0.06-0.47,0.1c-0.23,0.02-0.47,0.07-0.74,0.16
		c-2.26,0.79-5.57-0.07-5.57-0.07s0.19,0.76,0.49,1.73c0.26,0.86,0.6,4.19,0.67,4.93c0.01,0.25,0.03,0.5,0.07,0.75
		c0.57,3.63,3.97,6.11,7.6,5.55c0.15-0.02,0.29-0.06,0.44-0.09c0.93-0.14,3.97-0.57,4.82-0.52
		C721.3,160.64,722.08,160.64,722.08,160.64z"/>
	<circle id="XMLID_212_" cx="714.16" cy="154.56" r="5.1"/>
</g>
<g id="XMLID_11_">
	<path id="XMLID_208_" d="M243.64,386.02h12.23c2.02,6.55,5.36,11.67,10.04,15.35c4.68,3.69,10.18,5.53,16.53,5.53
		c3.83,0,6.9-0.81,9.21-2.44s3.46-3.76,3.46-6.39c0-4.08-5-7.5-15.01-10.26c-3.25-0.86-5.81-1.59-7.66-2.16
		c-6.01-1.81-10.65-3.36-13.9-4.63c-3.26-1.28-5.6-2.47-7.05-3.58c-3.42-2.55-5.94-5.38-7.57-8.5c-1.63-3.11-2.44-6.64-2.44-10.6
		c0-8.53,3.16-15.41,9.48-20.64c6.32-5.23,14.67-7.85,25.05-7.85c5.27,0,10.2,0.52,14.77,1.55c4.57,1.03,9,2.62,13.28,4.76
		l2.29-4.26h12.17v29.47h-14.27c-1.4-6.01-4.04-10.49-7.91-13.44c-3.87-2.94-9.04-4.42-15.51-4.42c-3.79,0-6.91,0.86-9.36,2.59
		c-2.45,1.73-3.68,3.85-3.68,6.36c0,3.79,4.7,6.65,14.09,8.59c2.31,0.49,4.1,0.89,5.38,1.17c13.1,3.01,22.28,6.74,27.56,11.21
		c5.27,4.47,7.91,10.56,7.91,18.26c0,8.57-3.24,15.4-9.73,20.48c-6.49,5.09-15.23,7.63-26.23,7.63c-5.03,0-9.87-0.57-14.52-1.7
		c-4.66-1.13-9.27-2.85-13.84-5.16l-3.15,4.7h-11.62L243.64,386.02L243.64,386.02z"/>
	<path id="XMLID_206_" d="M355.35,345.67c-4.66,0-8.22,1.58-10.69,4.73c-2.47,3.15-3.71,7.73-3.71,13.75v0.37h-12.54v-32.13h89.35
		v32.13h-12.42v-0.37c0-5.97-1.25-10.54-3.74-13.72c-2.49-3.17-6.09-4.76-10.78-4.76h-3.71v52.27c0,3.25,0.43,5.28,1.3,6.09
		c0.87,0.8,2.8,1.2,5.81,1.2h7.1v12.05h-55.86v-12.05h6.61c2.84,0,4.72-0.34,5.62-1.02c0.91-0.68,1.36-2.77,1.36-6.27v-52.27
		L355.35,345.67L355.35,345.67z"/>
	<path id="XMLID_203_" d="M456.74,417.29v-12.05h3.83c3.21,0,5.18-0.17,5.9-0.53c0.72-0.35,1.08-1.02,1.08-2.01
		c0-0.66-0.05-1.29-0.16-1.88s-0.24-1.18-0.4-1.76l-3.03-9.08H441.1l-2.66,8.09c-0.45,1.24-0.76,2.2-0.93,2.9
		c-0.16,0.7-0.25,1.34-0.25,1.92c0,0.74,0.51,1.32,1.54,1.73s2.49,0.62,4.39,0.62h4.2v12.05h-37.94v-12.05h3.15
		c2.14,0,3.94-0.68,5.41-2.04c1.46-1.36,2.73-3.58,3.8-6.67l22.31-64.14h30.71l19.9,63.89c1.36,4.2,2.59,6.75,3.71,7.63
		c1.11,0.89,2.9,1.33,5.38,1.33h4.45v12.05H456.74z M459.96,377.8l-7.72-25.7L445,377.8H459.96z"/>
	<path id="XMLID_200_" d="M516,397.95v-46.34c0-3.3-0.41-5.32-1.24-6.09c-0.83-0.76-2.74-1.14-5.75-1.14h-4.26v-11.99h58.45
		c10.34,0,18.05,1.75,23.14,5.25s7.63,8.8,7.63,15.88c0,4.78-1.57,8.8-4.7,12.05s-7.56,5.48-13.28,6.67
		c5.77,0.7,9.67,2.46,11.71,5.28c2.04,2.82,3.06,9.28,3.06,19.37c0,3.05,0.26,5.16,0.77,6.33c0.52,1.17,1.37,1.76,2.56,1.76
		c1.15,0,2.01-0.72,2.56-2.16c0.56-1.44,0.83-3.62,0.83-6.55c0-0.29-0.02-0.76-0.06-1.42s-0.06-1.15-0.06-1.48h8.59
		c0,0.37,0.02,0.94,0.06,1.7s0.06,1.33,0.06,1.7c0,7.91-1.63,13.65-4.88,17.21s-8.51,5.35-15.76,5.35c-7.7,0-13.32-1.61-16.84-4.82
		c-3.52-3.21-5.28-8.32-5.28-15.32v-7.11c0-5.68-0.75-9.3-2.26-10.84s-4.62-2.32-9.36-2.32h-7.6v19.03c0,3.3,0.42,5.34,1.27,6.12
		c0.84,0.78,2.73,1.17,5.65,1.17h4.82v12.05h-51.1v-12.05h4.26c2.97,0,4.87-0.39,5.72-1.17C515.58,403.28,516,401.24,516,397.95z
		 M543.86,367.42h7.41c5.23,0,8.91-0.83,11.03-2.5c2.12-1.67,3.18-4.46,3.18-8.37c0-4.28-0.98-7.29-2.93-9.02
		c-1.96-1.73-5.41-2.59-10.35-2.59h-8.34V367.42z"/>
	<path id="XMLID_198_" d="M630.62,345.67c-4.66,0-8.22,1.58-10.69,4.73c-2.47,3.15-3.71,7.73-3.71,13.75v0.37h-12.54v-32.13h89.35
		v32.13h-12.42v-0.37c0-5.97-1.25-10.54-3.74-13.72c-2.49-3.17-6.09-4.76-10.78-4.76h-3.71v52.27c0,3.25,0.43,5.28,1.3,6.09
		c0.87,0.8,2.8,1.2,5.81,1.2h7.1v12.05h-55.86v-12.05h6.61c2.84,0,4.72-0.34,5.62-1.02c0.91-0.68,1.36-2.77,1.36-6.27v-52.27
		L630.62,345.67L630.62,345.67z"/>
	<path id="XMLID_196_" class="st1" d="M726.17,345.67c-4.66,0-8.22,1.58-10.69,4.73c-2.47,3.15-3.71,7.73-3.71,13.75v0.37h-12.54
		v-32.13h89.35v32.13h-12.42v-0.37c0-5.97-1.25-10.54-3.74-13.72c-2.49-3.17-6.09-4.76-10.78-4.76h-3.71v52.27
		c0,3.25,0.43,5.28,1.3,6.09c0.87,0.8,2.8,1.2,5.81,1.2h7.1v12.05h-55.86v-12.05h6.61c2.84,0,4.72-0.34,5.62-1.02
		c0.91-0.68,1.36-2.77,1.36-6.27v-52.27L726.17,345.67L726.17,345.67z"/>
	<path id="XMLID_194_" class="st1" d="M844.25,332.39v11.99h-4.82c-2.8,0-4.63,0.33-5.5,0.99c-0.86,0.66-1.3,2.53-1.3,5.62v0.62
		v53.38h5.68c5.27,0,8.99-0.28,11.15-0.83c2.16-0.56,3.88-1.53,5.16-2.94c1.61-1.73,2.82-4.08,3.65-7.04
		c0.82-2.97,1.38-7.06,1.67-12.3h13.16v35.4h-79.96v-12.05h4.26c2.97,0,4.87-0.39,5.72-1.17s1.27-2.82,1.27-6.12V351.6
		c0-3.3-0.41-5.32-1.24-6.09c-0.83-0.76-2.74-1.14-5.75-1.14h-4.26v-11.99h51.11V332.39z"/>
	<path id="XMLID_192_" class="st1" d="M881.36,386.02h12.23c2.02,6.55,5.36,11.67,10.04,15.35c4.68,3.69,10.18,5.53,16.53,5.53
		c3.83,0,6.9-0.81,9.21-2.44s3.46-3.76,3.46-6.39c0-4.08-5-7.5-15.01-10.26c-3.25-0.86-5.81-1.59-7.66-2.16
		c-6.01-1.81-10.65-3.36-13.9-4.63c-3.26-1.28-5.6-2.47-7.05-3.58c-3.42-2.55-5.94-5.38-7.57-8.5c-1.63-3.11-2.44-6.64-2.44-10.6
		c0-8.53,3.16-15.41,9.48-20.64s14.67-7.85,25.05-7.85c5.27,0,10.2,0.52,14.77,1.55s9,2.62,13.28,4.76l2.29-4.26h12.17v29.47h-14.27
		c-1.4-6.01-4.04-10.49-7.91-13.44c-3.87-2.94-9.04-4.42-15.51-4.42c-3.79,0-6.91,0.86-9.36,2.59s-3.68,3.85-3.68,6.36
		c0,3.79,4.7,6.65,14.09,8.59c2.31,0.49,4.1,0.89,5.38,1.17c13.1,3.01,22.28,6.74,27.56,11.21c5.27,4.47,7.91,10.56,7.91,18.26
		c0,8.57-3.24,15.4-9.73,20.48c-6.49,5.09-15.23,7.63-26.23,7.63c-5.03,0-9.87-0.57-14.52-1.7c-4.66-1.13-9.27-2.85-13.84-5.16
		l-3.15,4.7h-11.62V386.02z"/>
	<path id="XMLID_190_" d="M320.02,427.51v28.85h-12.28c-0.79-3.76-1.62-6.69-2.51-8.79c-0.88-2.1-1.96-3.79-3.24-5.07
		c-1.47-1.46-3.25-2.51-5.35-3.13s-5.5-0.93-10.2-0.93h-2.31h-9.92v21.24h2.99c3.49,0,5.95-0.85,7.35-2.54
		c1.41-1.69,2.11-4.7,2.11-9.02v-0.68h9.69v35.33h-9.69c-0.15-5.41-0.86-8.92-2.11-10.54c-1.26-1.62-3.67-2.42-7.24-2.42h-3.1v24.12
		h13.69c5.3,0,8.95-0.32,10.96-0.96c2.01-0.64,3.56-1.73,4.65-3.27c1.2-1.84,2.15-4.09,2.85-6.73c0.7-2.65,1.16-5.98,1.38-10h12.74
		v31.95h-81.71v-10.99h3.89c2.56,0,4.24-0.3,5.04-0.9c0.81-0.6,1.21-2.33,1.21-5.18v-0.56v-42.26c0-3-0.38-4.85-1.13-5.55
		c-0.75-0.69-2.5-1.04-5.24-1.04h-3.78v-10.93L320.02,427.51L320.02,427.51z"/>
	<path id="XMLID_188_" d="M373.15,466.05c0.11-0.34,0.2-0.66,0.25-0.96c0.06-0.3,0.08-0.6,0.08-0.9c0-1.16-0.45-2.02-1.35-2.56
		s-2.44-0.89-4.62-1.04v-10.14h26.65v10.2h-0.45c-2.29,0-4.08,0.46-5.35,1.38c-1.28,0.92-2.31,2.49-3.1,4.7l-13.02,38.21h-25.19
		l-12.34-38.88c-0.68-2.33-1.36-3.81-2.06-4.45s-1.77-0.96-3.24-0.96h-2.08v-10.2h35.56v10.2h-1.64c-1.69,0-2.88,0.22-3.58,0.68
		c-0.7,0.45-1.04,1.26-1.04,2.42c0,0.3,0.05,0.65,0.14,1.04c0.09,0.39,0.22,0.82,0.37,1.27l7.95,24.45L373.15,466.05z"/>
	<path id="XMLID_32_" d="M455.59,486c-1.32,7.06-4.36,12.33-9.13,15.81c-4.77,3.48-11.35,5.21-19.72,5.21
		c-9.58,0-17.15-2.63-22.71-7.89s-8.34-12.4-8.34-21.41c0-8.94,2.79-16.07,8.37-21.38c5.58-5.32,13.06-7.97,22.45-7.97
		c9.28,0,16.41,2.64,21.38,7.92c4.98,5.28,7.47,12.84,7.47,22.68v1.97h-36.23v1.13c0,4.58,0.96,8.1,2.87,10.54
		c1.92,2.44,4.64,3.66,8.17,3.66c3,0,5.47-0.88,7.38-2.65c1.92-1.77,3.19-4.3,3.83-7.61h14.21V486z M419.14,470.79h16.74v-0.85
		c0-3.61-0.73-6.39-2.2-8.34c-1.46-1.95-3.55-2.93-6.25-2.93c-2.63,0-4.67,1.05-6.11,3.16
		C419.86,463.93,419.14,466.92,419.14,470.79z"/>
	<path id="XMLID_30_" d="M490.42,455.8c1.95-2.44,4.11-4.26,6.48-5.47c2.37-1.2,4.9-1.8,7.61-1.8c4.13,0,7.44,1.21,9.92,3.63
		s3.72,5.66,3.72,9.72c0,3.49-0.99,6.29-2.96,8.4s-4.57,3.16-7.81,3.16c-2.55,0-4.69-0.81-6.39-2.42c-1.71-1.62-2.56-3.63-2.56-6.03
		c0-1.65,0.41-3.1,1.24-4.34s2.08-2.29,3.78-3.16c-0.45-0.11-0.88-0.2-1.29-0.25c-0.41-0.06-0.81-0.08-1.18-0.08
		c-3.08,0-5.51,1.44-7.3,4.31c-1.78,2.87-2.68,6.83-2.68,11.86v16.06c0,2.22,0.36,3.67,1.07,4.37c0.71,0.7,2.18,1.04,4.4,1.04h3.66
		v10.14h-39.22V494.8h1.97c2.22,0,3.67-0.35,4.37-1.04c0.7-0.69,1.04-2.15,1.04-4.37v-23.33c0-2.25-0.35-3.72-1.04-4.4
		c-0.7-0.68-2.15-1.01-4.37-1.01h-1.97v-10.2h29.53v5.35H490.42z"/>
	<path id="XMLID_24_" d="M568.52,465.72c0.07-0.22,0.19-0.54,0.34-0.96c0.26-0.64,0.39-1.05,0.39-1.24c0-1.01-0.48-1.73-1.44-2.14
		s-2.83-0.68-5.61-0.79v-10.14h27.78v10.2c-2.37,0-4.18,0.39-5.44,1.15c-1.26,0.77-2.41,2.41-3.47,4.93l-17.41,42.83
		c-2.74,6.8-6.22,11.86-10.42,15.19c-4.21,3.33-9.19,4.99-14.93,4.99c-5.63,0-10.12-1.38-13.47-4.14
		c-3.34-2.76-5.02-6.45-5.02-11.07c0-3.23,1.04-5.87,3.13-7.92c2.08-2.05,4.78-3.07,8.09-3.07c2.89,0,5.25,0.78,7.07,2.34
		s2.73,3.56,2.73,6c0,2.18-0.61,3.96-1.83,5.35c-1.22,1.39-3.03,2.33-5.44,2.82c0.56,0.68,1.19,1.17,1.89,1.49s1.47,0.48,2.34,0.48
		c2.25,0,4.44-0.97,6.56-2.9c2.12-1.93,4.03-4.7,5.72-8.31l-18.14-41.42c-0.07-0.15-0.19-0.39-0.34-0.73c-2.37-5.34-4.87-8-7.49-8
		h-2.08v-10.2h35.56v10.2c-2.25,0.04-3.64,0.21-4.17,0.51c-0.53,0.3-0.79,0.85-0.79,1.63c0,0.56,0.17,1.28,0.51,2.14
		c0.11,0.26,0.21,0.49,0.28,0.68l7.83,19.16L568.52,465.72z"/>
	<path id="XMLID_22_" d="M631.06,504.94h-23.5l-9.24-36.01c-0.98-3.64-1.83-5.94-2.56-6.88s-1.85-1.41-3.35-1.41h-2.65v-10.2h32.46
		v10.2h-1.07c-1.28,0-2.19,0.23-2.73,0.7c-0.55,0.47-0.82,1.27-0.82,2.39c0,0.38,0.03,0.76,0.08,1.16c0.06,0.39,0.14,0.78,0.25,1.16
		l6.26,25.02l7.38-25.08c0.11-0.37,0.2-0.73,0.26-1.07s0.08-0.62,0.08-0.85c0-1.01-0.34-1.78-1.01-2.31
		c-0.68-0.52-1.88-0.9-3.61-1.13v-10.2h32.29v10.2h-1.01c-1.2,0-2.06,0.23-2.56,0.7c-0.51,0.47-0.76,1.27-0.76,2.39
		c0,0.38,0.03,0.76,0.09,1.16c0.06,0.39,0.14,0.78,0.25,1.16l6.09,24.45l7.04-24.45c0.07-0.26,0.13-0.54,0.17-0.85
		c0.04-0.3,0.06-0.68,0.06-1.13c0-1.01-0.34-1.78-1.01-2.31c-0.68-0.52-1.84-0.9-3.49-1.13v-10.2h23.67v10.2
		c-2.29,0-4.05,0.45-5.27,1.35c-1.22,0.9-2.19,2.48-2.9,4.73l-11.78,38.21h-22.65l-6.65-26.43L631.06,504.94z"/>
	<path id="XMLID_20_" d="M758.36,489.38c0,2.22,0.36,3.67,1.07,4.37c0.71,0.7,2.18,1.04,4.4,1.04h1.35v10.14h-35.56v-10.14h1.3
		c1.92,0,3.18-0.34,3.8-1.01c0.62-0.68,0.93-2.14,0.93-4.4v-19.67c0-3.16-0.61-5.5-1.83-7.04c-1.22-1.54-3.07-2.31-5.55-2.31
		c-2.67,0-4.78,1-6.34,3.01s-2.34,4.71-2.34,8.09v17.92c0,2.18,0.34,3.63,1.01,4.34c0.68,0.71,1.99,1.07,3.94,1.07h1.18v10.14H689.6
		v-10.14h1.97c2.18,0,3.63-0.35,4.34-1.04s1.07-2.15,1.07-4.37v-46.32c0-2.22-0.36-3.67-1.07-4.37c-0.71-0.69-2.16-1.04-4.34-1.04
		h-1.97v-10.14h29.98v31.16c2.55-3.38,5.42-5.84,8.59-7.38c3.17-1.54,6.88-2.31,11.13-2.31c6.95,0,11.86,1.5,14.73,4.51
		s4.31,8.23,4.31,15.67v20.22H758.36z"/>
	<path id="XMLID_17_" d="M829.36,486c-1.32,7.06-4.36,12.33-9.13,15.81s-11.35,5.21-19.72,5.21c-9.58,0-17.15-2.63-22.71-7.89
		s-8.34-12.4-8.34-21.41c0-8.94,2.79-16.07,8.37-21.38c5.58-5.32,13.06-7.97,22.45-7.97c9.28,0,16.41,2.64,21.38,7.92
		c4.98,5.28,7.47,12.84,7.47,22.68v1.97H792.9v1.13c0,4.58,0.96,8.1,2.87,10.54c1.92,2.44,4.64,3.66,8.17,3.66
		c3,0,5.47-0.88,7.38-2.65c1.92-1.77,3.19-4.3,3.83-7.61h14.21V486z M792.9,470.79h16.74v-0.85c0-3.61-0.73-6.39-2.2-8.34
		c-1.46-1.95-3.55-2.93-6.25-2.93c-2.63,0-4.67,1.05-6.11,3.16C793.62,463.93,792.9,466.92,792.9,470.79z"/>
	<path id="XMLID_15_" d="M864.18,455.8c1.95-2.44,4.11-4.26,6.48-5.47c2.37-1.2,4.9-1.8,7.61-1.8c4.13,0,7.44,1.21,9.92,3.63
		s3.72,5.66,3.72,9.72c0,3.49-0.99,6.29-2.96,8.4s-4.57,3.16-7.81,3.16c-2.55,0-4.69-0.81-6.39-2.42c-1.71-1.62-2.56-3.63-2.56-6.03
		c0-1.65,0.41-3.1,1.24-4.34s2.08-2.29,3.78-3.16c-0.45-0.11-0.88-0.2-1.29-0.25c-0.41-0.06-0.81-0.08-1.18-0.08
		c-3.08,0-5.51,1.44-7.3,4.31c-1.78,2.87-2.68,6.83-2.68,11.86v16.06c0,2.22,0.36,3.67,1.07,4.37c0.71,0.7,2.18,1.04,4.4,1.04h3.66
		v10.14h-39.22V494.8h1.97c2.22,0,3.67-0.35,4.37-1.04s1.04-2.15,1.04-4.37v-23.33c0-2.25-0.35-3.72-1.04-4.4
		c-0.7-0.68-2.15-1.01-4.37-1.01h-1.97v-10.2h29.53v5.35H864.18z"/>
	<path id="XMLID_12_" d="M956.37,486c-1.32,7.06-4.36,12.33-9.13,15.81s-11.35,5.21-19.72,5.21c-9.58,0-17.15-2.63-22.71-7.89
		s-8.34-12.4-8.34-21.41c0-8.94,2.79-16.07,8.37-21.38c5.58-5.32,13.06-7.97,22.45-7.97c9.28,0,16.41,2.64,21.38,7.92
		c4.98,5.28,7.47,12.84,7.47,22.68v1.97h-36.23v1.13c0,4.58,0.96,8.1,2.87,10.54c1.92,2.44,4.64,3.66,8.17,3.66
		c3,0,5.47-0.88,7.38-2.65c1.92-1.77,3.19-4.3,3.83-7.61h14.21V486z M919.91,470.79h16.74v-0.85c0-3.61-0.73-6.39-2.2-8.34
		c-1.46-1.95-3.55-2.93-6.25-2.93c-2.63,0-4.67,1.05-6.11,3.16C920.63,463.93,919.91,466.92,919.91,470.79z"/>
</g>
<g id="XMLID_210_">
	<path id="XMLID_221_" class="st0" d="M589.47,522.38c1.65,0.84,3.03,2.14,4.16,3.87l-3.11,2.8c-0.72-1.53-1.61-2.65-2.68-3.34
		s-2.51-1.04-4.29-1.04c-1.76,0-3.13,0.35-4.1,1.05s-1.46,1.6-1.46,2.7c0,1.02,0.47,1.83,1.42,2.44c0.95,0.6,2.63,1.12,5.06,1.55
		c2.28,0.41,4.09,0.93,5.43,1.55c1.34,0.63,2.32,1.41,2.93,2.34c0.61,0.93,0.92,2.09,0.92,3.47c0,1.48-0.42,2.79-1.27,3.91
		c-0.84,1.13-2.03,1.99-3.55,2.59c-1.52,0.6-3.28,0.9-5.27,0.9c-5.14,0-8.77-1.71-10.89-5.14l2.88-2.88
		c0.82,1.54,1.87,2.66,3.16,3.37c1.29,0.72,2.9,1.07,4.81,1.07c1.81,0,3.24-0.31,4.28-0.94c1.04-0.63,1.55-1.51,1.55-2.67
		c0-0.92-0.47-1.66-1.4-2.22c-0.93-0.56-2.56-1.06-4.89-1.5c-2.33-0.43-4.18-0.97-5.56-1.61s-2.38-1.43-3.01-2.38
		s-0.94-2.1-0.94-3.45c0-1.43,0.4-2.74,1.19-3.91c0.79-1.18,1.94-2.11,3.43-2.8s3.24-1.04,5.23-1.04
		C585.83,521.12,587.82,521.54,589.47,522.38z"/>
	<path id="XMLID_224_" class="st0" d="M616.33,543.97l-0.27,2.76c-0.69,0.31-1.48,0.46-2.38,0.46c-1.1,0-1.98-0.22-2.63-0.65
		c-0.65-0.43-1.08-1.16-1.28-2.19c-0.59,0.89-1.46,1.59-2.61,2.09s-2.44,0.75-3.87,0.75c-1.87,0-3.38-0.43-4.53-1.3
		s-1.72-2.11-1.72-3.72c0-1.51,0.63-2.78,1.88-3.82s3.12-1.77,5.6-2.2l4.87-0.84v-1.04c0-1.17-0.35-2.1-1.04-2.78
		c-0.69-0.68-1.65-1.02-2.88-1.02c-2.53,0-4.18,1.15-4.95,3.45l-3.18-1.69c0.46-1.54,1.4-2.75,2.82-3.64
		c1.42-0.9,3.16-1.34,5.23-1.34c2.48,0,4.45,0.58,5.91,1.73c1.46,1.15,2.19,2.84,2.19,5.06v8.67c0,0.49,0.11,0.84,0.33,1.07
		c0.22,0.23,0.58,0.34,1.09,0.34C615.47,544.13,615.94,544.08,616.33,543.97z M607.81,543.09c1.05-0.66,1.57-1.55,1.57-2.64v-2.3
		l-4.18,0.84c-1.33,0.26-2.31,0.61-2.95,1.07s-0.96,1.07-0.96,1.84c0,0.72,0.25,1.26,0.75,1.63s1.21,0.56,2.13,0.56
		C605.55,544.09,606.77,543.76,607.81,543.09z"/>
	<path id="XMLID_227_" class="st0" d="M625.22,527.64h6.21v3.22h-6.1v15.95h-4.1v-15.95h-3.6v-3.22h3.6v-2.76
		c0-1.94,0.59-3.45,1.76-4.52s2.82-1.61,4.95-1.61c0.77,0,1.47,0.08,2.11,0.25s1.14,0.39,1.49,0.67l-0.77,2.99
		c-0.59-0.38-1.32-0.57-2.19-0.57c-2.25,0-3.37,1.04-3.37,3.11L625.22,527.64L625.22,527.64z"/>
	<path id="XMLID_230_" class="st0" d="M651.41,538.76h-14.03c0.23,1.69,0.83,2.97,1.8,3.85s2.22,1.32,3.76,1.32
		c1.25,0,2.29-0.22,3.13-0.67c0.83-0.45,1.4-1.09,1.71-1.94l3.41,1.42c-1.43,2.97-4.18,4.45-8.24,4.45c-3.02,0-5.38-0.88-7.07-2.65
		c-1.7-1.76-2.55-4.2-2.55-7.32c0-3.14,0.82-5.59,2.45-7.34c1.64-1.75,3.94-2.63,6.9-2.63c2.81,0,5,0.86,6.56,2.57
		s2.34,3.99,2.34,6.83C651.57,537.39,651.52,538.09,651.41,538.76z M639.09,531.82c-0.91,0.87-1.48,2.13-1.71,3.8h10.35
		c-0.2-1.61-0.75-2.86-1.63-3.76s-2.03-1.34-3.43-1.34C641.19,530.51,639.99,530.95,639.09,531.82z"/>
	<path id="XMLID_234_" class="st0" d="M668.44,527.64l-0.65,3.76c-0.59-0.33-1.39-0.5-2.42-0.5c-0.82,0-1.59,0.22-2.32,0.65
		c-0.73,0.43-1.33,1.09-1.8,1.96s-0.71,1.92-0.71,3.14v10.16h-4.1v-19.17h3.49l0.34,3.45c1.07-2.56,3.09-3.84,6.06-3.84
		C667.23,527.25,667.93,527.38,668.44,527.64z"/>
	<path id="XMLID_236_" class="st0" d="M704.75,521.5v25.31h-4.14v-11.04h-12.5v11.04h-4.1V521.5h4.1v10.74h12.5V521.5H704.75z"/>
	<path id="XMLID_238_" class="st0" d="M726.57,529.9c1.69,1.76,2.53,4.2,2.53,7.32s-0.84,5.56-2.53,7.32s-4.03,2.65-7.02,2.65
		s-5.33-0.88-7.02-2.65c-1.69-1.76-2.53-4.2-2.53-7.32s0.84-5.56,2.53-7.32s4.03-2.65,7.02-2.65S724.89,528.14,726.57,529.9z
		 M715.55,532.22c-0.93,1.16-1.4,2.83-1.4,5s0.47,3.84,1.4,5c0.93,1.16,2.27,1.75,4.01,1.75s3.08-0.59,4.03-1.76
		s1.42-2.84,1.42-4.99c0-2.15-0.47-3.81-1.42-4.98c-0.95-1.18-2.29-1.76-4.03-1.76C717.82,530.48,716.48,531.06,715.55,532.22z"/>
	<path id="XMLID_241_" class="st0" d="M750.62,529.88c1.51,1.75,2.26,4.19,2.26,7.31s-0.75,5.57-2.26,7.34
		c-1.51,1.78-3.58,2.66-6.21,2.66c-1.38,0-2.61-0.31-3.7-0.92s-1.92-1.46-2.51-2.53v11.12h-4.1v-27.23h3.6l0.19,3.57
		c0.56-1.2,1.41-2.16,2.55-2.88c1.14-0.72,2.46-1.07,3.97-1.07C747.04,527.25,749.11,528.13,750.62,529.88z M747.38,542.11
		c0.93-1.16,1.4-2.79,1.4-4.89c0-2.1-0.47-3.73-1.4-4.91c-0.93-1.17-2.23-1.76-3.89-1.76c-1.56,0-2.8,0.52-3.74,1.57
		c-0.93,1.05-1.45,2.51-1.55,4.37v1.46c0.1,1.84,0.62,3.28,1.55,4.33s2.18,1.57,3.74,1.57
		C745.15,543.86,746.44,543.28,747.38,542.11z"/>
	<path id="XMLID_244_" class="st0" d="M759.72,546.2c-1.49-0.66-2.63-1.67-3.39-3.03l2.76-2.38c0.48,1.1,1.24,1.9,2.26,2.42
		c1.02,0.51,2.25,0.77,3.68,0.77c1.3,0,2.31-0.21,3.03-0.63c0.72-0.42,1.07-0.98,1.07-1.67c0-0.61-0.33-1.11-1-1.48
		c-0.66-0.37-1.81-0.72-3.45-1.05c-2.84-0.54-4.83-1.25-5.98-2.15c-1.15-0.89-1.73-2.16-1.73-3.8c0-1.05,0.32-2.03,0.96-2.93
		c0.64-0.91,1.56-1.63,2.78-2.19c1.21-0.55,2.65-0.82,4.31-0.82c2.12,0,3.82,0.35,5.1,1.05c1.28,0.7,2.26,1.8,2.95,3.28l-2.91,2.15
		c-0.46-1.12-1.11-1.95-1.94-2.47c-0.83-0.52-1.89-0.79-3.16-0.79c-1.15,0-2.1,0.24-2.86,0.71c-0.75,0.47-1.13,1.02-1.13,1.63
		c0,0.69,0.34,1.24,1.02,1.65c0.68,0.41,1.91,0.78,3.7,1.11c2.71,0.49,4.63,1.18,5.75,2.07c1.13,0.9,1.69,2.15,1.69,3.76
		c0,1.71-0.74,3.11-2.22,4.18s-3.53,1.61-6.14,1.61C762.94,547.19,761.22,546.86,759.72,546.2z"/>
	<path id="XMLID_246_" class="st0" d="M794.98,527.64h6.21v3.22h-6.1v15.95h-4.1v-15.95h-3.6v-3.22h3.6v-2.76
		c0-1.94,0.59-3.45,1.76-4.52s2.82-1.61,4.95-1.61c0.77,0,1.47,0.08,2.11,0.25s1.14,0.39,1.49,0.67l-0.77,2.99
		c-0.59-0.38-1.32-0.57-2.19-0.57c-2.25,0-3.37,1.04-3.37,3.11L794.98,527.64L794.98,527.64z"/>
	<path id="XMLID_248_" class="st0" d="M819.64,529.9c1.69,1.76,2.53,4.2,2.53,7.32s-0.84,5.56-2.53,7.32s-4.03,2.65-7.02,2.65
		s-5.33-0.88-7.02-2.65c-1.69-1.76-2.53-4.2-2.53-7.32s0.84-5.56,2.53-7.32s4.03-2.65,7.02-2.65S817.95,528.14,819.64,529.9z
		 M808.61,532.22c-0.93,1.16-1.4,2.83-1.4,5s0.47,3.84,1.4,5c0.93,1.16,2.27,1.75,4.01,1.75s3.08-0.59,4.03-1.76
		s1.42-2.84,1.42-4.99c0-2.15-0.47-3.81-1.42-4.98c-0.95-1.18-2.29-1.76-4.03-1.76C810.88,530.48,809.55,531.06,808.61,532.22z"/>
	<path id="XMLID_251_" class="st0" d="M839.16,527.64l-0.65,3.76c-0.59-0.33-1.39-0.5-2.42-0.5c-0.82,0-1.59,0.22-2.32,0.65
		c-0.73,0.43-1.33,1.09-1.8,1.96s-0.71,1.92-0.71,3.14v10.16h-4.1v-19.17h3.49l0.34,3.45c1.07-2.56,3.09-3.84,6.06-3.84
		C837.94,527.25,838.64,527.38,839.16,527.64z"/>
	<path id="XMLID_253_" class="st0" d="M873.59,543.28v3.53h-18.87V521.5h18.33v3.53h-14.23v7.29h11.12v3.45h-11.12v7.52h14.77
		V543.28z"/>
	<path id="XMLID_255_" class="st0" d="M904.92,528.04c1.07,0.52,1.93,1.32,2.57,2.4c0.64,1.07,0.96,2.39,0.96,3.95v12.42h-4.1
		v-11.77c0-1.51-0.36-2.62-1.07-3.34c-0.72-0.72-1.67-1.07-2.87-1.07c-1.41,0-2.59,0.51-3.55,1.53c-0.96,1.02-1.44,2.43-1.44,4.22
		v10.43h-4.1v-11.77c0-1.51-0.36-2.62-1.07-3.34c-0.72-0.72-1.67-1.07-2.88-1.07c-0.82,0-1.61,0.21-2.38,0.63s-1.39,1.08-1.88,1.97
		c-0.49,0.9-0.73,2.02-0.73,3.37v10.2h-4.1v-19.17h3.64l0.19,3.18c0.64-1.18,1.51-2.06,2.61-2.67c1.1-0.6,2.3-0.9,3.6-0.9
		c1.43,0,2.73,0.33,3.89,0.98c1.16,0.65,2.03,1.6,2.59,2.86c0.59-1.25,1.49-2.21,2.7-2.86c1.21-0.65,2.51-0.98,3.89-0.98
		C902.67,527.25,903.84,527.52,904.92,528.04z"/>
	<path id="XMLID_257_" class="st0" d="M932.37,543.97l-0.27,2.76c-0.69,0.31-1.48,0.46-2.38,0.46c-1.1,0-1.98-0.22-2.63-0.65
		c-0.65-0.43-1.08-1.16-1.28-2.19c-0.59,0.89-1.46,1.59-2.61,2.09c-1.15,0.5-2.44,0.75-3.87,0.75c-1.87,0-3.38-0.43-4.53-1.3
		s-1.72-2.11-1.72-3.72c0-1.51,0.63-2.78,1.88-3.82s3.12-1.77,5.6-2.2l4.87-0.84v-1.04c0-1.17-0.35-2.1-1.04-2.78
		c-0.69-0.68-1.65-1.02-2.88-1.02c-2.53,0-4.18,1.15-4.95,3.45l-3.18-1.69c0.46-1.54,1.4-2.75,2.82-3.64
		c1.42-0.9,3.16-1.34,5.23-1.34c2.48,0,4.45,0.58,5.91,1.73c1.46,1.15,2.19,2.84,2.19,5.06v8.67c0,0.49,0.11,0.84,0.33,1.07
		c0.22,0.23,0.58,0.34,1.09,0.34C931.52,544.13,931.99,544.08,932.37,543.97z M923.86,543.09c1.05-0.66,1.57-1.55,1.57-2.64v-2.3
		l-4.18,0.84c-1.33,0.26-2.31,0.61-2.95,1.07s-0.96,1.07-0.96,1.84c0,0.72,0.25,1.26,0.75,1.63s1.21,0.56,2.13,0.56
		C921.6,544.09,922.81,543.76,923.86,543.09z"/>
	<path id="XMLID_260_" class="st0" d="M936.02,523.75c-0.49-0.45-0.73-1.08-0.73-1.9s0.24-1.45,0.73-1.88s1.16-0.65,2.03-0.65
		c0.87,0,1.54,0.22,2.01,0.65c0.47,0.43,0.71,1.06,0.71,1.88s-0.24,1.45-0.71,1.9c-0.47,0.45-1.15,0.67-2.01,0.67
		C937.18,524.42,936.5,524.19,936.02,523.75z M940.08,546.81h-4.1v-19.17h4.1V546.81z"/>
	<path id="XMLID_263_" class="st0" d="M950.2,541.21c0,0.95,0.14,1.6,0.42,1.97c0.28,0.37,0.8,0.56,1.57,0.56
		c0.48,0,0.9-0.03,1.25-0.09c0.34-0.06,0.77-0.2,1.28-0.4l-0.46,3.3c-0.87,0.43-1.93,0.65-3.18,0.65c-1.71,0-2.97-0.43-3.78-1.3
		c-0.81-0.87-1.21-2.24-1.21-4.1v-22.78h4.1v22.19H950.2z"/>
	<path id="XMLID_265_" class="st0" d="M962.3,542.38c0.52,0.5,0.79,1.17,0.79,2.01s-0.26,1.52-0.79,2.03
		c-0.52,0.51-1.22,0.77-2.09,0.77c-0.87,0-1.57-0.26-2.11-0.77s-0.81-1.19-0.81-2.03s0.26-1.51,0.79-2.01
		c0.52-0.5,1.23-0.75,2.13-0.75C961.08,541.64,961.78,541.88,962.3,542.38z"/>
</g>
</svg>
