<?xml version="1.0" encoding="utf-8"?>
<!-- Generator: Adobe Illustrator 25.4.1, SVG Export Plug-In . SVG Version: 6.00 Build 0)  -->
<svg version="1.1" id="Layer_1" xmlns="http://www.w3.org/2000/svg" xmlns:xlink="http://www.w3.org/1999/xlink" x="0px" y="0px"
	 viewBox="0 0 612 792" style="enable-background:new 0 0 612 792;" xml:space="preserve">
<style type="text/css">
	.st0{fill:#FF06D0;}
	.st1{fill:#FFFFFF;}
	.st2{stroke:#000000;stroke-width:0.6856;stroke-miterlimit:10;}
</style>
<g>
	<rect x="62.3" y="118.5" class="st0" width="479.8" height="62.6"/>
	<g>
		<path class="st1" d="M90.3,168.3c-0.1,2.6-0.6,4.9-1.6,6.9c-0.8,1.7-2,3.3-3.7,4.6c-1.7,1.4-4.1,2.1-7.2,2.1
			c-3.1,0-5.6-0.8-7.3-2.1c-1.7-1.3-2.9-2.9-3.7-4.6c-1-2-1.5-4.3-1.6-6.9v-37.1c0.1-2.5,0.6-4.8,1.6-6.8c0.8-1.7,1.9-3.4,3.7-4.7
			c1.7-1.3,4.2-2.1,7.3-2.1c3.1,0,5.5,0.9,7.2,2.1c1.7,1.3,3,3,3.7,4.7c1,2,1.5,4.3,1.6,6.8V168.3z M80.9,131.1
			c0-1.7-0.3-2.9-1.2-3.9c-0.4-0.4-1.1-0.7-1.9-0.7c-1.7,0-2.4,1.2-2.8,2.3c-0.3,0.7-0.3,1.5-0.3,2.3v37.1c0,1.8,0.4,3,1.3,3.9
			c0.4,0.4,1,0.7,1.8,0.7c1.7,0,2.4-1,2.8-2.3c0.3-0.6,0.3-1.4,0.3-2.3V131.1z"/>
		<path class="st1" d="M106.6,148.4l-0.8-2.9h-0.5v35.8h-8.6v-63.1h8.4l9.1,32.9l0.8,2.9h0.5v-35.8h8.6v63.1h-8.4L106.6,148.4z"/>
		<path class="st1" d="M131,118.2h9.4v54.5h12.4v8.6H131V118.2z"/>
		<path class="st1" d="M156.7,118.2h9.4v63.1h-9.4V118.2z"/>
		<path class="st1" d="M183,148.4l-0.8-2.9h-0.5v35.8h-8.6v-63.1h8.4l9.1,32.9l0.8,2.9h0.5v-35.8h8.6v63.1h-8.4L183,148.4z"/>
		<path class="st1" d="M207.4,118.2h21.5v9.5h-12.1v16.6h8.7v10.1h-8.7v17.3h12.1v9.5h-21.5V118.2z"/>
		<path class="st1" d="M272,159.6v8.7c-0.1,2.6-0.6,4.9-1.6,6.9c-0.8,1.7-2,3.3-3.7,4.6c-1.7,1.4-4.1,2.1-7.2,2.1
			c-3.1,0-5.6-0.8-7.3-2.1c-1.7-1.3-2.9-2.9-3.7-4.6c-1-2-1.5-4.3-1.6-6.9v-37.1c0.1-2.5,0.6-4.8,1.6-6.8c0.8-1.7,1.9-3.4,3.7-4.7
			c1.7-1.3,4.2-2.1,7.3-2.1c3.1,0,5.5,0.9,7.2,2.1c1.7,1.3,3,3,3.7,4.7c1,2,1.5,4.3,1.6,6.8v8.7h-8.8v-8.7c0-1.7-0.4-2.9-1.4-3.9
			c-0.4-0.4-1.2-0.7-2.2-0.7c-1.7,0-2.4,1.2-2.9,2.3c-0.3,0.7-0.3,1.5-0.4,2.3v37.1c0.1,1.8,0.6,3,1.5,3.9c0.4,0.4,1,0.7,1.8,0.7
			c2,0,2.8-1,3.2-2.3c0.3-0.6,0.3-1.4,0.3-2.3v-8.7H272z"/>
		<path class="st1" d="M277.6,118.2h21.5v9.5H287v16.6h8.7v10.1H287v17.3h12.1v9.5h-21.5V118.2z"/>
		<path class="st1" d="M314.2,148.4l-0.8-2.9h-0.5v35.8h-8.6v-63.1h8.4l9.1,32.9l0.8,2.9h0.5v-35.8h8.6v63.1h-8.4L314.2,148.4z"/>
		<path class="st1" d="M354.3,135.1c0-2.1-0.1-4.4-0.7-6.2c-0.6-1.7-1.6-2.9-3-2.9c-2.4,0.1-3.2,2.6-3.2,6.3c0,2.1,1,4.4,2.3,6.8
			c1.4,2.4,3.2,4.9,5,7.5c2.2,3.2,4.3,6.4,6,9.6c1.7,3.2,2.8,6.4,2.8,9.9c0,4.2-0.7,8.1-2.7,11.1c-2,2.9-5.2,4.8-10.4,4.8
			c-6,0-9.4-2.2-11.3-5.7c-1.9-3.4-2.3-8-2.3-12.7l9.2-0.9c0,2.7,0.1,5.3,0.8,7.3c0.6,2.1,1.7,3.4,3.7,3.4c2.8,0,3.8-2.9,3.8-6.9
			c0-2.1-1-4.5-2.4-6.9c-0.8-1.2-1.6-2.5-2.4-3.8c-1.8-2.6-3.8-5.5-5.9-8.7c-2.1-3.2-3.7-6.4-4.6-9.8c-0.5-1.6-0.8-3.3-0.8-5.1
			c0-3.4,0.8-7.1,2.8-10c2-2.7,5-4.7,9.5-4.8c5.7-0.1,9,2.2,10.8,5.6c1.8,3.4,2.3,7.6,2.3,11.2L354.3,135.1z"/>
		<path class="st1" d="M393,168.3c-0.1,2.6-0.6,4.9-1.6,6.9c-0.8,1.7-2,3.3-3.7,4.6c-1.7,1.4-4.1,2.1-7.2,2.1s-5.6-0.8-7.3-2.1
			c-1.7-1.3-2.9-2.9-3.7-4.6c-1-2-1.5-4.3-1.6-6.9v-37.1c0.1-2.5,0.6-4.8,1.6-6.8c0.8-1.7,1.9-3.4,3.7-4.7c1.7-1.3,4.2-2.1,7.3-2.1
			s5.5,0.9,7.2,2.1c1.7,1.3,3,3,3.7,4.7c1,2,1.5,4.3,1.6,6.8V168.3z M383.6,131.1c0-1.7-0.3-2.9-1.2-3.9c-0.4-0.4-1.1-0.7-1.9-0.7
			c-1.7,0-2.4,1.2-2.8,2.3c-0.3,0.7-0.3,1.5-0.3,2.3v37.1c0,1.8,0.4,3,1.3,3.9c0.4,0.4,1,0.7,1.8,0.7c1.7,0,2.4-1,2.8-2.3
			c0.3-0.6,0.3-1.4,0.3-2.3V131.1z"/>
		<path class="st1" d="M416.1,181.2l-4.9-26.6h-2.5v26.6h-9.4v-63.1h9.4c11.2,0,16,6.3,16,18.2c0,6.3-1.7,11.9-5.2,14.3l6,30.5
			H416.1z M408.7,146c1.3,0,3-0.2,4.4-1.4c1.4-1.2,2.5-3.5,2.5-8s-1.1-6.9-2.5-8.1c-1.4-1.2-3.1-1.3-4.4-1.3V146z"/>
		<path class="st1" d="M446.3,135.1c0-2.1-0.1-4.4-0.7-6.2c-0.6-1.7-1.6-2.9-3-2.9c-2.4,0.1-3.2,2.6-3.2,6.3c0,2.1,1,4.4,2.3,6.8
			c1.4,2.4,3.2,4.9,5,7.5c2.2,3.2,4.3,6.4,6,9.6c1.7,3.2,2.8,6.4,2.8,9.9c0,4.2-0.7,8.1-2.7,11.1c-2,2.9-5.2,4.8-10.4,4.8
			c-6,0-9.4-2.2-11.3-5.7c-1.9-3.4-2.3-8-2.3-12.7l9.2-0.9c0,2.7,0.1,5.3,0.8,7.3c0.6,2.1,1.7,3.4,3.7,3.4c2.8,0,3.8-2.9,3.8-6.9
			c0-2.1-1-4.5-2.4-6.9c-0.8-1.2-1.6-2.5-2.4-3.8c-1.8-2.6-3.8-5.5-5.9-8.7c-2.1-3.2-3.7-6.4-4.6-9.8c-0.5-1.6-0.8-3.3-0.8-5.1
			c0-3.4,0.8-7.1,2.8-10c2-2.7,5-4.7,9.5-4.8c5.7-0.1,9,2.2,10.8,5.6c1.8,3.4,2.3,7.6,2.3,11.2L446.3,135.1z"/>
		<path class="st1" d="M477.3,153.8H470v27.5h-9.4v-63.1h9.4v26.1h7.3v-26.1h9.4v63.1h-9.4V153.8z"/>
		<path class="st1" d="M493.6,118.2h9.4v63.1h-9.4V118.2z"/>
		<path class="st1" d="M510,118.2h9.4c4.1,0,8.2,1,11.3,3.9c3.1,2.9,5.2,7.7,5.2,14.9s-2.1,11.9-5.2,14.8c-3.1,2.9-7.2,4.1-11.3,4.1
			v25.2H510V118.2z M519.4,146.6c2.9,0,4.7-0.5,5.7-2c1-1.4,1.3-3.7,1.3-7.2s-0.3-6-1.3-7.5c-1-1.5-2.9-2.2-5.7-2.2V146.6z"/>
	</g>
	<rect x="240.5" y="147.4" width="301.6" height="11.6"/>
</g>
<g>
	<path class="st2" d="M72.6,99.5v14.7h-4.1V99.5h-5.2V96h14.4v3.5H72.6z"/>
	<path class="st2" d="M97.3,102.1c0,2.9-1.2,4.8-3.5,5.7l4.6,6.5h-5l-4.1-5.8h-2.8v5.8h-4.1V96h6.9c2.8,0,4.9,0.5,6.1,1.4
		C96.7,98.4,97.3,99.9,97.3,102.1z M92.4,104.2c0.5-0.5,0.8-1.2,0.8-2.2c0-1-0.3-1.7-0.8-2c-0.5-0.4-1.4-0.5-2.7-0.5h-3.1v5.4h3
		C90.9,104.9,91.9,104.7,92.4,104.2z"/>
	<path class="st2" d="M116.2,114.3l-1.7-3.9h-7.7l-1.7,3.9h-4.3l7.9-18.3h3.9l7.9,18.3H116.2z M110.7,101.4l-2.3,5.3h4.6
		L110.7,101.4z"/>
	<path class="st2" d="M132.8,110.7c2,0,3.6-0.8,4.9-2.4l2.6,2.7c-2.1,2.3-4.5,3.5-7.3,3.5s-5.1-0.9-7-2.7c-1.8-1.8-2.7-4-2.7-6.7
		s0.9-5,2.8-6.8c1.9-1.8,4.1-2.7,6.8-2.7c3,0,5.5,1.1,7.5,3.4l-2.5,2.9c-1.3-1.6-2.9-2.4-4.8-2.4c-1.5,0-2.8,0.5-3.9,1.5
		c-1.1,1-1.6,2.4-1.6,4.1c0,1.7,0.5,3.1,1.5,4.1C130.1,110.2,131.3,110.7,132.8,110.7z"/>
	<path class="st2" d="M145.2,96h4.1v7.5l6.9-7.5h5l-7.3,8.1c0.6,0.9,1.8,2.5,3.5,4.9c1.7,2.4,3,4.2,3.8,5.3h-4.8l-5.4-7.2l-1.8,2
		v5.2h-4.1V96z"/>
	<path class="st2" d="M165.5,96h4.1v18.3h-4.1V96z"/>
	<path class="st2" d="M188.5,96h4.1v18.3h-4.1l-8.7-11.5v11.5h-4.1V96h3.8l9,11.8V96z"/>
	<path class="st2" d="M210.7,105h4.1v6.5c-1.8,2-4.3,3-7.5,3c-2.7,0-4.9-0.9-6.8-2.7c-1.8-1.8-2.7-4-2.7-6.7s0.9-5,2.8-6.8
		c1.9-1.8,4.1-2.7,6.7-2.7c2.6,0,4.9,0.9,6.8,2.6l-2.1,3.1c-0.8-0.7-1.6-1.2-2.3-1.5c-0.7-0.3-1.4-0.4-2.2-0.4
		c-1.6,0-2.9,0.5-3.9,1.6c-1.1,1.1-1.6,2.4-1.6,4.2c0,1.7,0.5,3.1,1.5,4.1s2.2,1.6,3.6,1.6s2.6-0.3,3.5-0.8V105z"/>
	<path class="st2" d="M240.6,105h4.1v6.5c-1.8,2-4.3,3-7.5,3c-2.7,0-4.9-0.9-6.8-2.7c-1.8-1.8-2.7-4-2.7-6.7s0.9-5,2.8-6.8
		c1.9-1.8,4.1-2.7,6.7-2.7c2.6,0,4.9,0.9,6.8,2.6l-2.1,3.1c-0.8-0.7-1.6-1.2-2.3-1.5c-0.7-0.3-1.4-0.4-2.2-0.4
		c-1.6,0-2.9,0.5-3.9,1.6c-1.1,1.1-1.6,2.4-1.6,4.2c0,1.7,0.5,3.1,1.5,4.1s2.2,1.6,3.6,1.6s2.6-0.3,3.5-0.8V105z"/>
	<path class="st2" d="M250,114.3V96h4.1v14.6h7.8v3.6H250z"/>
	<path class="st2" d="M281.4,111.8c-1.8,1.8-4.1,2.7-6.8,2.7c-2.7,0-5-0.9-6.8-2.7c-1.8-1.8-2.8-4-2.8-6.7c0-2.7,0.9-4.9,2.8-6.7
		c1.8-1.8,4.1-2.7,6.8-2.7c2.7,0,5,0.9,6.8,2.7c1.8,1.8,2.8,4,2.8,6.7C284.2,107.7,283.3,110,281.4,111.8z M280.1,105
		c0-1.6-0.5-3-1.6-4.2s-2.3-1.7-3.9-1.7c-1.5,0-2.8,0.6-3.9,1.7c-1,1.2-1.6,2.5-1.6,4.2c0,1.6,0.5,3,1.6,4.2c1,1.1,2.3,1.7,3.9,1.7
		c1.5,0,2.8-0.6,3.9-1.7C279.5,108.1,280.1,106.7,280.1,105z"/>
	<path class="st2" d="M297.4,114.3h-8V96h7.1c1.2,0,2.3,0.1,3.2,0.4c0.9,0.3,1.6,0.7,2,1.2c0.8,0.9,1.2,2,1.2,3.2
		c0,1.4-0.5,2.5-1.4,3.2c-0.3,0.2-0.5,0.4-0.7,0.5c-0.1,0.1-0.3,0.2-0.7,0.3c1.1,0.2,2,0.8,2.7,1.5c0.7,0.8,1,1.7,1,2.9
		c0,1.3-0.4,2.4-1.3,3.4C301.6,113.7,299.9,114.3,297.4,114.3z M293.4,103.4h1.9c1.1,0,2-0.1,2.5-0.4c0.5-0.2,0.8-0.8,0.8-1.6
		c0-0.8-0.3-1.3-0.8-1.6c-0.5-0.3-1.4-0.4-2.6-0.4h-2V103.4z M293.4,110.8h2.8c1.2,0,2-0.1,2.6-0.4s0.9-0.9,0.9-1.7
		c0-0.8-0.3-1.4-0.9-1.7s-1.6-0.4-3-0.4h-2.4V110.8z"/>
	<path class="st2" d="M321.9,114.3l-1.7-3.9h-7.7l-1.7,3.9h-4.3l7.9-18.3h3.9l7.9,18.3H321.9z M316.4,101.4l-2.3,5.3h4.6
		L316.4,101.4z"/>
	<path class="st2" d="M330,114.3V96h4.1v14.6h7.8v3.6H330z"/>
</g>
</svg>
