<?xml version="1.0" encoding="utf-8"?>
<!-- Generator: Adobe Illustrator 25.4.1, SVG Export Plug-In . SVG Version: 6.00 Build 0)  -->
<svg version="1.1" id="Layer_1" xmlns="http://www.w3.org/2000/svg" xmlns:xlink="http://www.w3.org/1999/xlink" x="0px" y="0px"
	 viewBox="0 0 612 792" style="enable-background:new 0 0 612 792;" xml:space="preserve">
<style type="text/css">
	.st0{fill:#D3EAEA;}
	.st1{fill:#518C91;}
	.st2{fill:none;stroke:#87C4C6;stroke-width:7.2617;stroke-miterlimit:10;}
	.st3{fill:none;stroke:#518C91;stroke-width:6.3102;stroke-miterlimit:10;}
	.st4{fill:none;stroke:#87C4C6;stroke-width:5.6051;stroke-miterlimit:10;}
	.st5{font-family:'Montserrat-Light';}
	.st6{font-size:21.5585px;}
	.st7{enable-background:new    ;}
	.st8{fill:none;stroke:#FFFFFF;stroke-width:5.6051;stroke-miterlimit:10;}
	.st9{fill:none;stroke:#000000;stroke-width:6.3102;stroke-miterlimit:10;}
	.st10{fill:none;stroke:#87C4C6;stroke-width:4.7822;stroke-miterlimit:10;}
	.st11{fill:none;stroke:#518C91;stroke-width:4.1556;stroke-miterlimit:10;}
	.st12{fill:none;stroke:#87C4C6;stroke-width:3.6912;stroke-miterlimit:10;}
	.st13{fill:#87C4C6;}
</style>
<g id="Layer_6">
	<rect x="101" y="43.7" class="st0" width="392" height="196"/>
	<g id="XMLID_2_">
		<g id="XMLID_35_">
			<path id="XMLID_36_" class="st1" d="M355.8,114.2c0-5.6-6.7-10.1-14.9-10.1c-8.2,0-14.9,4.5-14.9,10.1c0,4.5,4.4,8.3,10.5,9.6
				v23.3l5.5,9.1h1.6V151l5-5.3l-5.1-5v-0.1l2.9-3l-2.9-2.9v-10.6C350.5,123.3,355.8,119.2,355.8,114.2z M340.9,109.2
				c2,0,3.7,1.6,3.7,3.7c0,2-1.6,3.7-3.7,3.7c-2,0-3.7-1.6-3.7-3.7C337.2,110.8,338.8,109.2,340.9,109.2z"/>
		</g>
		<g id="XMLID_31_">
			<path id="XMLID_32_" class="st1" d="M265,121.2v-8.1c0-6.8-5.5-12.3-12.3-12.3s-12.3,5.5-12.3,12.3v8.1h-4.8v26.9h34.1v-26.9
				L265,121.2L265,121.2z M244.6,113.1c0-4.4,3.6-8.1,8.1-8.1c4.4,0,8.1,3.6,8.1,8.1v8.1h-16.1L244.6,113.1L244.6,113.1z"/>
		</g>
		<g id="XMLID_27_">
			<circle id="XMLID_30_" class="st2" cx="252.6" cy="127.2" r="44.3"/>
			<circle id="XMLID_29_" class="st3" cx="252.6" cy="127.2" r="50.1"/>
			<circle id="XMLID_28_" class="st3" cx="252.6" cy="127.2" r="38.4"/>
		</g>
		<g id="XMLID_23_">
			<circle id="XMLID_26_" class="st2" cx="341.4" cy="127.2" r="44.3"/>
			<circle id="XMLID_25_" class="st3" cx="341.4" cy="127.2" r="50.1"/>
			<circle id="XMLID_24_" class="st3" cx="341.4" cy="127.2" r="38.4"/>
		</g>
		<path id="XMLID_11_" class="st4" d="M296.9,127.2c0,24.4-19.8,44.3-44.3,44.3s-44.3-19.8-44.3-44.3S228.2,83,252.6,83"/>
		<path id="XMLID_3_" class="st3" d="M302.7,127.2c0,27.7-22.4,50.1-50.1,50.1s-50.1-22.4-50.1-50.1s22.4-50.1,50.1-50.1"/>
	</g>
</g>
<g id="Layer_5">
	<text transform="matrix(1 0 0 1 132.2963 211.9488)" class="st5 st6">S</text>
	<text transform="matrix(1 0 0 1 145.4604 211.9488)" class="st5 st6">U</text>
	<g class="st7">
		<path d="M173.5,211.9l-3.1-4.8c-0.4,0-0.8,0-1,0h-4v4.8h-1.7v-15.1h5.7c1.9,0,3.3,0.4,4.4,1.3c1,0.9,1.6,2.1,1.6,3.7
			c0,1.2-0.3,2.3-0.9,3.1c-0.6,0.8-1.4,1.4-2.5,1.8l3.5,5.1H173.5z M165.4,205.5h4c1.4,0,2.4-0.3,3.2-0.9c0.7-0.6,1.1-1.5,1.1-2.7
			c0-1.1-0.4-2-1.1-2.6c-0.7-0.6-1.8-0.9-3.2-0.9h-4V205.5z"/>
		<path d="M184.8,211.9H183l-6.1-15.1h1.9l5.2,13.1l5.2-13.1h1.8L184.8,211.9z"/>
		<path d="M203.6,198.5h-8.5v5h7.6v1.7h-7.6v5.2h8.8v1.6h-10.5v-15.1h10.2V198.5z"/>
		<path d="M209.1,211.9h-1.7v-15.1h1.7V211.9z"/>
		<path d="M215.4,210.3h6.6v1.6h-8.3v-15.1h1.7V210.3z"/>
		<path d="M226.6,210.3h6.6v1.6h-8.3v-15.1h1.7V210.3z"/>
		<path d="M245.7,208.1h-8.2l-1.7,3.8H234l6.8-15.1h1.8l6.7,15.1h-1.9L245.7,208.1z M245,206.5l-3.4-7.7l-3.4,7.7H245z"/>
		<path d="M264.2,211.9h-1.8l-9.1-12.1v12.1h-1.7v-15.1h1.8l9.1,12.1v-12.1h1.7V211.9z"/>
		<path d="M275.2,196.8c1,0,2,0.2,3,0.6c1,0.4,1.8,0.9,2.5,1.6l-1,1.3c-1.2-1.3-2.7-1.9-4.5-1.9c-1.7,0-3.2,0.6-4.4,1.7
			c-1.2,1.2-1.8,2.6-1.8,4.2c0,1.7,0.6,3.1,1.8,4.2c1.2,1.2,2.6,1.7,4.3,1.7c1.7,0,3.2-0.6,4.5-1.8l1.1,1.2
			c-1.7,1.6-3.5,2.3-5.6,2.3c-2.2,0-4-0.7-5.5-2.2c-1.5-1.5-2.3-3.3-2.3-5.4c0-2.1,0.8-3.9,2.3-5.4
			C271.2,197.5,273.1,196.8,275.2,196.8z"/>
		<path d="M294.1,198.5h-8.5v5h7.6v1.7h-7.6v5.2h8.8v1.6h-10.5v-15.1h10.2V198.5z"/>
		<path d="M308.3,196.8c1.8,0,3.4,0.5,4.8,1.4l-0.7,1.6c-1.3-0.8-2.7-1.3-4.2-1.3c-1,0-1.8,0.2-2.3,0.5c-0.6,0.4-0.9,0.8-0.9,1.5
			c0,0.6,0.2,1.1,0.6,1.5c0.4,0.4,0.9,0.7,1.6,0.9c0.6,0.2,1.3,0.4,2,0.7c0.7,0.3,1.4,0.5,2,0.8c0.6,0.3,1.1,0.7,1.6,1.3
			c0.4,0.6,0.6,1.3,0.6,2.2c0,1.3-0.5,2.3-1.5,3c-1,0.8-2.3,1.1-3.9,1.1c-1.1,0-2.1-0.2-3.1-0.6c-1-0.4-1.9-1-2.6-1.7l0.8-1.6
			c0.7,0.7,1.5,1.2,2.4,1.6c0.9,0.4,1.8,0.6,2.6,0.6c1.1,0,2-0.2,2.6-0.6c0.6-0.4,0.9-1,0.9-1.7c0-0.5-0.2-1-0.5-1.4
			c-0.3-0.4-0.7-0.7-1.2-0.9c-0.5-0.2-1-0.4-1.6-0.6c-0.6-0.2-1.2-0.4-1.8-0.6c-0.6-0.2-1.2-0.5-1.7-0.8c-0.5-0.3-0.9-0.7-1.2-1.2
			c-0.3-0.5-0.5-1.2-0.5-1.9c0-1.2,0.5-2.1,1.4-2.8C305.5,197.1,306.7,196.8,308.3,196.8z"/>
		<path d="M327.2,198.5h-8.5v5h7.6v1.7h-7.6v5.2h8.8v1.6H317v-15.1h10.2V198.5z"/>
		<path d="M332.8,210.3h6.6v1.6H331v-15.1h1.7V210.3z"/>
		<path d="M351.8,198.5h-7.9v5.3h7v1.7h-7v6.5h-1.7v-15.1h9.6V198.5z"/>
		<path d="M358.5,206h-5.1v-1.3h5.1V206z"/>
		<path d="M362.1,196.9h6.1c2.2,0,4,0.7,5.5,2.2c1.5,1.4,2.2,3.2,2.2,5.4c0,2.1-0.7,3.9-2.2,5.4c-1.5,1.4-3.4,2.2-5.6,2.2h-6V196.9z
			 M363.9,198.5v11.8h4.4c1.7,0,3.1-0.6,4.3-1.7c1.1-1.1,1.7-2.5,1.7-4.2c0-1.7-0.6-3.1-1.8-4.2c-1.2-1.1-2.6-1.7-4.3-1.7H363.9z"/>
		<path d="M389.4,198.5h-8.5v5h7.6v1.7h-7.6v5.2h8.8v1.6h-10.5v-15.1h10.2V198.5z"/>
		<path d="M402.8,198.5h-7.9v5.3h7v1.7h-7v6.5h-1.7v-15.1h9.6V198.5z"/>
		<path d="M415.6,198.5H407v5h7.6v1.7H407v5.2h8.8v1.6h-10.5v-15.1h10.2V198.5z"/>
		<path d="M431.9,211.9h-1.8l-9.1-12.1v12.1h-1.7v-15.1h1.8l9.1,12.1v-12.1h1.7V211.9z"/>
		<path d="M441,196.8c1.8,0,3.4,0.5,4.8,1.4l-0.7,1.6c-1.3-0.8-2.7-1.3-4.2-1.3c-1,0-1.8,0.2-2.3,0.5c-0.6,0.4-0.9,0.8-0.9,1.5
			c0,0.6,0.2,1.1,0.6,1.5c0.4,0.4,0.9,0.7,1.6,0.9c0.6,0.2,1.3,0.4,2,0.7c0.7,0.3,1.4,0.5,2,0.8c0.6,0.3,1.1,0.7,1.6,1.3
			c0.4,0.6,0.6,1.3,0.6,2.2c0,1.3-0.5,2.3-1.5,3c-1,0.8-2.3,1.1-3.9,1.1c-1.1,0-2.1-0.2-3.1-0.6c-1-0.4-1.9-1-2.6-1.7l0.8-1.6
			c0.7,0.7,1.5,1.2,2.4,1.6c0.9,0.4,1.8,0.6,2.6,0.6c1.1,0,2-0.2,2.6-0.6c0.6-0.4,0.9-1,0.9-1.7c0-0.5-0.2-1-0.5-1.4
			c-0.3-0.4-0.7-0.7-1.2-0.9c-0.5-0.2-1-0.4-1.6-0.6c-0.6-0.2-1.2-0.4-1.8-0.6c-0.6-0.2-1.2-0.5-1.7-0.8c-0.5-0.3-0.9-0.7-1.2-1.2
			c-0.3-0.5-0.5-1.2-0.5-1.9c0-1.2,0.5-2.1,1.4-2.8C438.1,197.1,439.4,196.8,441,196.8z"/>
		<path d="M459.9,198.5h-8.5v5h7.6v1.7h-7.6v5.2h8.8v1.6h-10.5v-15.1h10.2V198.5z"/>
	</g>
</g>
<g id="Layer_6_00000127022375294648940230000006168978661454263207_">
	<g id="XMLID_00000166654574113829981980000007681079974456066698_">
		<g id="XMLID_00000149342713903922049330000002049465719377295016_">
			<path id="XMLID_00000067206171943865268570000006615739641189524881_" d="M355.8,310.2c0-5.6-6.7-10.1-14.9-10.1
				c-8.2,0-14.9,4.5-14.9,10.1c0,4.5,4.4,8.3,10.5,9.6v23.3l5.5,9.1h1.6V347l5-5.3l-5.1-5v-0.1l2.9-3l-2.9-2.9v-10.6
				C350.5,319.3,355.8,315.1,355.8,310.2z M340.9,305.2c2,0,3.7,1.6,3.7,3.7c0,2-1.6,3.7-3.7,3.7c-2,0-3.7-1.6-3.7-3.7
				C337.2,306.8,338.8,305.2,340.9,305.2z"/>
		</g>
		<g id="XMLID_00000040559949103797255010000012466052113576553089_">
			<g>
				<path id="XMLID_00000147213655962652006760000017400167242718342310_" d="M265,317.2v-8.1c0-6.8-5.5-12.3-12.3-12.3
					s-12.3,5.5-12.3,12.3v8.1h-4.8v26.9h34.1v-26.9H265L265,317.2z M244.6,309.1c0-4.4,3.6-8.1,8.1-8.1c4.4,0,8.1,3.6,8.1,8.1v8.1
					h-16.1L244.6,309.1L244.6,309.1z"/>
			</g>
		</g>
		<g id="XMLID_00000148624619410870308370000007349755895085245341_">
			<circle id="XMLID_00000096022440744469646640000007918438537789088900_" class="st8" cx="252.6" cy="323.2" r="44.3"/>
			<circle id="XMLID_00000061469959677289344970000009426850495040155583_" class="st9" cx="252.6" cy="323.2" r="50.1"/>
			<circle id="XMLID_00000066503448474968399910000013928293731169939598_" class="st9" cx="252.6" cy="323.2" r="38.4"/>
		</g>
		<g id="XMLID_00000098913190469558954650000013652880838014321051_">
			<circle id="XMLID_00000049902694816582355020000011048208894864191395_" class="st8" cx="341.4" cy="323.2" r="44.3"/>
			<circle id="XMLID_00000159430763356295753380000000106909842946041216_" class="st9" cx="341.4" cy="323.2" r="50.1"/>
			<circle id="XMLID_00000179619644192172584540000003202115089633663888_" class="st9" cx="341.4" cy="323.2" r="38.4"/>
		</g>
		<path id="XMLID_00000168800257513930996630000010417738646875595695_" class="st8" d="M296.9,323.2c0,24.4-19.8,44.3-44.3,44.3
			s-44.3-19.8-44.3-44.3c0-24.4,19.8-44.3,44.3-44.3"/>
		<path id="XMLID_00000143609551464203551040000012461510624511954310_" class="st9" d="M302.7,323.2c0,27.7-22.4,50.1-50.1,50.1
			s-50.1-22.4-50.1-50.1c0-27.7,22.4-50.1,50.1-50.1"/>
	</g>
</g>
<g id="Layer_5_00000063626933301103106390000013790966688124643499_">
	<text transform="matrix(1 0 0 1 132.2963 407.9351)" class="st5 st6">S</text>
	<text transform="matrix(1 0 0 1 145.4604 407.9351)" class="st5 st6">U</text>
	<g class="st7">
		<path d="M173.5,407.9l-3.1-4.8c-0.4,0-0.8,0-1,0h-4v4.8h-1.7v-15.1h5.7c1.9,0,3.3,0.4,4.4,1.3c1,0.9,1.6,2.1,1.6,3.7
			c0,1.2-0.3,2.3-0.9,3.1c-0.6,0.8-1.4,1.4-2.5,1.8l3.5,5.1H173.5z M165.4,401.5h4c1.4,0,2.4-0.3,3.2-0.9c0.7-0.6,1.1-1.5,1.1-2.7
			c0-1.1-0.4-2-1.1-2.6c-0.7-0.6-1.8-0.9-3.2-0.9h-4V401.5z"/>
		<path d="M184.8,407.9H183l-6.1-15.1h1.9l5.2,13.1l5.2-13.1h1.8L184.8,407.9z"/>
		<path d="M203.6,394.5h-8.5v5h7.6v1.7h-7.6v5.2h8.8v1.6h-10.5v-15.1h10.2V394.5z"/>
		<path d="M209.1,407.9h-1.7v-15.1h1.7V407.9z"/>
		<path d="M215.4,406.3h6.6v1.6h-8.3v-15.1h1.7V406.3z"/>
		<path d="M226.6,406.3h6.6v1.6h-8.3v-15.1h1.7V406.3z"/>
		<path d="M245.7,404.1h-8.2l-1.7,3.8H234l6.8-15.1h1.8l6.7,15.1h-1.9L245.7,404.1z M245,402.5l-3.4-7.7l-3.4,7.7H245z"/>
		<path d="M264.2,407.9h-1.8l-9.1-12.1v12.1h-1.7v-15.1h1.8l9.1,12.1v-12.1h1.7V407.9z"/>
		<path d="M275.2,392.8c1,0,2,0.2,3,0.6c1,0.4,1.8,0.9,2.5,1.6l-1,1.3c-1.2-1.3-2.7-1.9-4.5-1.9c-1.7,0-3.2,0.6-4.4,1.7
			c-1.2,1.2-1.8,2.6-1.8,4.2c0,1.7,0.6,3.1,1.8,4.2c1.2,1.2,2.6,1.7,4.3,1.7c1.7,0,3.2-0.6,4.5-1.8l1.1,1.2
			c-1.7,1.6-3.5,2.3-5.6,2.3c-2.2,0-4-0.7-5.5-2.2c-1.5-1.5-2.3-3.3-2.3-5.4c0-2.1,0.8-3.9,2.3-5.4
			C271.2,393.5,273.1,392.8,275.2,392.8z"/>
		<path d="M294.1,394.5h-8.5v5h7.6v1.7h-7.6v5.2h8.8v1.6h-10.5v-15.1h10.2V394.5z"/>
		<path d="M308.3,392.8c1.8,0,3.4,0.5,4.8,1.4l-0.7,1.6c-1.3-0.8-2.7-1.3-4.2-1.3c-1,0-1.8,0.2-2.3,0.5c-0.6,0.4-0.9,0.8-0.9,1.5
			c0,0.6,0.2,1.1,0.6,1.5c0.4,0.4,0.9,0.7,1.6,0.9c0.6,0.2,1.3,0.4,2,0.7c0.7,0.3,1.4,0.5,2,0.8c0.6,0.3,1.1,0.7,1.6,1.3
			c0.4,0.6,0.6,1.3,0.6,2.2c0,1.3-0.5,2.3-1.5,3c-1,0.8-2.3,1.1-3.9,1.1c-1.1,0-2.1-0.2-3.1-0.6c-1-0.4-1.9-1-2.6-1.7l0.8-1.6
			c0.7,0.7,1.5,1.2,2.4,1.6c0.9,0.4,1.8,0.6,2.6,0.6c1.1,0,2-0.2,2.6-0.6c0.6-0.4,0.9-1,0.9-1.7c0-0.5-0.2-1-0.5-1.4
			c-0.3-0.4-0.7-0.7-1.2-0.9c-0.5-0.2-1-0.4-1.6-0.6c-0.6-0.2-1.2-0.4-1.8-0.6c-0.6-0.2-1.2-0.5-1.7-0.8c-0.5-0.3-0.9-0.7-1.2-1.2
			c-0.3-0.5-0.5-1.2-0.5-1.9c0-1.2,0.5-2.1,1.4-2.8S306.7,392.8,308.3,392.8z"/>
		<path d="M327.2,394.5h-8.5v5h7.6v1.7h-7.6v5.2h8.8v1.6H317v-15.1h10.2V394.5z"/>
		<path d="M332.8,406.3h6.6v1.6H331v-15.1h1.7V406.3z"/>
		<path d="M351.8,394.5h-7.9v5.3h7v1.7h-7v6.5h-1.7v-15.1h9.6V394.5z"/>
		<path d="M358.5,402h-5.1v-1.3h5.1V402z"/>
		<path d="M362.1,392.8h6.1c2.2,0,4,0.7,5.5,2.2c1.5,1.4,2.2,3.2,2.2,5.4c0,2.1-0.7,3.9-2.2,5.4c-1.5,1.4-3.4,2.2-5.6,2.2h-6V392.8z
			 M363.9,394.5v11.8h4.4c1.7,0,3.1-0.6,4.3-1.7c1.1-1.1,1.7-2.5,1.7-4.2c0-1.7-0.6-3.1-1.8-4.2c-1.2-1.1-2.6-1.7-4.3-1.7H363.9z"/>
		<path d="M389.4,394.5h-8.5v5h7.6v1.7h-7.6v5.2h8.8v1.6h-10.5v-15.1h10.2V394.5z"/>
		<path d="M402.8,394.5h-7.9v5.3h7v1.7h-7v6.5h-1.7v-15.1h9.6V394.5z"/>
		<path d="M415.6,394.5H407v5h7.6v1.7H407v5.2h8.8v1.6h-10.5v-15.1h10.2V394.5z"/>
		<path d="M431.9,407.9h-1.8l-9.1-12.1v12.1h-1.7v-15.1h1.8l9.1,12.1v-12.1h1.7V407.9z"/>
		<path d="M441,392.8c1.8,0,3.4,0.5,4.8,1.4l-0.7,1.6c-1.3-0.8-2.7-1.3-4.2-1.3c-1,0-1.8,0.2-2.3,0.5c-0.6,0.4-0.9,0.8-0.9,1.5
			c0,0.6,0.2,1.1,0.6,1.5c0.4,0.4,0.9,0.7,1.6,0.9c0.6,0.2,1.3,0.4,2,0.7c0.7,0.3,1.4,0.5,2,0.8c0.6,0.3,1.1,0.7,1.6,1.3
			c0.4,0.6,0.6,1.3,0.6,2.2c0,1.3-0.5,2.3-1.5,3c-1,0.8-2.3,1.1-3.9,1.1c-1.1,0-2.1-0.2-3.1-0.6c-1-0.4-1.9-1-2.6-1.7l0.8-1.6
			c0.7,0.7,1.5,1.2,2.4,1.6c0.9,0.4,1.8,0.6,2.6,0.6c1.1,0,2-0.2,2.6-0.6c0.6-0.4,0.9-1,0.9-1.7c0-0.5-0.2-1-0.5-1.4
			c-0.3-0.4-0.7-0.7-1.2-0.9c-0.5-0.2-1-0.4-1.6-0.6s-1.2-0.4-1.8-0.6c-0.6-0.2-1.2-0.5-1.7-0.8c-0.5-0.3-0.9-0.7-1.2-1.2
			c-0.3-0.5-0.5-1.2-0.5-1.9c0-1.2,0.5-2.1,1.4-2.8S439.4,392.8,441,392.8z"/>
		<path d="M459.9,394.5h-8.5v5h7.6v1.7h-7.6v5.2h8.8v1.6h-10.5v-15.1h10.2V394.5z"/>
	</g>
</g>
<g id="XMLID_00000176002262740714220850000010842811245484674692_">
	<path id="XMLID_38_" class="st1" d="M334.9,681.3c0-3.7-4.4-6.6-9.8-6.6c-5.4,0-9.8,3-9.8,6.6c0,3,2.9,5.5,6.9,6.3V703l3.6,6h1.1
		v-3.4l3.3-3.5l-3.3-3.3v-0.1l1.9-2l-1.9-1.9v-7C331.4,687.3,334.9,684.5,334.9,681.3z M325.1,678c1.3,0,2.4,1.1,2.4,2.4
		c0,1.3-1.1,2.4-2.4,2.4s-2.4-1.1-2.4-2.4C322.7,679.1,323.7,678,325.1,678z"/>
</g>
<g id="XMLID_00000152249564211505072260000013835586026914534294_">
	<path id="XMLID_00000068654747404649623300000008064646605749746054_" class="st1" d="M275.1,685.9v-5.3c0-4.5-3.6-8.1-8.1-8.1
		c-4.5,0-8.1,3.6-8.1,8.1v5.3h-3.1v17.8h22.5v-17.8H275.1z M261.7,680.6c0-2.9,2.4-5.3,5.3-5.3c2.9,0,5.3,2.4,5.3,5.3v5.3h-10.6
		V680.6z"/>
</g>
<g id="XMLID_22_">
	<circle id="XMLID_00000031184401888077583680000002098451711645870777_" class="st10" cx="266.9" cy="689.9" r="29.1"/>
	<circle id="XMLID_00000165220336381140992210000012740013031750837162_" class="st11" cx="266.9" cy="689.9" r="33"/>
	<circle id="XMLID_00000164490214848746290680000000527337713373509292_" class="st11" cx="266.9" cy="689.9" r="25.3"/>
</g>
<g id="XMLID_10_">
	<circle id="XMLID_13_" class="st10" cx="325.4" cy="689.9" r="29.1"/>
	<circle id="XMLID_12_" class="st11" cx="325.4" cy="689.9" r="33"/>
	<circle id="XMLID_00000136389230055627263260000010620138804379776904_" class="st11" cx="325.4" cy="689.9" r="25.3"/>
</g>
<g>
	<path class="st1" d="M156.5,587.6v5h-1.4v-5h-1.7v-1.2h4.9v1.2H156.5z"/>
	<path class="st1" d="M159.3,586.4h1.4v6.2h-1.4V586.4z"/>
	<path class="st1" d="M166.5,586.9c0.4,0.4,0.6,0.9,0.6,1.7c0,0.8-0.2,1.3-0.7,1.7c-0.4,0.4-1.1,0.5-2,0.5h-0.8v1.7h-1.4v-6.2h2.2
		C165.4,586.4,166.1,586.6,166.5,586.9z M165.5,589.4c0.2-0.2,0.2-0.5,0.2-0.8c0-0.4-0.1-0.6-0.3-0.8c-0.2-0.1-0.5-0.2-1-0.2h-0.8
		v2.1h0.9C165,589.6,165.3,589.5,165.5,589.4z"/>
	<path class="st1" d="M169.7,587.6c-0.1,0.1-0.2,0.3-0.2,0.4c0,0.2,0.1,0.3,0.2,0.4c0.2,0.1,0.5,0.2,1.1,0.4c0.6,0.1,1,0.4,1.4,0.6
		c0.3,0.3,0.5,0.7,0.5,1.3c0,0.6-0.2,1-0.6,1.3c-0.4,0.3-1,0.5-1.6,0.5c-1,0-1.9-0.4-2.6-1.1l0.8-1c0.7,0.6,1.3,0.9,1.8,0.9
		c0.3,0,0.5-0.1,0.6-0.2c0.1-0.1,0.2-0.3,0.2-0.4c0-0.2-0.1-0.3-0.2-0.4c-0.2-0.1-0.5-0.2-0.9-0.3c-0.7-0.2-1.2-0.4-1.6-0.7
		c-0.3-0.3-0.5-0.7-0.5-1.3c0-0.6,0.2-1,0.6-1.4c0.4-0.3,0.9-0.5,1.6-0.5c0.4,0,0.8,0.1,1.2,0.2c0.4,0.1,0.8,0.3,1.1,0.6l-0.7,1
		c-0.5-0.4-1.1-0.6-1.7-0.6C170,587.5,169.9,587.5,169.7,587.6z"/>
	<path class="st1" d="M174,592.4c-0.2-0.1-0.3-0.3-0.3-0.6c0-0.2,0.1-0.4,0.2-0.6c0.2-0.1,0.3-0.2,0.6-0.2c0.2,0,0.4,0.1,0.6,0.2
		c0.2,0.1,0.2,0.3,0.2,0.5c0,0.2-0.1,0.4-0.3,0.7l-0.5,0.9h-0.9L174,592.4z"/>
	<path class="st1" d="M181.7,587.6v5h-1.4v-5h-1.7v-1.2h4.9v1.2H181.7z"/>
	<path class="st1" d="M189.5,591.7c-0.6,0.6-1.4,0.9-2.3,0.9c-0.9,0-1.7-0.3-2.3-0.9c-0.6-0.6-0.9-1.4-0.9-2.3
		c0-0.9,0.3-1.7,0.9-2.3s1.4-0.9,2.3-0.9c0.9,0,1.7,0.3,2.3,0.9c0.6,0.6,0.9,1.4,0.9,2.3C190.4,590.3,190.1,591.1,189.5,591.7z
		 M189,589.4c0-0.5-0.2-1-0.5-1.4c-0.4-0.4-0.8-0.6-1.3-0.6s-0.9,0.2-1.3,0.6c-0.4,0.4-0.5,0.9-0.5,1.4c0,0.5,0.2,1,0.5,1.4
		c0.4,0.4,0.8,0.6,1.3,0.6s0.9-0.2,1.3-0.6C188.8,590.4,189,590,189,589.4z"/>
	<path class="st1" d="M196.8,591.7c-0.6,0.6-1.4,0.9-2.3,0.9c-0.9,0-1.7-0.3-2.3-0.9c-0.6-0.6-0.9-1.4-0.9-2.3
		c0-0.9,0.3-1.7,0.9-2.3c0.6-0.6,1.4-0.9,2.3-0.9c0.9,0,1.7,0.3,2.3,0.9c0.6,0.6,0.9,1.4,0.9,2.3
		C197.8,590.3,197.5,591.1,196.8,591.7z M196.4,589.4c0-0.5-0.2-1-0.5-1.4c-0.4-0.4-0.8-0.6-1.3-0.6c-0.5,0-0.9,0.2-1.3,0.6
		c-0.4,0.4-0.5,0.9-0.5,1.4c0,0.5,0.2,1,0.5,1.4c0.4,0.4,0.8,0.6,1.3,0.6c0.5,0,0.9-0.2,1.3-0.6C196.2,590.4,196.4,590,196.4,589.4z
		"/>
	<path class="st1" d="M199,592.5v-6.2h1.4v4.9h2.6v1.2H199z"/>
	<path class="st1" d="M205.5,587.6c-0.1,0.1-0.2,0.3-0.2,0.4c0,0.2,0.1,0.3,0.2,0.4c0.2,0.1,0.5,0.2,1.1,0.4c0.6,0.1,1,0.4,1.4,0.6
		c0.3,0.3,0.5,0.7,0.5,1.3c0,0.6-0.2,1-0.6,1.3c-0.4,0.3-1,0.5-1.6,0.5c-1,0-1.9-0.4-2.6-1.1l0.8-1c0.7,0.6,1.3,0.9,1.8,0.9
		c0.3,0,0.5-0.1,0.6-0.2c0.1-0.1,0.2-0.3,0.2-0.4c0-0.2-0.1-0.3-0.2-0.4c-0.2-0.1-0.5-0.2-0.9-0.3c-0.7-0.2-1.2-0.4-1.6-0.7
		c-0.3-0.3-0.5-0.7-0.5-1.3c0-0.6,0.2-1,0.6-1.4c0.4-0.3,0.9-0.5,1.6-0.5c0.4,0,0.8,0.1,1.2,0.2c0.4,0.1,0.8,0.3,1.1,0.6l-0.7,1
		c-0.5-0.4-1.1-0.6-1.7-0.6C205.8,587.5,205.6,587.5,205.5,587.6z"/>
	<path class="st1" d="M215.8,592c-0.5,0.4-1.1,0.6-1.7,0.6s-1.2-0.2-1.6-0.5c-0.4-0.3-0.6-0.8-0.6-1.4c0-0.6,0.4-1.2,1.3-1.7
		c-0.2-0.2-0.3-0.4-0.4-0.6c-0.1-0.2-0.1-0.4-0.1-0.6c0-0.5,0.2-0.9,0.5-1.1c0.4-0.3,0.8-0.4,1.3-0.4c0.5,0,0.9,0.1,1.3,0.4
		c0.3,0.3,0.5,0.6,0.5,1.1c0,0.6-0.4,1.1-1.3,1.6c0.3,0.4,0.6,0.7,0.7,0.9c0.1-0.3,0.3-0.6,0.3-0.9l1,0.7c-0.1,0.4-0.3,0.7-0.5,1
		l0.9,0.9l-0.9,0.8L215.8,592z M213.4,591.3c0.2,0.1,0.4,0.2,0.7,0.2c0.3,0,0.6-0.1,0.9-0.4c-0.4-0.5-0.8-0.9-1.1-1.2
		c-0.5,0.3-0.7,0.6-0.7,0.9C213.1,591,213.2,591.2,213.4,591.3z M214.4,587.3c-0.1,0-0.2,0-0.3,0.1c-0.1,0.1-0.2,0.2-0.2,0.4
		s0.1,0.4,0.4,0.7c0.4-0.2,0.7-0.5,0.7-0.7c0-0.2-0.1-0.3-0.2-0.4C214.6,587.3,214.5,587.3,214.4,587.3z"/>
	<path class="st1" d="M224.6,586.4h1.4v6.2h-1.4v-2.4h-2.4v2.4h-1.4v-6.2h1.4v2.6h2.4V586.4z"/>
	<path class="st1" d="M232.8,591.7c-0.6,0.6-1.4,0.9-2.3,0.9c-0.9,0-1.7-0.3-2.3-0.9c-0.6-0.6-0.9-1.4-0.9-2.3
		c0-0.9,0.3-1.7,0.9-2.3c0.6-0.6,1.4-0.9,2.3-0.9c0.9,0,1.7,0.3,2.3,0.9c0.6,0.6,0.9,1.4,0.9,2.3
		C233.7,590.3,233.4,591.1,232.8,591.7z M232.3,589.4c0-0.5-0.2-1-0.5-1.4c-0.4-0.4-0.8-0.6-1.3-0.6c-0.5,0-0.9,0.2-1.3,0.6
		c-0.4,0.4-0.5,0.9-0.5,1.4c0,0.5,0.2,1,0.5,1.4c0.4,0.4,0.8,0.6,1.3,0.6c0.5,0,0.9-0.2,1.3-0.6C232.1,590.4,232.3,590,232.3,589.4z
		"/>
	<path class="st1" d="M236.7,589.9l1.1-3.5h1.4l1.1,3.5l1.2-3.5h1.5l-2.1,6.2h-1l-1.3-4.3l-1.3,4.3h-1l-2.1-6.2h1.5L236.7,589.9z"/>
	<path class="st1" d="M243.5,590.5v-1.2h3.1v1.2H243.5z"/>
	<path class="st1" d="M250.2,587.6v5h-1.4v-5h-1.7v-1.2h4.9v1.2H250.2z"/>
	<path class="st1" d="M258.1,591.7c-0.6,0.6-1.4,0.9-2.3,0.9c-0.9,0-1.7-0.3-2.3-0.9c-0.6-0.6-0.9-1.4-0.9-2.3
		c0-0.9,0.3-1.7,0.9-2.3c0.6-0.6,1.4-0.9,2.3-0.9c0.9,0,1.7,0.3,2.3,0.9c0.6,0.6,0.9,1.4,0.9,2.3C259,590.3,258.7,591.1,258.1,591.7
		z M257.6,589.4c0-0.5-0.2-1-0.5-1.4c-0.4-0.4-0.8-0.6-1.3-0.6c-0.5,0-0.9,0.2-1.3,0.6c-0.4,0.4-0.5,0.9-0.5,1.4
		c0,0.5,0.2,1,0.5,1.4c0.4,0.4,0.8,0.6,1.3,0.6c0.5,0,0.9-0.2,1.3-0.6C257.4,590.4,257.6,590,257.6,589.4z"/>
	<path class="st1" d="M261.6,587.6c-0.1,0.1-0.2,0.3-0.2,0.4c0,0.2,0.1,0.3,0.2,0.4c0.2,0.1,0.5,0.2,1.1,0.4s1,0.4,1.4,0.6
		c0.3,0.3,0.5,0.7,0.5,1.3c0,0.6-0.2,1-0.6,1.3c-0.4,0.3-1,0.5-1.6,0.5c-1,0-1.9-0.4-2.6-1.1l0.8-1c0.7,0.6,1.3,0.9,1.8,0.9
		c0.3,0,0.5-0.1,0.6-0.2c0.1-0.1,0.2-0.3,0.2-0.4c0-0.2-0.1-0.3-0.2-0.4c-0.2-0.1-0.5-0.2-0.9-0.3c-0.7-0.2-1.2-0.4-1.6-0.7
		c-0.3-0.3-0.5-0.7-0.5-1.3c0-0.6,0.2-1,0.6-1.4c0.4-0.3,0.9-0.5,1.6-0.5c0.4,0,0.8,0.1,1.2,0.2c0.4,0.1,0.8,0.3,1.1,0.6l-0.7,1
		c-0.5-0.4-1.1-0.6-1.7-0.6C261.9,587.5,261.8,587.5,261.6,587.6z"/>
	<path class="st1" d="M272.5,586.4v1.2h-2.9v1.3h2.7v1.2h-2.7v2.4h-1.4v-6.2H272.5z"/>
	<path class="st1" d="M278.9,591.7c-0.6,0.6-1.4,0.9-2.3,0.9c-0.9,0-1.7-0.3-2.3-0.9c-0.6-0.6-0.9-1.4-0.9-2.3
		c0-0.9,0.3-1.7,0.9-2.3s1.4-0.9,2.3-0.9c0.9,0,1.7,0.3,2.3,0.9c0.6,0.6,0.9,1.4,0.9,2.3C279.8,590.3,279.5,591.1,278.9,591.7z
		 M278.4,589.4c0-0.5-0.2-1-0.5-1.4c-0.4-0.4-0.8-0.6-1.3-0.6s-0.9,0.2-1.3,0.6c-0.4,0.4-0.5,0.9-0.5,1.4c0,0.5,0.2,1,0.5,1.4
		c0.4,0.4,0.8,0.6,1.3,0.6s0.9-0.2,1.3-0.6C278.3,590.4,278.4,590,278.4,589.4z"/>
	<path class="st1" d="M286.1,588.4c0,1-0.4,1.6-1.2,1.9l1.6,2.2h-1.7l-1.4-2h-1v2h-1.4v-6.2h2.3c1,0,1.6,0.2,2,0.5
		C285.9,587.2,286.1,587.7,286.1,588.4z M284.4,589.2c0.2-0.2,0.3-0.4,0.3-0.7c0-0.3-0.1-0.6-0.3-0.7c-0.2-0.1-0.5-0.2-0.9-0.2h-1
		v1.8h1C283.9,589.4,284.2,589.3,284.4,589.2z"/>
	<path class="st1" d="M291.4,587.6c-0.1,0.1-0.2,0.3-0.2,0.4c0,0.2,0.1,0.3,0.2,0.4c0.2,0.1,0.5,0.2,1.1,0.4s1,0.4,1.4,0.6
		c0.3,0.3,0.5,0.7,0.5,1.3c0,0.6-0.2,1-0.6,1.3c-0.4,0.3-1,0.5-1.6,0.5c-1,0-1.9-0.4-2.6-1.1l0.8-1c0.7,0.6,1.3,0.9,1.8,0.9
		c0.3,0,0.5-0.1,0.6-0.2c0.1-0.1,0.2-0.3,0.2-0.4c0-0.2-0.1-0.3-0.2-0.4c-0.2-0.1-0.5-0.2-0.9-0.3c-0.7-0.2-1.2-0.4-1.6-0.7
		c-0.3-0.3-0.5-0.7-0.5-1.3c0-0.6,0.2-1,0.6-1.4c0.4-0.3,0.9-0.5,1.6-0.5c0.4,0,0.8,0.1,1.2,0.2c0.4,0.1,0.8,0.3,1.1,0.6l-0.7,1
		c-0.5-0.4-1.1-0.6-1.7-0.6C291.7,587.5,291.5,587.5,291.4,587.6z"/>
	<path class="st1" d="M299.9,592.5l-0.6-1.3h-2.6l-0.6,1.3h-1.5l2.7-6.2h1.3l2.7,6.2H299.9z M298.1,588.2l-0.8,1.8h1.5L298.1,588.2z
		"/>
	<path class="st1" d="M306.4,586.4v1.2h-2.9v1.3h2.7v1.2h-2.7v2.4h-1.4v-6.2H306.4z"/>
	<path class="st1" d="M312.1,586.4v1.2H309v1.3h2.8v1.2H309v1.3h3.2v1.2h-4.5v-6.2H312.1z"/>
	<path class="st1" d="M318.5,588.4c0,1-0.4,1.6-1.2,1.9l1.6,2.2h-1.7l-1.4-2h-1v2h-1.4v-6.2h2.3c1,0,1.6,0.2,2,0.5
		C318.3,587.2,318.5,587.7,318.5,588.4z M316.8,589.2c0.2-0.2,0.3-0.4,0.3-0.7c0-0.3-0.1-0.6-0.3-0.7c-0.2-0.1-0.5-0.2-0.9-0.2h-1
		v1.8h1C316.3,589.4,316.6,589.3,316.8,589.2z"/>
	<path class="st1" d="M327.5,591.7c-0.6,0.6-1.4,0.9-2.3,0.9s-1.7-0.3-2.3-0.9c-0.6-0.6-0.9-1.4-0.9-2.3c0-0.9,0.3-1.7,0.9-2.3
		s1.4-0.9,2.3-0.9s1.7,0.3,2.3,0.9c0.6,0.6,0.9,1.4,0.9,2.3C328.5,590.3,328.1,591.1,327.5,591.7z M327.1,589.4c0-0.5-0.2-1-0.5-1.4
		c-0.4-0.4-0.8-0.6-1.3-0.6c-0.5,0-0.9,0.2-1.3,0.6c-0.4,0.4-0.5,0.9-0.5,1.4c0,0.5,0.2,1,0.5,1.4c0.4,0.4,0.8,0.6,1.3,0.6
		c0.5,0,0.9-0.2,1.3-0.6C326.9,590.4,327.1,590,327.1,589.4z"/>
	<path class="st1" d="M334,586.4h1.4v6.2H334l-2.9-3.9v3.9h-1.4v-6.2h1.3l3,4V586.4z"/>
	<path class="st1" d="M337,592.5v-6.2h1.4v4.9h2.6v1.2H337z"/>
	<path class="st1" d="M342,586.4h1.4v6.2H342V586.4z"/>
	<path class="st1" d="M349.3,586.4h1.4v6.2h-1.4l-2.9-3.9v3.9H345v-6.2h1.3l3,4V586.4z"/>
	<path class="st1" d="M356.7,586.4v1.2h-3.1v1.3h2.8v1.2h-2.8v1.3h3.2v1.2h-4.5v-6.2H356.7z"/>
	<path class="st1" d="M363.3,591.3c0.7,0,1.2-0.3,1.7-0.8l0.9,0.9c-0.7,0.8-1.5,1.2-2.5,1.2s-1.7-0.3-2.3-0.9
		c-0.6-0.6-0.9-1.4-0.9-2.3c0-0.9,0.3-1.7,0.9-2.3c0.6-0.6,1.4-0.9,2.3-0.9c1,0,1.9,0.4,2.5,1.2l-0.9,1c-0.4-0.5-1-0.8-1.6-0.8
		c-0.5,0-1,0.2-1.3,0.5c-0.4,0.3-0.6,0.8-0.6,1.4s0.2,1,0.5,1.4C362.4,591.2,362.8,591.3,363.3,591.3z"/>
	<path class="st1" d="M372,591.7c-0.6,0.6-1.4,0.9-2.3,0.9c-0.9,0-1.7-0.3-2.3-0.9c-0.6-0.6-0.9-1.4-0.9-2.3c0-0.9,0.3-1.7,0.9-2.3
		s1.4-0.9,2.3-0.9c0.9,0,1.7,0.3,2.3,0.9s0.9,1.4,0.9,2.3C373,590.3,372.7,591.1,372,591.7z M371.6,589.4c0-0.5-0.2-1-0.5-1.4
		c-0.4-0.4-0.8-0.6-1.3-0.6c-0.5,0-0.9,0.2-1.3,0.6c-0.4,0.4-0.5,0.9-0.5,1.4c0,0.5,0.2,1,0.5,1.4c0.4,0.4,0.8,0.6,1.3,0.6
		c0.5,0,0.9-0.2,1.3-0.6C371.4,590.4,371.6,590,371.6,589.4z"/>
	<path class="st1" d="M379.7,588.7l-1.7,3.4h-0.8l-1.7-3.4v3.9h-1.4v-6.2h1.9l1.6,3.4l1.6-3.4h1.8v6.2h-1.4V588.7z"/>
	<path class="st1" d="M388.2,588.7l-1.7,3.4h-0.8l-1.7-3.4v3.9h-1.4v-6.2h1.9l1.6,3.4l1.6-3.4h1.8v6.2h-1.4V588.7z"/>
	<path class="st1" d="M392.8,591c0.2,0.3,0.5,0.4,0.9,0.4c0.4,0,0.7-0.1,0.9-0.4c0.2-0.3,0.3-0.7,0.3-1.2v-3.4h1.4v3.4
		c0,0.9-0.2,1.6-0.7,2.1c-0.5,0.5-1.1,0.7-1.9,0.7c-0.8,0-1.4-0.2-1.9-0.7c-0.5-0.5-0.7-1.2-0.7-2.1v-3.4h1.4v3.4
		C392.4,590.3,392.6,590.7,392.8,591z"/>
	<path class="st1" d="M402.1,586.4h1.4v6.2h-1.4l-2.9-3.9v3.9h-1.4v-6.2h1.3l3,4V586.4z"/>
	<path class="st1" d="M405.1,586.4h1.4v6.2h-1.4V586.4z"/>
	<path class="st1" d="M410.9,591.3c0.7,0,1.2-0.3,1.7-0.8l0.9,0.9c-0.7,0.8-1.5,1.2-2.5,1.2c-0.9,0-1.7-0.3-2.3-0.9
		c-0.6-0.6-0.9-1.4-0.9-2.3c0-0.9,0.3-1.7,0.9-2.3c0.6-0.6,1.4-0.9,2.3-0.9c1,0,1.9,0.4,2.5,1.2l-0.9,1c-0.4-0.5-1-0.8-1.6-0.8
		c-0.5,0-1,0.2-1.3,0.5c-0.4,0.3-0.6,0.8-0.6,1.4s0.2,1,0.5,1.4C410,591.2,410.4,591.3,410.9,591.3z"/>
	<path class="st1" d="M418.9,592.5l-0.6-1.3h-2.6l-0.6,1.3h-1.5l2.7-6.2h1.3l2.7,6.2H418.9z M417.1,588.2l-0.8,1.8h1.5L417.1,588.2z
		"/>
	<path class="st1" d="M423.3,587.6v5H422v-5h-1.7v-1.2h4.9v1.2H423.3z"/>
	<path class="st1" d="M426.1,586.4h1.4v6.2h-1.4V586.4z"/>
	<path class="st1" d="M434.3,591.7c-0.6,0.6-1.4,0.9-2.3,0.9c-0.9,0-1.7-0.3-2.3-0.9c-0.6-0.6-0.9-1.4-0.9-2.3
		c0-0.9,0.3-1.7,0.9-2.3c0.6-0.6,1.4-0.9,2.3-0.9c0.9,0,1.7,0.3,2.3,0.9s0.9,1.4,0.9,2.3C435.2,590.3,434.9,591.1,434.3,591.7z
		 M433.8,589.4c0-0.5-0.2-1-0.5-1.4c-0.4-0.4-0.8-0.6-1.3-0.6c-0.5,0-0.9,0.2-1.3,0.6c-0.4,0.4-0.5,0.9-0.5,1.4c0,0.5,0.2,1,0.5,1.4
		c0.4,0.4,0.8,0.6,1.3,0.6c0.5,0,0.9-0.2,1.3-0.6C433.6,590.4,433.8,590,433.8,589.4z"/>
	<path class="st1" d="M440.8,586.4h1.4v6.2h-1.4l-2.9-3.9v3.9h-1.4v-6.2h1.3l3,4V586.4z"/>
</g>
<g>
	<path d="M204.1,534.6c2.3,0,4.3,0.6,6,1.8l-0.9,2c-1.6-1.1-3.3-1.6-5.2-1.6c-1.2,0-2.2,0.2-2.9,0.7c-0.7,0.4-1.1,1.1-1.1,1.9
		c0,0.8,0.3,1.4,0.8,1.9c0.5,0.5,1.2,0.9,2,1.1c0.8,0.2,1.7,0.5,2.6,0.8c0.9,0.3,1.8,0.6,2.6,1c0.8,0.3,1.4,0.9,2,1.6
		c0.5,0.7,0.8,1.7,0.8,2.7c0,1.6-0.6,2.8-1.9,3.8c-1.3,0.9-2.9,1.4-5,1.4c-1.4,0-2.7-0.3-4-0.8c-1.3-0.5-2.4-1.2-3.3-2.1l1-1.9
		c0.9,0.8,1.9,1.5,3,2c1.1,0.5,2.2,0.7,3.3,0.7c1.4,0,2.5-0.3,3.2-0.8c0.8-0.5,1.2-1.2,1.2-2.1c0-0.7-0.2-1.2-0.6-1.7
		c-0.4-0.5-0.9-0.8-1.5-1.1c-0.6-0.3-1.3-0.5-2.1-0.7c-0.8-0.2-1.5-0.5-2.3-0.7c-0.8-0.3-1.5-0.6-2.1-0.9c-0.6-0.4-1.1-0.9-1.5-1.5
		c-0.4-0.7-0.6-1.4-0.6-2.4c0-1.5,0.6-2.7,1.8-3.6C200.6,535,202.1,534.6,204.1,534.6z"/>
	<path d="M230.5,534.7v11.2c0,2.5-0.7,4.4-2.1,5.8c-1.4,1.4-3.3,2.1-5.8,2.1c-2.5,0-4.4-0.7-5.9-2.1c-1.4-1.4-2.1-3.3-2.1-5.8v-11.2
		h2.2v11.2c0,1.8,0.5,3.2,1.6,4.3c1,1,2.5,1.5,4.3,1.5c1.8,0,3.2-0.5,4.2-1.5c1-1,1.5-2.5,1.5-4.3v-11.2H230.5z"/>
	<path d="M248.2,553.6l-3.9-6c-0.5,0-1,0.1-1.3,0.1h-5v6h-2.2v-19h7.2c2.4,0,4.2,0.6,5.5,1.7c1.3,1.1,2,2.7,2,4.7
		c0,1.6-0.4,2.9-1.1,3.9c-0.7,1-1.8,1.8-3.2,2.2l4.4,6.4H248.2z M238,545.5h5c1.7,0,3.1-0.4,4-1.1c0.9-0.8,1.4-1.9,1.4-3.3
		c0-1.4-0.5-2.5-1.4-3.2c-0.9-0.7-2.3-1.1-4-1.1h-5V545.5z"/>
	<path d="M262.4,553.6h-2.2l-7.7-19h2.3l6.5,16.4l6.6-16.4h2.3L262.4,553.6z"/>
	<path d="M286,536.7h-10.7v6.2h9.6v2.1h-9.6v6.5h11v2.1h-13.2v-19H286V536.7z"/>
	<path d="M292.9,553.6h-2.2v-19h2.2V553.6z"/>
	<path d="M300.8,551.5h8.3v2.1h-10.5v-19h2.2V551.5z"/>
	<path d="M314.8,551.5h8.3v2.1h-10.5v-19h2.2V551.5z"/>
	<path d="M338.9,548.8h-10.3l-2.1,4.8h-2.3l8.5-19h2.2l8.5,19H341L338.9,548.8z M338,546.7l-4.3-9.6l-4.2,9.6H338z"/>
	<path d="M362.1,553.6h-2.2l-11.4-15.2v15.2h-2.2v-19h2.2l11.4,15.2v-15.2h2.1V553.6z"/>
	<path d="M375.9,534.6c1.3,0,2.5,0.2,3.7,0.7c1.2,0.5,2.3,1.2,3.2,2l-1.3,1.7c-1.6-1.6-3.4-2.4-5.6-2.4c-2.1,0-4,0.7-5.5,2.2
		c-1.5,1.5-2.2,3.2-2.2,5.3c0,2.1,0.8,3.8,2.3,5.3c1.5,1.5,3.3,2.2,5.5,2.2c2.1,0,4-0.8,5.6-2.3l1.3,1.5c-2.1,1.9-4.4,2.9-7,2.9
		c-2.7,0-5-0.9-6.9-2.8c-1.9-1.9-2.9-4.1-2.9-6.8c0-2.7,1-4.9,2.9-6.7C370.9,535.5,373.2,534.6,375.9,534.6z"/>
	<path d="M399.7,536.7H389v6.2h9.6v2.1H389v6.5h11v2.1h-13.2v-19h12.9V536.7z"/>
	<path d="M204.1,558.9c2.3,0,4.3,0.6,6,1.8l-0.9,2c-1.6-1.1-3.3-1.6-5.2-1.6c-1.2,0-2.2,0.2-2.9,0.7c-0.7,0.4-1.1,1.1-1.1,1.9
		c0,0.8,0.3,1.4,0.8,1.9c0.5,0.5,1.2,0.9,2,1.1c0.8,0.2,1.7,0.5,2.6,0.8c0.9,0.3,1.8,0.6,2.6,1c0.8,0.3,1.4,0.9,2,1.6
		c0.5,0.7,0.8,1.7,0.8,2.7c0,1.6-0.6,2.8-1.9,3.8c-1.3,0.9-2.9,1.4-5,1.4c-1.4,0-2.7-0.3-4-0.8c-1.3-0.5-2.4-1.2-3.3-2.1l1-1.9
		c0.9,0.8,1.9,1.5,3,2c1.1,0.5,2.2,0.7,3.3,0.7c1.4,0,2.5-0.3,3.2-0.8c0.8-0.5,1.2-1.2,1.2-2.1c0-0.7-0.2-1.2-0.6-1.7
		c-0.4-0.5-0.9-0.8-1.5-1.1c-0.6-0.3-1.3-0.5-2.1-0.7c-0.8-0.2-1.5-0.5-2.3-0.7c-0.8-0.3-1.5-0.6-2.1-0.9c-0.6-0.4-1.1-0.9-1.5-1.5
		c-0.4-0.7-0.6-1.4-0.6-2.4c0-1.5,0.6-2.7,1.8-3.6C200.6,559.4,202.1,558.9,204.1,558.9z"/>
	<path d="M228.4,561.1h-10.7v6.2h9.6v2.1h-9.6v6.5h11v2.1h-13.2v-19h12.9V561.1z"/>
	<path d="M235.8,575.9h8.3v2.1h-10.5v-19h2.2V575.9z"/>
	<path d="M260.2,561.1h-9.9v6.7h8.9v2.1h-8.9v8.1h-2.2v-19h12V561.1z"/>
	<path d="M269.1,570.5h-6.4V569h6.4V570.5z"/>
	<path d="M274.1,559h7.7c2.8,0,5.1,0.9,6.9,2.7c1.9,1.8,2.8,4.1,2.8,6.8c0,2.7-0.9,4.9-2.8,6.8c-1.9,1.8-4.2,2.7-7,2.7h-7.6V559z
		 M276.3,561.1v14.8h5.5c2.1,0,3.9-0.7,5.4-2.1c1.4-1.4,2.2-3.2,2.2-5.3c0-2.1-0.7-3.9-2.2-5.3c-1.5-1.4-3.3-2.1-5.4-2.1H276.3z"/>
	<path d="M308.9,561.1h-10.7v6.2h9.6v2.1h-9.6v6.5h11v2.1H296v-19h12.9V561.1z"/>
	<path d="M326.2,561.1h-9.9v6.7h8.9v2.1h-8.9v8.1h-2.2v-19h12V561.1z"/>
	<path d="M342.7,561.1H332v6.2h9.6v2.1H332v6.5h11v2.1h-13.2v-19h12.9V561.1z"/>
	<path d="M363.7,578h-2.2l-11.4-15.2V578h-2.2v-19h2.2l11.4,15.2V559h2.1V578z"/>
	<path d="M375.6,558.9c2.3,0,4.3,0.6,6,1.8l-0.9,2c-1.6-1.1-3.3-1.6-5.2-1.6c-1.2,0-2.2,0.2-2.9,0.7c-0.7,0.4-1.1,1.1-1.1,1.9
		c0,0.8,0.3,1.4,0.8,1.9c0.5,0.5,1.2,0.9,2,1.1c0.8,0.2,1.7,0.5,2.6,0.8c0.9,0.3,1.8,0.6,2.6,1c0.8,0.3,1.4,0.9,2,1.6
		c0.5,0.7,0.8,1.7,0.8,2.7c0,1.6-0.6,2.8-1.9,3.8c-1.3,0.9-2.9,1.4-5,1.4c-1.4,0-2.7-0.3-4-0.8c-1.3-0.5-2.4-1.2-3.3-2.1l1-1.9
		c0.9,0.8,1.9,1.5,3,2c1.1,0.5,2.2,0.7,3.3,0.7c1.4,0,2.5-0.3,3.2-0.8c0.8-0.5,1.2-1.2,1.2-2.1c0-0.7-0.2-1.2-0.6-1.7
		c-0.4-0.5-0.9-0.8-1.5-1.1c-0.6-0.3-1.3-0.5-2.1-0.7c-0.8-0.2-1.5-0.5-2.3-0.7c-0.8-0.3-1.5-0.6-2.1-0.9c-0.6-0.4-1.1-0.9-1.5-1.5
		c-0.4-0.7-0.6-1.4-0.6-2.4c0-1.5,0.6-2.7,1.8-3.6C372,559.4,373.6,558.9,375.6,558.9z"/>
	<path d="M399.8,561.1h-10.7v6.2h9.6v2.1h-9.6v6.5h11v2.1H387v-19h12.9V561.1z"/>
</g>
<g>
	<path class="st1" d="M247.9,732.9c1.4,0,2.6,0.3,3.6,1l-0.6,1.3c-1-0.6-2-0.9-3-0.9c-0.7,0-1.2,0.1-1.6,0.4
		c-0.4,0.2-0.6,0.6-0.6,1.1c0,0.5,0.2,0.8,0.6,1.1c0.4,0.3,1,0.5,1.6,0.7c0.6,0.2,1.2,0.4,1.8,0.6c0.6,0.2,1.1,0.6,1.6,1.1
		c0.4,0.5,0.6,1.1,0.6,1.8c0,1-0.4,1.8-1.2,2.4c-0.8,0.5-1.8,0.8-2.9,0.8c-1.8,0-3.2-0.5-4.3-1.6l0.6-1.3c0.5,0.4,1,0.8,1.7,1
		c0.7,0.3,1.3,0.4,2,0.4c0.7,0,1.3-0.1,1.7-0.4c0.4-0.3,0.7-0.7,0.7-1.2c0-0.5-0.2-0.9-0.6-1.2c-0.4-0.3-0.9-0.5-1.6-0.7
		c-0.6-0.2-1.2-0.4-1.8-0.6c-0.6-0.2-1.1-0.5-1.6-1c-0.4-0.5-0.6-1.1-0.6-1.8c0-1,0.4-1.8,1.1-2.3
		C245.8,733.1,246.8,732.9,247.9,732.9z"/>
	<path class="st1" d="M257.9,732.9c1.4,0,2.6,0.3,3.6,1l-0.6,1.3c-1-0.6-2-0.9-3-0.9c-0.7,0-1.2,0.1-1.6,0.4
		c-0.4,0.2-0.6,0.6-0.6,1.1c0,0.5,0.2,0.8,0.6,1.1c0.4,0.3,1,0.5,1.6,0.7c0.6,0.2,1.2,0.4,1.8,0.6c0.6,0.2,1.1,0.6,1.6,1.1
		c0.4,0.5,0.6,1.1,0.6,1.8c0,1-0.4,1.8-1.2,2.4c-0.8,0.5-1.8,0.8-2.9,0.8c-1.8,0-3.2-0.5-4.3-1.6l0.6-1.3c0.5,0.4,1,0.8,1.7,1
		c0.7,0.3,1.3,0.4,2,0.4c0.7,0,1.3-0.1,1.7-0.4c0.4-0.3,0.7-0.7,0.7-1.2c0-0.5-0.2-0.9-0.6-1.2c-0.4-0.3-0.9-0.5-1.6-0.7
		c-0.6-0.2-1.2-0.4-1.8-0.6c-0.6-0.2-1.1-0.5-1.6-1c-0.4-0.5-0.6-1.1-0.6-1.8c0-1,0.4-1.8,1.1-2.3
		C255.8,733.1,256.8,732.9,257.9,732.9z"/>
	<path class="st1" d="M275.2,728.4v15.8h-1.7v-2.4c-0.9,1.7-2.3,2.5-4.4,2.5c-1.6,0-2.9-0.5-3.9-1.6c-1-1.1-1.5-2.4-1.5-4.1
		c0-1.7,0.5-3,1.5-4.1c1-1.1,2.3-1.6,3.9-1.6c1,0,1.9,0.2,2.6,0.6c0.8,0.4,1.3,1.1,1.8,1.9v-7H275.2z M269.5,742.7
		c1.2,0,2.1-0.4,2.9-1.2c0.8-0.8,1.1-1.8,1.1-3c0-1.2-0.4-2.2-1.1-3c-0.8-0.8-1.7-1.2-2.9-1.2c-1.2,0-2.2,0.4-2.9,1.2
		c-0.8,0.8-1.1,1.8-1.1,3c0,1.2,0.4,2.2,1.1,3C267.3,742.3,268.3,742.7,269.5,742.7z"/>
	<path class="st1" d="M279.8,742.1c0.3,0,0.5,0.1,0.7,0.3c0.2,0.2,0.3,0.5,0.3,0.8c0,0.3-0.1,0.6-0.3,0.8c-0.2,0.2-0.4,0.3-0.7,0.3
		c-0.3,0-0.5-0.1-0.7-0.3c-0.2-0.2-0.3-0.5-0.3-0.8c0-0.3,0.1-0.6,0.3-0.8C279.3,742.2,279.5,742.1,279.8,742.1z"/>
	<path class="st1" d="M288.7,732.9c1.8,0,3.1,0.5,4,1.7c0.9,1.1,1.3,2.7,1.2,4.6h-9.1c0.1,1.1,0.6,2,1.3,2.6c0.7,0.6,1.6,1,2.7,1
		c1.4,0,2.6-0.5,3.5-1.4l0.9,1c-1.1,1.2-2.6,1.9-4.5,1.9c-1.6,0-3-0.5-4-1.6c-1-1-1.6-2.4-1.6-4.1c0-1.7,0.5-3,1.6-4.1
		C285.8,733.4,287.1,732.9,288.7,732.9z M284.8,737.8h7.6c-0.1-1.1-0.4-1.9-1.1-2.6c-0.7-0.6-1.6-0.9-2.6-0.9c-1.1,0-1.9,0.3-2.7,1
		C285.4,735.9,285,736.8,284.8,737.8z"/>
	<path class="st1" d="M301.1,729.8c-0.6,0-1,0.2-1.4,0.5c-0.4,0.4-0.6,0.8-0.6,1.5v1.4h3.2v1.4h-3.2v9.5h-1.6v-9.5H296v-1.4h1.4
		v-1.2c0-1.2,0.4-2.1,1.1-2.8c0.7-0.7,1.5-1,2.5-1c0.9,0,1.7,0.3,2.4,0.8l-0.7,1.3C302.2,730,301.7,729.8,301.1,729.8z"/>
	<path class="st1" d="M308.5,729.8c-0.6,0-1,0.2-1.4,0.5c-0.4,0.4-0.6,0.8-0.6,1.5v1.4h3.2v1.4h-3.2v9.5h-1.6v-9.5h-1.4v-1.4h1.4
		v-1.2c0-1.2,0.4-2.1,1.1-2.8c0.7-0.7,1.5-1,2.5-1c0.9,0,1.7,0.3,2.4,0.8l-0.7,1.3C309.7,730,309.1,729.8,308.5,729.8z"/>
	<path class="st1" d="M312.2,742.1c0.3,0,0.5,0.1,0.7,0.3c0.2,0.2,0.3,0.5,0.3,0.8c0,0.3-0.1,0.6-0.3,0.8c-0.2,0.2-0.4,0.3-0.7,0.3
		c-0.3,0-0.5-0.1-0.7-0.3c-0.2-0.2-0.3-0.5-0.3-0.8c0-0.3,0.1-0.6,0.3-0.8C311.7,742.2,311.9,742.1,312.2,742.1z"/>
	<path class="st1" d="M317.2,734.5c1.1-1,2.4-1.6,4.1-1.6c1.7,0,3,0.5,4.1,1.6c1.1,1,1.6,2.4,1.6,4.1c0,1.7-0.5,3-1.6,4.1
		c-1.1,1.1-2.4,1.6-4.1,1.6c-1.7,0-3-0.5-4.1-1.6c-1.1-1.1-1.6-2.4-1.6-4.1C315.6,736.9,316.1,735.5,317.2,734.5z M324.2,735.6
		c-0.8-0.8-1.7-1.2-2.9-1.2c-1.2,0-2.1,0.4-2.9,1.2c-0.8,0.8-1.1,1.8-1.1,3c0,1.2,0.4,2.2,1.1,3c0.8,0.8,1.7,1.2,2.9,1.2
		c1.2,0,2.1-0.4,2.9-1.2c0.8-0.8,1.1-1.8,1.1-3C325.3,737.3,324.9,736.3,324.2,735.6z"/>
	<path class="st1" d="M331.9,732.9v2.5c0.8-1.7,2.1-2.5,4-2.5v1.7c-1.2,0-2.1,0.3-2.8,1c-0.7,0.7-1.1,1.5-1.2,2.7v5.9h-1.7v-11.2
		H331.9z"/>
	<path class="st1" d="M348.3,732.9v10c0,1.6-0.5,2.9-1.5,3.9c-1,1-2.4,1.4-4.1,1.4c-1.7,0-3.2-0.6-4.6-1.6l0.8-1.3
		c1.1,0.9,2.4,1.4,3.8,1.4c1.2,0,2.2-0.3,2.9-1c0.7-0.7,1.1-1.6,1.1-2.8v-1.7c-0.8,1.6-2.2,2.3-4.1,2.3c-1.5,0-2.7-0.5-3.7-1.5
		c-0.9-1-1.4-2.3-1.4-3.9c0-1.6,0.5-2.8,1.4-3.8c0.9-1,2.2-1.5,3.7-1.5c1.9,0,3.3,0.8,4.2,2.3v-2.3H348.3z M340,741.1
		c0.7,0.7,1.6,1.1,2.8,1.1c1.1,0,2-0.4,2.8-1.1c0.7-0.7,1.1-1.7,1.1-2.8c0-1.2-0.4-2.1-1.1-2.9c-0.7-0.7-1.6-1.1-2.8-1.1
		c-1.1,0-2,0.4-2.8,1.1c-0.7,0.7-1.1,1.7-1.1,2.9C339,739.4,339.3,740.4,340,741.1z"/>
</g>
<path id="XMLID_6_" class="st12" d="M296.1,689.9c0,16.1-13,29.1-29.1,29.1s-29.1-13-29.1-29.1c0-16.1,13-29.1,29.1-29.1"/>
<path id="XMLID_5_" class="st11" d="M300,689.9c0,18.2-14.8,33-33,33s-33-14.8-33-33s14.8-33,33-33"/>
<g id="XMLID_1_">
	<g id="XMLID_18_">
		<path id="XMLID_19_" class="st1" d="M334.9,482.9c0-3.7-4.4-6.6-9.8-6.6c-5.4,0-9.8,3-9.8,6.6c0,3,2.9,5.5,6.9,6.3v15.3l3.6,6h1.1
			v-3.4l3.3-3.5l-3.3-3.3v-0.1l1.9-2l-1.9-1.9v-7C331.4,488.9,334.9,486.2,334.9,482.9z M325.1,479.6c1.3,0,2.4,1.1,2.4,2.4
			c0,1.3-1.1,2.4-2.4,2.4s-2.4-1.1-2.4-2.4C322.7,480.7,323.7,479.6,325.1,479.6z"/>
	</g>
	<g id="XMLID_14_">
		<path id="XMLID_15_" class="st1" d="M275.1,487.5v-5.3c0-4.5-3.6-8.1-8.1-8.1c-4.5,0-8.1,3.6-8.1,8.1v5.3h-3.1v17.8h22.5v-17.8
			H275.1z M261.7,482.2c0-2.9,2.4-5.3,5.3-5.3c2.9,0,5.3,2.4,5.3,5.3v5.3h-10.6V482.2z"/>
	</g>
	<g id="XMLID_00000167360955259296475120000008886402622252185221_">
		<path id="XMLID_43_" class="st13" d="M266.9,523c-17.4,0-31.5-14.1-31.5-31.5c0-17.4,14.1-31.5,31.5-31.5s31.5,14.1,31.5,31.5
			C298.5,508.9,284.3,523,266.9,523z M266.9,464.7c-14.7,0-26.7,12-26.7,26.7c0,14.7,12,26.7,26.7,26.7c14.7,0,26.7-12,26.7-26.7
			C293.7,476.7,281.7,464.7,266.9,464.7z"/>
		<path id="XMLID_37_" class="st1" d="M266.9,526.6c-19.4,0-35.1-15.7-35.1-35.1c0-19.4,15.7-35.1,35.1-35.1
			c19.4,0,35.1,15.7,35.1,35.1C302,510.8,286.3,526.6,266.9,526.6z M266.9,460.5c-17.1,0-30.9,13.9-30.9,30.9s13.9,30.9,30.9,30.9
			s30.9-13.9,30.9-30.9S284,460.5,266.9,460.5z"/>
		<path id="XMLID_00000034077031139256322290000009655540201218740927_" class="st1" d="M266.9,518.9c-15.1,0-27.4-12.3-27.4-27.4
			c0-15.1,12.3-27.4,27.4-27.4c15.1,0,27.4,12.3,27.4,27.4C294.3,506.6,282.1,518.9,266.9,518.9z M266.9,468.2
			c-12.8,0-23.2,10.4-23.2,23.2s10.4,23.2,23.2,23.2s23.2-10.4,23.2-23.2S279.8,468.2,266.9,468.2z"/>
	</g>
	<g id="XMLID_00000024698496675782461850000009430649093137629355_">
		<path id="XMLID_34_" class="st13" d="M325.4,523c-17.4,0-31.5-14.1-31.5-31.5c0-17.4,14.1-31.5,31.5-31.5
			c17.4,0,31.5,14.1,31.5,31.5C357,508.9,342.8,523,325.4,523z M325.4,464.7c-14.7,0-26.7,12-26.7,26.7c0,14.7,12,26.7,26.7,26.7
			c14.7,0,26.7-12,26.7-26.7C352.2,476.7,340.2,464.7,325.4,464.7z"/>
		<path id="XMLID_33_" class="st1" d="M325.4,526.6c-19.4,0-35.1-15.7-35.1-35.1c0-19.4,15.7-35.1,35.1-35.1
			c19.4,0,35.1,15.7,35.1,35.1C360.5,510.8,344.8,526.6,325.4,526.6z M325.4,460.5c-17.1,0-31.2,13.9-31.2,30.9s14.1,30.9,31.2,30.9
			s30.9-13.9,30.9-30.9S342.5,460.5,325.4,460.5z"/>
		<path id="XMLID_00000007412521602552450600000002371905900164175014_" class="st1" d="M325.4,518.9c-15.1,0-27.6-12.3-27.6-27.4
			c0-15.1,12.4-27.4,27.6-27.4c15.1,0,27.4,12.3,27.4,27.4C352.8,506.6,340.5,518.9,325.4,518.9z M325.4,468.2
			c-12.8,0-23.2,10.4-23.2,23.2s10.4,23.2,23.2,23.2c12.8,0,23.2-10.4,23.2-23.2S338.3,468.2,325.4,468.2z"/>
	</g>
	<path id="XMLID_7_" class="st13" d="M266.9,522.5c-17.1,0-31-13.9-31-31c0-17.1,13.9-31,31-31v3.7c-15.1,0-27.3,12.2-27.3,27.3
		c0,15.1,12.2,27.3,27.3,27.3c15.1,0,27.3-12.2,27.3-27.3h3.7C297.9,508.6,284,522.5,266.9,522.5z"/>
	<path id="XMLID_8_" class="st1" d="M266.9,526.6c-19.4,0-35.1-15.7-35.1-35.1c0-19.4,15.7-35.1,35.1-35.1v4.2
		c-17.1,0-30.9,13.9-30.9,30.9s13.9,30.9,30.9,30.9s30.9-13.9,30.9-30.9h4.2C302,510.8,286.3,526.6,266.9,526.6z"/>
</g>
</svg>
