<?xml version="1.0" encoding="utf-8"?>
<!-- Generator: Adobe Illustrator 25.4.1, SVG Export Plug-In . SVG Version: 6.00 Build 0)  -->
<svg version="1.1" id="Layer_1" xmlns="http://www.w3.org/2000/svg" xmlns:xlink="http://www.w3.org/1999/xlink" x="0px" y="0px"
	 viewBox="0 0 612 792" style="enable-background:new 0 0 612 792;" xml:space="preserve">
<style type="text/css">
	.st0{fill:#C7DDDB;}
	.st1{fill:#FFFFFF;}
	.st2{fill:none;stroke:#87C4C6;stroke-width:5.1968;stroke-miterlimit:10;}
	.st3{fill:#87C4C6;}
	.st4{fill:#518C91;}
	.st5{fill:none;stroke:#87C4C6;stroke-width:4.1687;stroke-miterlimit:10;}
	.st6{fill:none;stroke:#87C4C6;stroke-width:9.2308;stroke-miterlimit:10;}
	.st7{fill:none;stroke:#518C91;stroke-width:8.0213;stroke-miterlimit:10;}
</style>
<rect id="XMLID_72_" x="69" y="82.5" class="st0" width="474.4" height="164.9"/>
<g id="XMLID_2_">
	<circle id="XMLID_20_" class="st1" cx="296.5" cy="139.6" r="35.6"/>
	<circle id="XMLID_64_" class="st2" cx="296.4" cy="139.6" r="28.6"/>
	<g id="XMLID_75_">
		<g id="XMLID_79_">
			<g id="XMLID_89_">
				
					<rect id="XMLID_95_" x="283" y="138.3" transform="matrix(0.7071 -0.7071 0.7071 0.7071 -13.8069 251.3866)" class="st3" width="27.1" height="8"/>
				<path id="XMLID_94_" class="st4" d="M283.4,152.3l-1,4.2l4.3-1C285.7,154.3,284.5,153.3,283.4,152.3z"/>
				<path id="XMLID_92_" class="st3" d="M284.1,149.1l-0.7,3.1c1.1,1,2.3,2,3.4,3.2l3-0.7L284.1,149.1z"/>
				<path id="XMLID_91_" class="st3" d="M311.3,133.2l2.7-2.7c0.6-0.6,0.6-1.5,0-2l-3.7-3.7c-0.6-0.6-1.5-0.6-2,0l-2.7,2.7
					L311.3,133.2z"/>
			</g>
			<g id="XMLID_80_">
				<path id="XMLID_84_" class="st4" d="M293.3,125.6c-2-1.7-5.2-1.4-8.2,0.6c-1.5-1.4-3.9-1.2-5.2,0.3c-1.4,1.5-1.2,3.9,0.3,5.2
					c-1.6,3.2-1.6,6.4,0.4,8.2c2.3,2.1,6.5,1.2,9.9-2l10.7,9.4l-1.7,1.9l1.9,1.7l1.7-1.9l1.3,1.1l-3.1,3.5l3.9,3.4l3.2-3.6l0,0
					l1.9-2.1l-17.8-15.6C295.3,131.9,295.6,127.7,293.3,125.6z M283.8,127.8c0.7,0.6,0.7,1.6,0.1,2.3c-0.6,0.7-1.6,0.7-2.3,0.1
					c-0.7-0.6-0.7-1.6-0.1-2.3C282,127.2,283.1,127.2,283.8,127.8z M289.6,135.1c-2.7,3.1-6,3.9-7.2,2.8c-0.9-0.8-0.9-3,0.3-5.3
					c1,0,2-0.4,2.7-1.2c0.7-0.8,1-1.9,0.9-2.9c2.1-1.5,4.2-1.8,5.2-1C292.8,128.7,292.3,132.1,289.6,135.1z"/>
			</g>
		</g>
		
			<rect id="XMLID_77_" x="305.5" y="127.2" transform="matrix(0.7071 -0.7071 0.7071 0.7071 -2.6756 255.9981)" class="st4" width="4.4" height="8"/>
	</g>
</g>
<g>
	<path d="M121.8,187.9c1.7,0,3.1,0.4,4.4,1.3l-0.7,1.5c-1.2-0.8-2.5-1.2-3.9-1.2c-0.9,0-1.6,0.2-2.2,0.5c-0.5,0.3-0.8,0.8-0.8,1.4
		c0,0.6,0.2,1,0.6,1.4c0.4,0.4,0.9,0.7,1.5,0.8c0.6,0.2,1.2,0.4,1.9,0.6c0.7,0.2,1.3,0.5,1.9,0.7c0.6,0.3,1.1,0.7,1.5,1.2
		c0.4,0.6,0.6,1.2,0.6,2c0,1.2-0.5,2.1-1.4,2.8c-0.9,0.7-2.2,1.1-3.7,1.1c-1,0-2-0.2-2.9-0.6c-0.9-0.4-1.8-0.9-2.4-1.6l0.7-1.4
		c0.6,0.6,1.4,1.1,2.2,1.5c0.8,0.3,1.7,0.5,2.5,0.5c1,0,1.8-0.2,2.4-0.6c0.6-0.4,0.9-0.9,0.9-1.6c0-0.5-0.1-0.9-0.4-1.3
		c-0.3-0.3-0.7-0.6-1.1-0.8c-0.5-0.2-1-0.4-1.5-0.5c-0.6-0.2-1.1-0.3-1.7-0.5c-0.6-0.2-1.1-0.4-1.5-0.7s-0.8-0.7-1.1-1.1
		c-0.3-0.5-0.4-1.1-0.4-1.8c0-1.1,0.4-2,1.3-2.6C119.2,188.2,120.3,187.9,121.8,187.9z"/>
	<path d="M139.3,189.5h-7.9v4.6h7.1v1.5h-7.1v4.8h8.2v1.5h-9.8v-14h9.5V189.5z"/>
	<path d="M148.8,187.9c0.9,0,1.9,0.2,2.8,0.5s1.7,0.9,2.4,1.5l-1,1.2c-1.1-1.2-2.5-1.8-4.1-1.8c-1.6,0-2.9,0.5-4,1.6
		c-1.1,1.1-1.7,2.4-1.7,3.9c0,1.5,0.6,2.8,1.7,3.9s2.5,1.6,4,1.6c1.6,0,3-0.6,4.1-1.7l1,1.1c-1.5,1.4-3.3,2.2-5.2,2.2
		c-2,0-3.7-0.7-5.1-2.1c-1.4-1.4-2.1-3.1-2.1-5c0-2,0.7-3.6,2.1-5C145.1,188.6,146.8,187.9,148.8,187.9z"/>
	<path d="M168.3,187.9v8.2c0,1.8-0.5,3.3-1.6,4.3c-1,1-2.5,1.6-4.3,1.6c-1.8,0-3.3-0.5-4.3-1.6c-1-1-1.6-2.5-1.6-4.3v-8.2h1.6v8.2
		c0,1.3,0.4,2.4,1.1,3.2c0.8,0.8,1.8,1.1,3.2,1.1c1.3,0,2.4-0.4,3.1-1.1c0.8-0.8,1.1-1.8,1.1-3.2v-8.2H168.3z"/>
	<path d="M181.4,201.9l-2.9-4.5c-0.4,0-0.7,0-0.9,0h-3.7v4.4h-1.6v-14h5.3c1.7,0,3.1,0.4,4.1,1.2s1.5,2,1.5,3.5
		c0,1.1-0.3,2.1-0.8,2.9s-1.3,1.3-2.3,1.7l3.3,4.8H181.4z M173.8,196h3.7c1.3,0,2.3-0.3,3-0.8c0.7-0.6,1-1.4,1-2.5
		c0-1.1-0.3-1.9-1-2.4c-0.7-0.5-1.7-0.8-3-0.8h-3.7V196z"/>
	<path d="M188.3,201.9h-1.6v-14h1.6V201.9z"/>
	<path d="M201.4,189.5h-4.6v12.5h-1.6v-12.5h-4.6v-1.5h10.7V189.5z"/>
	<path d="M208.6,197.1v4.8h-1.6v-4.7l-5.4-9.3h1.7l4.5,7.3l4.5-7.3h1.6L208.6,197.1z"/>
	<path d="M231.2,189.5h-7.9v4.6h7.1v1.5h-7.1v4.8h8.2v1.5h-9.8v-14h9.5V189.5z"/>
	<path d="M234.7,187.9h5.7c2,0,3.8,0.7,5.1,2c1.4,1.3,2.1,3,2.1,5c0,2-0.7,3.6-2.1,5c-1.4,1.3-3.1,2-5.2,2h-5.6V187.9z M236.3,189.5
		v10.9h4.1c1.6,0,2.9-0.5,4-1.6c1.1-1,1.6-2.3,1.6-3.9s-0.5-2.9-1.6-3.9c-1.1-1-2.4-1.6-4-1.6H236.3z"/>
	<path d="M261.9,187.9v8.2c0,1.8-0.5,3.3-1.6,4.3c-1,1-2.5,1.6-4.3,1.6c-1.8,0-3.3-0.5-4.3-1.6c-1-1-1.6-2.5-1.6-4.3v-8.2h1.6v8.2
		c0,1.3,0.4,2.4,1.1,3.2c0.8,0.8,1.8,1.1,3.2,1.1c1.3,0,2.4-0.4,3.1-1.1c0.8-0.8,1.1-1.8,1.1-3.2v-8.2H261.9z"/>
	<path d="M271.8,187.9c0.9,0,1.9,0.2,2.8,0.5s1.7,0.9,2.4,1.5l-1,1.2c-1.1-1.2-2.5-1.8-4.1-1.8c-1.6,0-2.9,0.5-4,1.6
		c-1.1,1.1-1.7,2.4-1.7,3.9c0,1.5,0.6,2.8,1.7,3.9s2.5,1.6,4,1.6c1.6,0,3-0.6,4.1-1.7l1,1.1c-1.5,1.4-3.3,2.2-5.2,2.2
		c-2,0-3.7-0.7-5.1-2.1c-1.4-1.4-2.1-3.1-2.1-5c0-2,0.7-3.6,2.1-5C268.1,188.6,269.8,187.9,271.8,187.9z"/>
	<path d="M288.6,198.4H281l-1.6,3.5h-1.7l6.3-14h1.7l6.3,14h-1.7L288.6,198.4z M287.9,196.9l-3.2-7.1l-3.1,7.1H287.9z"/>
	<path d="M301.7,189.5h-4.6v12.5h-1.6v-12.5h-4.6v-1.5h10.7V189.5z"/>
	<path d="M305.6,201.9H304v-14h1.6V201.9z"/>
	<path d="M315.8,187.9c2,0,3.8,0.7,5.2,2s2.1,3,2.1,5c0,2-0.7,3.6-2.1,5c-1.4,1.4-3.1,2.1-5.2,2.1c-2.1,0-3.8-0.7-5.2-2.1
		c-1.4-1.4-2.1-3-2.1-5c0-2,0.7-3.6,2.1-5C312.1,188.6,313.8,187.9,315.8,187.9z M315.8,189.4c-1.6,0-2.9,0.5-4,1.6
		c-1.1,1.1-1.7,2.4-1.7,3.9s0.6,2.8,1.7,3.9s2.5,1.6,4,1.6c1.6,0,2.9-0.5,4-1.6s1.7-2.4,1.7-3.9s-0.6-2.8-1.7-3.9
		C318.7,190,317.4,189.4,315.8,189.4z"/>
	<path d="M337.7,201.9h-1.6l-8.4-11.2v11.2h-1.6v-14h1.7l8.4,11.3v-11.3h1.6V201.9z"/>
	<path d="M353.4,187.9c0.9,0,1.9,0.2,2.8,0.5c0.9,0.4,1.7,0.9,2.4,1.5l-1,1.2c-1.1-1.2-2.5-1.8-4.1-1.8c-1.6,0-2.9,0.5-4,1.6
		c-1.1,1.1-1.7,2.4-1.7,3.9c0,1.5,0.6,2.8,1.7,3.9s2.5,1.6,4,1.6s3-0.6,4.1-1.7l1,1.1c-1.5,1.4-3.3,2.2-5.2,2.2
		c-2,0-3.7-0.7-5.1-2.1c-1.4-1.4-2.1-3.1-2.1-5c0-2,0.7-3.6,2.1-5C349.7,188.6,351.4,187.9,353.4,187.9z"/>
	<path d="M367.1,187.9c2,0,3.8,0.7,5.2,2s2.1,3,2.1,5c0,2-0.7,3.6-2.1,5c-1.4,1.4-3.1,2.1-5.2,2.1c-2.1,0-3.8-0.7-5.2-2.1
		c-1.4-1.4-2.1-3-2.1-5c0-2,0.7-3.6,2.1-5C363.4,188.6,365.1,187.9,367.1,187.9z M367.1,189.4c-1.6,0-2.9,0.5-4,1.6
		c-1.1,1.1-1.7,2.4-1.7,3.9s0.6,2.8,1.7,3.9s2.5,1.6,4,1.6c1.6,0,2.9-0.5,4-1.6s1.7-2.4,1.7-3.9s-0.6-2.8-1.7-3.9
		C370,190,368.7,189.4,367.1,189.4z"/>
	<path d="M391.5,201.9h-1.5l0-11.5l-5.1,10.1h-1l-5.1-10.1v11.5h-1.5v-14h2l5.1,10.1l5.1-10.1h2V201.9z"/>
	<path d="M395.8,187.9h5.3c1.7,0,3.1,0.4,4,1.2c1,0.8,1.4,2,1.4,3.5c0,1.5-0.5,2.7-1.4,3.6c-1,0.9-2.3,1.3-4,1.3h-3.7v4.4h-1.6
		V187.9z M397.4,189.5v6.5h3.6c1.3,0,2.3-0.3,3-0.8c0.7-0.6,1-1.4,1-2.5c0-1.1-0.3-1.9-1-2.4s-1.7-0.8-3-0.8H397.4z"/>
	<path d="M417.3,198.4h-7.6l-1.6,3.5h-1.7l6.3-14h1.7l6.3,14h-1.7L417.3,198.4z M416.6,196.9l-3.2-7.1l-3.1,7.1H416.6z"/>
	<path d="M434.4,201.9h-1.6l-8.4-11.2v11.2h-1.6v-14h1.7l8.4,11.3v-11.3h1.6V201.9z"/>
	<path d="M440.3,201.9h-1.6v-14h1.6V201.9z"/>
	<path d="M450.5,187.9c2,0,3.8,0.7,5.2,2s2.1,3,2.1,5c0,2-0.7,3.6-2.1,5c-1.4,1.4-3.1,2.1-5.2,2.1c-2.1,0-3.8-0.7-5.2-2.1
		c-1.4-1.4-2.1-3-2.1-5c0-2,0.7-3.6,2.1-5C446.7,188.6,448.5,187.9,450.5,187.9z M450.5,189.4c-1.6,0-2.9,0.5-4,1.6
		c-1.1,1.1-1.7,2.4-1.7,3.9s0.6,2.8,1.7,3.9s2.5,1.6,4,1.6c1.6,0,2.9-0.5,4-1.6s1.7-2.4,1.7-3.9s-0.6-2.8-1.7-3.9
		C453.4,190,452.1,189.4,450.5,189.4z"/>
	<path d="M472.4,201.9h-1.6l-8.4-11.2v11.2h-1.6v-14h1.7l8.4,11.3v-11.3h1.6V201.9z"/>
</g>
<rect id="XMLID_00000155116116921950240540000015798375924611023511_" x="69" y="283.7" class="st0" width="474.4" height="96.5"/>
<g id="XMLID_00000052784336018964621990000014047732474598085778_">
	<circle id="XMLID_00000176747040095690244230000001379044533776718467_" class="st1" cx="114.4" cy="330.5" r="28.5"/>
	<circle id="XMLID_00000157266172061982965180000017263989054244124589_" class="st5" cx="114.3" cy="330.5" r="23"/>
	<g id="XMLID_00000159440022938539310370000008726403033780449718_">
		<g id="XMLID_00000012461399465309464520000002455856914632156038_">
			<g id="XMLID_00000107571752042376282060000014954283560317644706_">
				
					<rect id="XMLID_00000136382974414203373920000000089753665397757107_" x="103.6" y="329.6" transform="matrix(0.7071 -0.7071 0.7071 0.7071 -201.7824 178.4174)" class="st3" width="21.8" height="6.4"/>
				<path id="XMLID_00000069358195352399711760000014531212068607454374_" class="st4" d="M103.9,340.7l-0.8,3.3l3.5-0.8
					C105.8,342.3,104.8,341.5,103.9,340.7z"/>
				<path id="XMLID_00000034052635205245900750000017865476843966012569_" class="st3" d="M104.5,338.2l-0.6,2.5
					c0.8,0.8,1.8,1.6,2.7,2.5l2.4-0.5L104.5,338.2z"/>
				<path id="XMLID_00000065765485414114787070000009326121261219567499_" class="st3" d="M126.4,325.5l2.2-2.2
					c0.4-0.4,0.4-1.2,0-1.6l-2.9-2.9c-0.4-0.4-1.2-0.4-1.6,0l-2.2,2.2L126.4,325.5z"/>
			</g>
			<g id="XMLID_00000171689389022290324280000016676955268007664007_">
				<path id="XMLID_00000136399307772563327140000007759277979519187893_" class="st4" d="M111.9,319.4c-1.6-1.4-4.2-1.1-6.5,0.5
					c-1.2-1.1-3.1-1-4.2,0.3c-1.1,1.2-1,3.1,0.3,4.2c-1.3,2.6-1.3,5.2,0.3,6.6c1.9,1.7,5.2,0.9,8-1.6l8.6,7.5l-1.3,1.5l1.5,1.4
					l1.3-1.5l1,0.9l-2.5,2.8l3.1,2.7l2.6-2.9l0,0l1.5-1.7l-14.2-12.6C113.4,324.4,113.8,321,111.9,319.4z M104.2,321.1
					c0.5,0.5,0.6,1.3,0.1,1.8c-0.5,0.5-1.3,0.6-1.8,0.1c-0.5-0.5-0.6-1.3-0.1-1.8C102.8,320.6,103.7,320.6,104.2,321.1z M108.9,327
					c-2.2,2.5-4.8,3.2-5.8,2.3c-0.8-0.7-0.7-2.4,0.3-4.2c0.8,0,1.6-0.3,2.2-1c0.6-0.7,0.8-1.5,0.7-2.3c1.7-1.2,3.4-1.5,4.2-0.8
					C111.5,321.8,111.1,324.5,108.9,327z"/>
			</g>
		</g>
		
			<rect id="XMLID_00000060018473736316252950000007731655105972659357_" x="121.7" y="320.6" transform="matrix(0.7071 -0.7071 0.7071 0.7071 -192.854 182.1167)" class="st4" width="3.5" height="6.4"/>
	</g>
</g>
<g>
	<path d="M162.8,324.2c1.7,0,3.1,0.4,4.4,1.3l-0.7,1.5c-1.2-0.8-2.5-1.2-3.9-1.2c-0.9,0-1.6,0.2-2.2,0.5c-0.5,0.3-0.8,0.8-0.8,1.4
		c0,0.6,0.2,1,0.6,1.4c0.4,0.4,0.9,0.7,1.5,0.8c0.6,0.2,1.2,0.4,1.9,0.6c0.7,0.2,1.3,0.5,1.9,0.7c0.6,0.3,1.1,0.7,1.5,1.2
		c0.4,0.6,0.6,1.2,0.6,2c0,1.2-0.5,2.1-1.4,2.8c-0.9,0.7-2.2,1.1-3.7,1.1c-1,0-2-0.2-2.9-0.6c-0.9-0.4-1.8-0.9-2.4-1.6l0.7-1.4
		c0.6,0.6,1.4,1.1,2.2,1.5c0.8,0.3,1.7,0.5,2.5,0.5c1,0,1.8-0.2,2.4-0.6c0.6-0.4,0.9-0.9,0.9-1.6c0-0.5-0.1-0.9-0.4-1.3
		c-0.3-0.3-0.7-0.6-1.1-0.8c-0.5-0.2-1-0.4-1.5-0.5c-0.6-0.2-1.1-0.3-1.7-0.5c-0.6-0.2-1.1-0.4-1.5-0.7s-0.8-0.7-1.1-1.1
		c-0.3-0.5-0.4-1.1-0.4-1.8c0-1.1,0.4-2,1.3-2.6C160.2,324.5,161.3,324.2,162.8,324.2z"/>
	<path d="M180.4,325.8h-7.9v4.6h7.1v1.5h-7.1v4.8h8.2v1.5h-9.8v-14h9.5V325.8z"/>
	<path d="M189.9,324.2c0.9,0,1.9,0.2,2.8,0.5s1.7,0.9,2.4,1.5l-1,1.2c-1.1-1.2-2.5-1.8-4.1-1.8c-1.6,0-2.9,0.5-4,1.6
		c-1.1,1.1-1.7,2.4-1.7,3.9c0,1.5,0.6,2.8,1.7,3.9s2.5,1.6,4,1.6c1.6,0,3-0.6,4.1-1.7l1,1.1c-1.5,1.4-3.3,2.2-5.2,2.2
		c-2,0-3.7-0.7-5.1-2.1c-1.4-1.4-2.1-3.1-2.1-5c0-2,0.7-3.6,2.1-5C186.1,324.9,187.8,324.2,189.9,324.2z"/>
	<path d="M209.3,324.2v8.2c0,1.8-0.5,3.3-1.6,4.3c-1,1-2.5,1.6-4.3,1.6c-1.8,0-3.3-0.5-4.3-1.6c-1-1-1.6-2.5-1.6-4.3v-8.2h1.6v8.2
		c0,1.3,0.4,2.4,1.1,3.2c0.8,0.8,1.8,1.1,3.2,1.1c1.3,0,2.4-0.4,3.1-1.1c0.8-0.8,1.1-1.8,1.1-3.2v-8.2H209.3z"/>
	<path d="M222.4,338.2l-2.9-4.5c-0.4,0-0.7,0-0.9,0h-3.7v4.4h-1.6v-14h5.3c1.7,0,3.1,0.4,4.1,1.2s1.5,2,1.5,3.5
		c0,1.1-0.3,2.1-0.8,2.9s-1.3,1.3-2.3,1.7l3.3,4.8H222.4z M214.8,332.3h3.7c1.3,0,2.3-0.3,3-0.8c0.7-0.6,1-1.4,1-2.5
		c0-1.1-0.3-1.9-1-2.4c-0.7-0.5-1.7-0.8-3-0.8h-3.7V332.3z"/>
	<path d="M229.3,338.2h-1.6v-14h1.6V338.2z"/>
	<path d="M242.4,325.8h-4.6v12.5h-1.6v-12.5h-4.6v-1.5h10.7V325.8z"/>
	<path d="M249.7,333.4v4.8h-1.6v-4.7l-5.4-9.3h1.7l4.5,7.3l4.5-7.3h1.6L249.7,333.4z"/>
	<path d="M272.2,325.8h-7.9v4.6h7.1v1.5h-7.1v4.8h8.2v1.5h-9.8v-14h9.5V325.8z"/>
	<path d="M275.7,324.2h5.7c2,0,3.8,0.7,5.1,2c1.4,1.3,2.1,3,2.1,5c0,2-0.7,3.6-2.1,5c-1.4,1.3-3.1,2-5.2,2h-5.6V324.2z M277.3,325.8
		v10.9h4.1c1.6,0,2.9-0.5,4-1.6c1.1-1,1.6-2.3,1.6-3.9s-0.5-2.9-1.6-3.9c-1.1-1-2.4-1.6-4-1.6H277.3z"/>
	<path d="M302.9,324.2v8.2c0,1.8-0.5,3.3-1.6,4.3c-1,1-2.5,1.6-4.3,1.6c-1.8,0-3.3-0.5-4.3-1.6c-1-1-1.6-2.5-1.6-4.3v-8.2h1.6v8.2
		c0,1.3,0.4,2.4,1.1,3.2c0.8,0.8,1.8,1.1,3.2,1.1c1.3,0,2.4-0.4,3.1-1.1c0.8-0.8,1.1-1.8,1.1-3.2v-8.2H302.9z"/>
	<path d="M312.8,324.2c0.9,0,1.9,0.2,2.8,0.5c0.9,0.4,1.7,0.9,2.4,1.5l-1,1.2c-1.1-1.2-2.5-1.8-4.1-1.8c-1.6,0-2.9,0.5-4,1.6
		c-1.1,1.1-1.7,2.4-1.7,3.9c0,1.5,0.6,2.8,1.7,3.9s2.5,1.6,4,1.6c1.6,0,3-0.6,4.1-1.7l1,1.1c-1.5,1.4-3.3,2.2-5.2,2.2
		c-2,0-3.7-0.7-5.1-2.1c-1.4-1.4-2.1-3.1-2.1-5c0-2,0.7-3.6,2.1-5S310.8,324.2,312.8,324.2z"/>
	<path d="M329.6,334.7H322l-1.6,3.5h-1.7l6.3-14h1.7l6.3,14h-1.7L329.6,334.7z M329,333.1l-3.2-7.1l-3.1,7.1H329z"/>
	<path d="M342.7,325.8h-4.6v12.5h-1.6v-12.5h-4.6v-1.5h10.7V325.8z"/>
	<path d="M346.6,338.2H345v-14h1.6V338.2z"/>
	<path d="M356.9,324.2c2,0,3.8,0.7,5.2,2s2.1,3,2.1,5c0,2-0.7,3.6-2.1,5c-1.4,1.4-3.2,2.1-5.2,2.1c-2.1,0-3.8-0.7-5.2-2.1
		c-1.4-1.4-2.1-3-2.1-5c0-2,0.7-3.6,2.1-5S354.8,324.2,356.9,324.2z M356.9,325.7c-1.6,0-2.9,0.5-4,1.6c-1.1,1.1-1.7,2.4-1.7,3.9
		s0.6,2.8,1.7,3.9s2.5,1.6,4,1.6c1.6,0,2.9-0.5,4-1.6s1.7-2.4,1.7-3.9s-0.6-2.8-1.7-3.9C359.8,326.2,358.4,325.7,356.9,325.7z"/>
	<path d="M378.7,338.2h-1.6l-8.4-11.2v11.2h-1.6v-14h1.7l8.4,11.3v-11.3h1.6V338.2z"/>
	<path d="M394.5,324.2c0.9,0,1.9,0.2,2.8,0.5c0.9,0.4,1.7,0.9,2.4,1.5l-1,1.2c-1.1-1.2-2.5-1.8-4.1-1.8c-1.6,0-2.9,0.5-4,1.6
		c-1.1,1.1-1.7,2.4-1.7,3.9c0,1.5,0.6,2.8,1.7,3.9s2.5,1.6,4,1.6c1.6,0,3-0.6,4.1-1.7l1,1.1c-1.5,1.4-3.3,2.2-5.2,2.2
		c-2,0-3.7-0.7-5.1-2.1c-1.4-1.4-2.1-3.1-2.1-5c0-2,0.7-3.6,2.1-5S392.4,324.2,394.5,324.2z"/>
	<path d="M408.2,324.2c2,0,3.8,0.7,5.2,2s2.1,3,2.1,5c0,2-0.7,3.6-2.1,5c-1.4,1.4-3.2,2.1-5.2,2.1c-2.1,0-3.8-0.7-5.2-2.1
		c-1.4-1.4-2.1-3-2.1-5c0-2,0.7-3.6,2.1-5S406.1,324.2,408.2,324.2z M408.2,325.7c-1.6,0-2.9,0.5-4,1.6c-1.1,1.1-1.7,2.4-1.7,3.9
		s0.6,2.8,1.7,3.9s2.5,1.6,4,1.6c1.6,0,2.9-0.5,4-1.6s1.7-2.4,1.7-3.9s-0.6-2.8-1.7-3.9C411.1,326.2,409.7,325.7,408.2,325.7z"/>
	<path d="M432.6,338.2h-1.5l0-11.5l-5.1,10.1h-1l-5.1-10.1v11.5h-1.5v-14h2l5.1,10.1l5.1-10.1h2V338.2z"/>
	<path d="M436.8,324.2h5.3c1.7,0,3.1,0.4,4,1.2s1.4,2,1.4,3.5c0,1.5-0.5,2.7-1.4,3.6c-1,0.9-2.3,1.3-4,1.3h-3.7v4.4h-1.6V324.2z
		 M438.4,325.8v6.5h3.6c1.3,0,2.3-0.3,3-0.8c0.7-0.6,1-1.4,1-2.5c0-1.1-0.3-1.9-1-2.4c-0.7-0.5-1.7-0.8-3-0.8H438.4z"/>
	<path d="M458.3,334.7h-7.6l-1.6,3.5h-1.7l6.3-14h1.7l6.3,14h-1.7L458.3,334.7z M457.6,333.1l-3.2-7.1l-3.1,7.1H457.6z"/>
	<path d="M475.4,338.2h-1.6l-8.4-11.2v11.2h-1.6v-14h1.7l8.4,11.3v-11.3h1.6V338.2z"/>
	<path d="M481.3,338.2h-1.6v-14h1.6V338.2z"/>
	<path d="M491.5,324.2c2,0,3.8,0.7,5.2,2s2.1,3,2.1,5c0,2-0.7,3.6-2.1,5c-1.4,1.4-3.2,2.1-5.2,2.1c-2.1,0-3.8-0.7-5.2-2.1
		c-1.4-1.4-2.1-3-2.1-5c0-2,0.7-3.6,2.1-5S489.5,324.2,491.5,324.2z M491.5,325.7c-1.6,0-2.9,0.5-4,1.6c-1.1,1.1-1.7,2.4-1.7,3.9
		s0.6,2.8,1.7,3.9s2.5,1.6,4,1.6c1.6,0,2.9-0.5,4-1.6s1.7-2.4,1.7-3.9s-0.6-2.8-1.7-3.9C494.4,326.2,493.1,325.7,491.5,325.7z"/>
	<path d="M513.4,338.2h-1.6l-8.4-11.2v11.2h-1.6v-14h1.7l8.4,11.3v-11.3h1.6V338.2z"/>
</g>
<g id="XMLID_40_">
	<g id="XMLID_41_">
		<circle id="XMLID_44_" class="st6" cx="181.5" cy="525.5" r="56.2"/>
		<circle id="XMLID_43_" class="st7" cx="181.5" cy="525.5" r="63.7"/>
		<circle id="XMLID_42_" class="st7" cx="181.5" cy="525.5" r="48.9"/>
	</g>
</g>
<g>
	<path d="M268.3,484.8c2.5,0,4.8,0.7,6.7,2l-1,2.3c-1.8-1.2-3.7-1.8-5.8-1.8c-1.4,0-2.5,0.2-3.3,0.7c-0.8,0.5-1.2,1.2-1.2,2.1
		c0,0.8,0.3,1.6,0.9,2.1c0.6,0.6,1.3,1,2.2,1.3c0.9,0.3,1.8,0.6,2.9,0.9s2,0.7,2.9,1.1c0.9,0.4,1.6,1,2.2,1.8c0.6,0.8,0.9,1.8,0.9,3
		c0,1.8-0.7,3.2-2.1,4.2c-1.4,1.1-3.3,1.6-5.5,1.6c-1.5,0-3-0.3-4.4-0.9c-1.4-0.6-2.7-1.4-3.7-2.4l1.1-2.2c1,0.9,2.1,1.7,3.3,2.2
		c1.3,0.5,2.5,0.8,3.7,0.8c1.5,0,2.7-0.3,3.6-0.9c0.9-0.6,1.3-1.4,1.3-2.4c0-0.7-0.2-1.4-0.6-1.9c-0.4-0.5-1-0.9-1.7-1.2
		s-1.5-0.6-2.3-0.8c-0.8-0.3-1.7-0.5-2.5-0.8c-0.8-0.3-1.6-0.6-2.3-1.1c-0.7-0.4-1.3-1-1.7-1.7c-0.4-0.7-0.6-1.6-0.6-2.6
		c0-1.7,0.7-3,2-4C264.3,485.3,266.1,484.8,268.3,484.8z"/>
	<path d="M294.8,487.2h-11.9v7h10.7v2.3h-10.7v7.3h12.3v2.3h-14.8v-21.2h14.4V487.2z"/>
	<path d="M309.2,484.8c1.4,0,2.8,0.3,4.2,0.8c1.3,0.5,2.5,1.3,3.6,2.3l-1.5,1.8c-1.7-1.8-3.8-2.7-6.3-2.7c-2.4,0-4.4,0.8-6.1,2.4
		c-1.7,1.6-2.5,3.6-2.5,5.9c0,2.3,0.8,4.3,2.5,5.9s3.7,2.4,6.1,2.4c2.4,0,4.5-0.8,6.3-2.5l1.5,1.7c-2.3,2.2-4.9,3.3-7.9,3.3
		c-3,0-5.6-1-7.8-3.1c-2.1-2.1-3.2-4.6-3.2-7.6c0-3,1.1-5.5,3.2-7.5C303.5,485.8,306.1,484.8,309.2,484.8z"/>
	<path d="M338.6,484.8v12.5c0,2.8-0.8,4.9-2.4,6.5c-1.6,1.6-3.7,2.3-6.5,2.3c-2.8,0-5-0.8-6.5-2.3c-1.6-1.6-2.4-3.7-2.4-6.5v-12.5
		h2.4v12.5c0,2,0.6,3.6,1.7,4.8c1.2,1.1,2.7,1.7,4.8,1.7c2,0,3.6-0.6,4.7-1.7c1.1-1.1,1.7-2.7,1.7-4.8v-12.5H338.6z"/>
	<path d="M358.4,506l-4.4-6.7c-0.6,0-1.1,0.1-1.4,0.1h-5.6v6.7h-2.4v-21.2h8c2.6,0,4.7,0.6,6.2,1.9s2.2,3,2.2,5.2
		c0,1.7-0.4,3.2-1.2,4.4c-0.8,1.2-2,2-3.5,2.5l5,7.2H358.4z M346.9,497h5.6c1.9,0,3.4-0.4,4.5-1.3s1.6-2.1,1.6-3.7
		c0-1.6-0.5-2.8-1.6-3.6s-2.5-1.2-4.5-1.2h-5.6V497z"/>
	<path d="M368.8,506h-2.4v-21.2h2.4V506z"/>
	<path d="M388.6,487.2h-6.9V506h-2.4v-18.8h-6.9v-2.3h16.2V487.2z"/>
	<path d="M399.6,498.7v7.3h-2.4v-7.2l-8.2-14h2.5l6.9,11l6.8-11h2.5L399.6,498.7z"/>
	<path d="M276.4,520.4h-11.9v7h10.7v2.3h-10.7v7.3h12.3v2.3H262v-21.2h14.4V520.4z"/>
	<path d="M281.7,518.1h8.6c3.1,0,5.7,1,7.8,3c2.1,2,3.1,4.5,3.1,7.5c0,3-1,5.5-3.1,7.5c-2.1,2-4.7,3-7.8,3h-8.5V518.1z M284.1,520.4
		V537h6.2c2.4,0,4.4-0.8,6-2.4c1.6-1.6,2.4-3.5,2.4-5.9s-0.8-4.3-2.5-5.9c-1.6-1.6-3.7-2.4-6-2.4H284.1z"/>
	<path d="M322.8,518.1v12.5c0,2.8-0.8,4.9-2.4,6.5c-1.6,1.6-3.7,2.3-6.5,2.3c-2.8,0-5-0.8-6.5-2.3c-1.6-1.6-2.4-3.7-2.4-6.5v-12.5
		h2.4v12.5c0,2,0.6,3.6,1.7,4.8c1.2,1.1,2.7,1.7,4.8,1.7c2,0,3.6-0.6,4.7-1.7c1.1-1.1,1.7-2.7,1.7-4.8v-12.5H322.8z"/>
	<path d="M337.8,518c1.4,0,2.8,0.3,4.2,0.8c1.4,0.5,2.5,1.3,3.6,2.3l-1.5,1.8c-1.7-1.8-3.8-2.7-6.3-2.7c-2.4,0-4.4,0.8-6.1,2.4
		c-1.7,1.6-2.5,3.6-2.5,5.9s0.8,4.3,2.5,5.9s3.7,2.4,6.1,2.4c2.4,0,4.5-0.8,6.3-2.5l1.5,1.7c-2.3,2.2-4.9,3.3-7.9,3.3
		c-3,0-5.6-1-7.8-3.1c-2.1-2.1-3.2-4.6-3.2-7.6c0-3,1.1-5.5,3.2-7.5C332.1,519.1,334.7,518,337.8,518z"/>
	<path d="M363.2,533.9h-11.5l-2.4,5.3h-2.6l9.5-21.2h2.5l9.5,21.2h-2.6L363.2,533.9z M362.2,531.6l-4.8-10.7l-4.7,10.7H362.2z"/>
	<path d="M382.9,520.4H376v18.8h-2.4v-18.8h-6.9v-2.3h16.2V520.4z"/>
	<path d="M388.8,539.3h-2.4v-21.2h2.4V539.3z"/>
	<path d="M404.3,518c3.1,0,5.7,1,7.8,3.1c2.1,2.1,3.2,4.6,3.2,7.6s-1.1,5.5-3.2,7.6c-2.1,2.1-4.8,3.1-7.8,3.1c-3.1,0-5.7-1-7.9-3.1
		c-2.1-2.1-3.2-4.6-3.2-7.6s1.1-5.5,3.2-7.6C398.6,519.1,401.2,518,404.3,518z M404.3,520.3c-2.4,0-4.4,0.8-6.1,2.4
		c-1.7,1.6-2.5,3.6-2.5,5.9s0.8,4.3,2.5,5.9c1.7,1.6,3.7,2.4,6.1,2.4c2.4,0,4.4-0.8,6.1-2.4c1.7-1.6,2.5-3.6,2.5-5.9
		s-0.8-4.3-2.5-5.9C408.7,521.1,406.7,520.3,404.3,520.3z"/>
	<path d="M437.4,539.3h-2.5l-12.7-17v17h-2.4v-21.2h2.5l12.7,17v-17h2.4V539.3z"/>
	<path d="M271,551.3c1.4,0,2.8,0.3,4.2,0.8s2.5,1.3,3.6,2.3l-1.5,1.8c-1.7-1.8-3.8-2.7-6.3-2.7c-2.4,0-4.4,0.8-6.1,2.4
		c-1.7,1.6-2.5,3.6-2.5,5.9c0,2.3,0.8,4.3,2.5,5.9s3.7,2.4,6.1,2.4c2.4,0,4.5-0.8,6.3-2.5l1.5,1.7c-2.3,2.2-4.9,3.3-7.9,3.3
		c-3,0-5.6-1-7.8-3.1c-2.1-2.1-3.2-4.6-3.2-7.6c0-3,1.1-5.5,3.2-7.5C265.4,552.3,268,551.3,271,551.3z"/>
	<path d="M291.8,551.3c3.1,0,5.7,1,7.8,3.1c2.1,2.1,3.2,4.6,3.2,7.6c0,3-1.1,5.5-3.2,7.6c-2.1,2.1-4.8,3.1-7.8,3.1
		c-3.1,0-5.7-1-7.9-3.1c-2.1-2.1-3.2-4.6-3.2-7.6c0-3,1.1-5.5,3.2-7.6C286,552.3,288.6,551.3,291.8,551.3z M291.8,553.6
		c-2.4,0-4.4,0.8-6.1,2.4c-1.7,1.6-2.5,3.6-2.5,5.9c0,2.3,0.8,4.3,2.5,5.9c1.7,1.6,3.7,2.4,6.1,2.4c2.4,0,4.4-0.8,6.1-2.4
		c1.7-1.6,2.5-3.6,2.5-5.9c0-2.3-0.8-4.3-2.5-5.9C296.1,554.4,294.1,553.6,291.8,553.6z"/>
	<path d="M328.6,572.5h-2.2l0-17.4l-7.7,15.2h-1.5l-7.7-15.2v17.4h-2.3v-21.2h3l7.7,15.2l7.7-15.2h3V572.5z"/>
	<path d="M335.1,551.3h7.9c2.6,0,4.6,0.6,6.1,1.9c1.4,1.2,2.2,3,2.2,5.2c0,2.3-0.7,4.2-2.2,5.4c-1.4,1.3-3.5,1.9-6.1,1.9h-5.5v6.7
		h-2.4V551.3z M337.5,553.7v9.8h5.4c1.9,0,3.4-0.4,4.5-1.3c1-0.8,1.6-2.1,1.6-3.7c0-1.6-0.5-2.8-1.6-3.6c-1-0.8-2.5-1.2-4.5-1.2
		H337.5z"/>
	<path d="M367.5,567.2H356l-2.4,5.4H351l9.5-21.2h2.5l9.5,21.2h-2.6L367.5,567.2z M366.5,564.8l-4.8-10.7l-4.7,10.7H366.5z"/>
	<path d="M393.4,572.5h-2.5l-12.7-17v17h-2.4v-21.2h2.5l12.7,17v-17h2.4V572.5z"/>
	<path d="M402.3,572.5h-2.4v-21.2h2.4V572.5z"/>
	<path d="M417.8,551.3c3.1,0,5.7,1,7.8,3.1c2.1,2.1,3.2,4.6,3.2,7.6c0,3-1.1,5.5-3.2,7.6c-2.1,2.1-4.8,3.1-7.8,3.1
		c-3.1,0-5.7-1-7.9-3.1c-2.1-2.1-3.2-4.6-3.2-7.6c0-3,1.1-5.5,3.2-7.6C412,552.3,414.7,551.3,417.8,551.3z M417.8,553.6
		c-2.4,0-4.4,0.8-6.1,2.4c-1.7,1.6-2.5,3.6-2.5,5.9c0,2.3,0.8,4.3,2.5,5.9c1.7,1.6,3.7,2.4,6.1,2.4c2.4,0,4.4-0.8,6.1-2.4
		c1.7-1.6,2.5-3.6,2.5-5.9c0-2.3-0.8-4.3-2.5-5.9C422.1,554.4,420.1,553.6,417.8,553.6z"/>
	<path d="M450.8,572.5h-2.5l-12.7-17v17h-2.4v-21.2h2.5l12.7,17v-17h2.4V572.5z"/>
</g>
<g id="XMLID_1_">
	<g id="XMLID_00000093149478787106727080000014767567589820949649_">
		<g id="XMLID_10_">
			
				<rect id="XMLID_13_" x="156.6" y="522.8" transform="matrix(0.7071 -0.7071 0.7071 0.7071 -321.758 283.3811)" class="st3" width="49.1" height="14.6"/>
			<path id="XMLID_15_" class="st4" d="M157.4,548l-1.7,7.5l7.8-1.8C161.5,551.7,159.3,549.8,157.4,548z"/>
			<path id="XMLID_16_" class="st3" d="M158.7,542.3l-1.3,5.7c1.9,1.8,4.1,3.6,6.1,5.7l5.4-1.2L158.7,542.3z"/>
			<path id="XMLID_14_" class="st3" d="M208,513.6l4.9-4.9c1-1,1-2.6,0-3.6l-6.7-6.7c-1-1-2.6-1-3.6,0l-4.9,4.9L208,513.6z"/>
		</g>
		<g id="XMLID_3_">
			<path id="XMLID_5_" class="st4" d="M175.3,499.8c-3.5-3.1-9.4-2.5-14.8,1.1c-2.8-2.5-7-2.2-9.5,0.6c-2.5,2.8-2.2,7,0.6,9.5
				c-2.9,5.8-2.8,11.7,0.7,14.8c4.3,3.8,11.8,2.1,18-3.6l19.3,17l-3,3.4l3.5,3.1l3-3.4l2.3,2.1l-5.6,6.4l7,6.2l5.8-6.6l0,0l3.4-3.9
				L173.9,518C178.8,511.2,179.6,503.5,175.3,499.8z M158,503.7c1.2,1.1,1.3,3,0.3,4.2c-1.1,1.2-3,1.3-4.2,0.3
				c-1.2-1.1-1.3-3-0.3-4.2S156.8,502.6,158,503.7z M168.6,517c-4.9,5.5-10.8,7.1-13.1,5.1c-1.7-1.5-1.6-5.4,0.6-9.5
				c1.8,0,3.7-0.8,5-2.3c1.3-1.5,1.8-3.4,1.6-5.2c3.9-2.7,7.7-3.3,9.4-1.8C174.4,505.4,173.5,511.5,168.6,517z"/>
		</g>
	</g>
	
		<rect id="XMLID_12_" x="197.4" y="502.6" transform="matrix(0.7071 -0.7071 0.7071 0.7071 -301.5999 291.7326)" class="st4" width="7.9" height="14.6"/>
</g>
</svg>
