<?xml version="1.0" encoding="utf-8"?>
<!-- Generator: Adobe Illustrator 24.0.0, SVG Export Plug-In . SVG Version: 6.00 Build 0)  -->
<svg version="1.1" id="Layer_1" xmlns="http://www.w3.org/2000/svg" xmlns:xlink="http://www.w3.org/1999/xlink" x="0px" y="0px"
	 viewBox="0 0 993.6 194.4" style="enable-background:new 0 0 993.6 194.4;" xml:space="preserve">
<style type="text/css">
	.st0{fill:#EC1E1E;}
</style>
<g>
	<g>
		<path d="M255.2,7.8h17.3v7.7h-9.7v13.4h7v8.2h-7v14.1h9.7v7.7h-17.3V7.8z"/>
		<path d="M276.7,7.8h7.6v44.2h10v7h-17.6V7.8z"/>
		<path d="M298.1,7.8h17.3v7.7h-9.7v13.4h7v8.2h-7v14.1h9.7v7.7h-17.3V7.8z"/>
		<path d="M339.7,41.4v7c-0.1,2.1-0.5,4-1.3,5.6c-0.6,1.4-1.6,2.7-3,3.8c-1.4,1.1-3.3,1.7-5.8,1.7c-2.5,0-4.5-0.6-5.9-1.7
			c-1.4-1-2.3-2.4-2.9-3.8c-0.8-1.6-1.2-3.5-1.3-5.6V18.3c0.1-2,0.5-3.9,1.3-5.5c0.6-1.4,1.5-2.8,2.9-3.8c1.4-1,3.4-1.7,5.9-1.7
			c2.5,0,4.4,0.7,5.8,1.7c1.4,1,2.4,2.4,3,3.8c0.8,1.6,1.2,3.5,1.3,5.5v7h-7.1v-7c0-1.4-0.4-2.4-1.1-3.2c-0.4-0.3-1-0.6-1.8-0.6
			c-1.3,0-2,1-2.3,1.9c-0.2,0.6-0.3,1.2-0.4,1.9v30.1c0.1,1.5,0.5,2.4,1.2,3.2c0.4,0.3,0.8,0.6,1.5,0.6c1.6,0,2.2-0.8,2.6-1.9
			c0.2-0.5,0.3-1.1,0.3-1.9v-7H339.7z"/>
		<path d="M341.9,15.5V7.8h21.9v7.7h-7.2v43.4h-7.6V15.5H341.9z"/>
		<path d="M380.6,58.9l-3.9-21.6h-2v21.6h-7.6V7.8h7.6c9,0,12.9,5.1,12.9,14.8c0,5.1-1.3,9.7-4.2,11.6l4.8,24.8H380.6z M374.7,30.4
			c1.1,0,2.5-0.1,3.6-1.1c1.1-1,2-2.9,2-6.5s-0.9-5.6-2-6.5c-1.1-1-2.5-1-3.6-1V30.4z"/>
		<path d="M412.4,48.4c-0.1,2.1-0.5,4-1.3,5.6c-0.6,1.4-1.6,2.7-3,3.8c-1.4,1.1-3.3,1.7-5.8,1.7c-2.5,0-4.5-0.6-5.9-1.7
			c-1.4-1-2.3-2.4-2.9-3.8c-0.8-1.6-1.2-3.5-1.3-5.6V18.3c0.1-2,0.5-3.9,1.3-5.5c0.6-1.4,1.5-2.8,2.9-3.8c1.4-1,3.4-1.7,5.9-1.7
			c2.5,0,4.4,0.7,5.8,1.7c1.4,1,2.4,2.4,3,3.8c0.8,1.6,1.2,3.5,1.3,5.5V48.4z M404.9,18.3c0-1.4-0.3-2.4-1-3.2
			c-0.4-0.3-0.9-0.6-1.5-0.6c-1.3,0-2,1-2.2,1.9c-0.2,0.6-0.3,1.2-0.3,1.9v30.1c0,1.5,0.4,2.4,1.1,3.2c0.4,0.3,0.8,0.6,1.5,0.6
			c1.3,0,2-0.8,2.2-1.9c0.2-0.5,0.3-1.1,0.3-1.9V18.3z"/>
		<path d="M425.9,32.3l-0.6-2.4h-0.4v29h-6.9V7.8h6.7l7.4,26.7l0.6,2.4h0.4v-29h6.9v51.1h-6.7L425.9,32.3z"/>
		<path d="M445.9,7.8h7.6v51.1h-7.6V7.8z"/>
		<path d="M479.2,41.4v7c-0.1,2.1-0.5,4-1.3,5.6c-0.6,1.4-1.6,2.7-3,3.8c-1.4,1.1-3.3,1.7-5.8,1.7c-2.5,0-4.5-0.6-5.9-1.7
			c-1.4-1-2.3-2.4-2.9-3.8c-0.8-1.6-1.2-3.5-1.3-5.6V18.3c0.1-2,0.5-3.9,1.3-5.5c0.6-1.4,1.5-2.8,2.9-3.8c1.4-1,3.4-1.7,5.9-1.7
			c2.5,0,4.4,0.7,5.8,1.7c1.4,1,2.4,2.4,3,3.8c0.8,1.6,1.2,3.5,1.3,5.5v7h-7.1v-7c0-1.4-0.4-2.4-1.1-3.2c-0.4-0.3-1-0.6-1.8-0.6
			c-1.3,0-2,1-2.3,1.9c-0.2,0.6-0.3,1.2-0.4,1.9v30.1c0.1,1.5,0.5,2.4,1.2,3.2c0.4,0.3,0.8,0.6,1.5,0.6c1.6,0,2.2-0.8,2.6-1.9
			c0.2-0.5,0.3-1.1,0.3-1.9v-7H479.2z"/>
		<path d="M272.5,79.4h-9.7v13.4h7v7.7h-7v22.3h-7.6V71.7h17.3V79.4z"/>
		<path d="M290.2,122.8l-3.9-21.6h-2v21.6h-7.6V71.7h7.6c9,0,12.9,5.1,12.9,14.8c0,5.1-1.3,9.7-4.2,11.6l4.8,24.8H290.2z
			 M284.2,94.3c1.1,0,2.5-0.1,3.6-1.1c1.1-1,2-2.9,2-6.5s-0.9-5.6-2-6.5c-1.1-1-2.5-1-3.6-1V94.3z"/>
		<path d="M322,112.3c-0.1,2.1-0.5,4-1.3,5.6c-0.6,1.4-1.6,2.7-3,3.8c-1.4,1.1-3.3,1.7-5.8,1.7c-2.5,0-4.5-0.6-5.9-1.7
			c-1.4-1-2.3-2.4-2.9-3.8c-0.8-1.6-1.2-3.5-1.3-5.6V82.2c0.1-2,0.5-3.9,1.3-5.5c0.6-1.4,1.5-2.8,2.9-3.8c1.4-1,3.4-1.7,5.9-1.7
			c2.5,0,4.4,0.7,5.8,1.7c1.4,1,2.4,2.4,3,3.8c0.8,1.6,1.2,3.5,1.3,5.5V112.3z M314.4,82.2c0-1.4-0.3-2.4-1-3.2
			c-0.4-0.3-0.9-0.6-1.5-0.6c-1.3,0-2,1-2.2,1.9c-0.2,0.6-0.3,1.2-0.3,1.9v30.1c0,1.5,0.4,2.4,1.1,3.2c0.4,0.3,0.8,0.6,1.5,0.6
			c1.3,0,2-0.8,2.2-1.9c0.2-0.5,0.3-1.1,0.3-1.9V82.2z"/>
		<path d="M335.5,96.1l-0.6-2.4h-0.4v29h-6.9V71.7h6.7l7.4,26.7l0.6,2.4h0.4v-29h6.9v51.1h-6.7L335.5,96.1z"/>
		<path d="M352.9,79.4v-7.7h21.9v7.7h-7.1v43.4H360V79.4H352.9z"/>
		<path d="M378,71.7h7.6v51.1H378V71.7z"/>
		<path d="M391.6,71.7h17.3v7.7h-9.7v13.4h7v8.2h-7v14.1h9.7v7.7h-17.3V71.7z"/>
		<path d="M426.9,122.8l-3.9-21.6h-2v21.6h-7.6V71.7h7.6c9,0,12.9,5.1,12.9,14.8c0,5.1-1.3,9.7-4.2,11.6l4.8,24.8H426.9z M421,94.3
			c1.1,0,2.5-0.1,3.6-1.1c1.1-1,2-2.9,2-6.5s-0.9-5.6-2-6.5c-1.1-1-2.5-1-3.6-1V94.3z"/>
		<path d="M272.5,143.2h-9.7v13.4h7v7.7h-7v22.3h-7.6v-51.1h17.3V143.2z"/>
		<path d="M296.4,176.1c-0.1,2.1-0.5,4-1.3,5.6c-0.6,1.4-1.6,2.7-3,3.8c-1.4,1.1-3.3,1.7-5.8,1.7c-2.5,0-4.5-0.6-5.9-1.7
			c-1.4-1-2.3-2.4-2.9-3.8c-0.8-1.6-1.2-3.5-1.3-5.6V146c0.1-2,0.5-3.9,1.3-5.5c0.6-1.4,1.5-2.8,2.9-3.8c1.4-1,3.4-1.7,5.9-1.7
			c2.5,0,4.4,0.7,5.8,1.7c1.4,1,2.4,2.4,3,3.8c0.8,1.6,1.2,3.5,1.3,5.5V176.1z M288.8,146c0-1.4-0.3-2.4-1-3.2
			c-0.4-0.3-0.9-0.6-1.5-0.6c-1.3,0-2,1-2.2,1.9c-0.2,0.6-0.3,1.2-0.3,1.9v30.1c0,1.5,0.4,2.4,1.1,3.2c0.4,0.3,0.8,0.6,1.5,0.6
			c1.3,0,2-0.8,2.2-1.9c0.2-0.5,0.3-1.1,0.3-1.9V146z"/>
		<path d="M322,135.5v40.6c-0.1,2.1-0.5,4-1.3,5.6c-0.6,1.4-1.6,2.7-3,3.8c-1.4,1.1-3.3,1.7-5.8,1.7c-2.5,0-4.5-0.6-5.9-1.7
			c-1.4-1-2.3-2.4-2.9-3.8c-0.8-1.6-1.2-3.5-1.3-5.6v-40.6h7.6v40.6c0,1.5,0.4,2.4,1.1,3.2c0.4,0.3,0.8,0.6,1.5,0.6
			c1.3,0,2-0.8,2.2-1.9c0.2-0.5,0.3-1.1,0.3-1.9v-40.6H322z"/>
		<path d="M335.8,160l-0.6-2.4h-0.4v29h-6.9v-51.1h6.7l7.4,26.7l0.6,2.4h0.4v-29h6.9v51.1h-6.7L335.8,160z"/>
		<path d="M355.9,186.6v-51.1h6c7,0,10.8,1.4,12.8,5.3c2,3.9,2.2,10.3,2.2,20.3s-0.3,16.4-2.2,20.2c-2,3.9-5.8,5.3-12.8,5.3H355.9z
			 M363.5,179.1c2.6,0,4.1-0.3,4.8-2.8c0.4-1.2,0.6-3,0.7-5.4c0.1-2.4,0.1-5.7,0.1-9.9s0-7.4-0.1-9.9c-0.1-2.4-0.4-4.2-0.7-5.4
			c-0.8-2.4-2.2-2.7-4.8-2.7V179.1z"/>
		<path d="M379.6,186.6l7.8-51.1h9.3l7.8,51.1h-7.4l-1.4-10.4h-7.3l-1.4,10.4H379.6z M392.5,152.1l-0.2-1.3h-0.4l-0.2,1.3l-2.2,16.1
			h5.2L392.5,152.1z"/>
		<path d="M403.5,143.2v-7.7h21.9v7.7h-7.2v43.4h-7.6v-43.4H403.5z"/>
		<path d="M429.6,135.5h7.6v51.1h-7.6V135.5z"/>
		<path d="M462.9,176.1c-0.1,2.1-0.5,4-1.3,5.6c-0.6,1.4-1.6,2.7-3,3.8c-1.4,1.1-3.3,1.7-5.8,1.7c-2.5,0-4.5-0.6-5.9-1.7
			c-1.4-1-2.3-2.4-2.9-3.8c-0.8-1.6-1.2-3.5-1.3-5.6V146c0.1-2,0.5-3.9,1.3-5.5c0.6-1.4,1.5-2.8,2.9-3.8c1.4-1,3.4-1.7,5.9-1.7
			c2.5,0,4.4,0.7,5.8,1.7c1.4,1,2.4,2.4,3,3.8c0.8,1.6,1.2,3.5,1.3,5.5V176.1z M455.3,146c0-1.4-0.3-2.4-1-3.2
			c-0.4-0.3-0.9-0.6-1.5-0.6c-1.3,0-2,1-2.2,1.9c-0.2,0.6-0.3,1.2-0.3,1.9v30.1c0,1.5,0.4,2.4,1.1,3.2c0.4,0.3,0.8,0.6,1.5,0.6
			c1.3,0,2-0.8,2.2-1.9c0.2-0.5,0.3-1.1,0.3-1.9V146z"/>
		<path d="M476.3,160l-0.6-2.4h-0.4v29h-6.9v-51.1h6.7l7.4,26.7l0.6,2.4h0.4v-29h6.9v51.1h-6.7L476.3,160z"/>
	</g>
	<g>
		<polygon class="st0" points="7.2,7.8 7.2,186.6 242.4,186.6 242.4,135.5 83.8,135.5 83.8,122.8 242.4,122.8 242.4,71.7 83.8,71.7 
			83.8,58.9 242.4,58.9 242.4,7.8 		"/>
		<polygon class="st0" points="503.3,7.8 503.3,186.6 579.9,186.6 579.9,122.8 738.5,122.8 738.5,71.7 579.9,71.7 579.9,58.9 
			738.5,58.9 738.5,7.8 		"/>
		<polygon class="st0" points="751.2,7.8 751.2,186.6 827.9,186.6 827.9,122.8 986.5,122.8 986.5,71.7 827.9,71.7 827.9,58.9 
			986.5,58.9 986.5,7.8 		"/>
	</g>
</g>
</svg>
