<?xml version="1.0" encoding="utf-8"?>
<!-- Generator: Adobe Illustrator 24.0.0, SVG Export Plug-In . SVG Version: 6.00 Build 0)  -->
<svg version="1.1" id="Layer_1" xmlns="http://www.w3.org/2000/svg" xmlns:xlink="http://www.w3.org/1999/xlink" x="0px" y="0px"
	 viewBox="0 0 748.8 194.4" style="enable-background:new 0 0 748.8 194.4;" xml:space="preserve">
<style type="text/css">
	.st0{fill:#EC1E1E;}
</style>
<g>
	<polygon class="st0" points="7.2,7.2 7.2,187.2 243.9,187.2 243.9,135.8 84.3,135.8 84.3,122.9 243.9,122.9 243.9,71.5 84.3,71.5 
		84.3,58.6 243.9,58.6 243.9,7.2 	"/>
	<polygon class="st0" points="256.9,7.2 256.9,187.2 334,187.2 334,122.9 493.6,122.9 493.6,71.5 334,71.5 334,58.6 493.6,58.6 
		493.6,7.2 	"/>
	<polygon class="st0" points="506.5,7.2 506.5,187.2 583.6,187.2 583.6,122.9 743.2,122.9 743.2,71.5 583.6,71.5 583.6,58.6 
		743.2,58.6 743.2,7.2 	"/>
</g>
</svg>
