<?xml version="1.0" encoding="utf-8"?>
<!-- Generator: Adobe Illustrator 24.0.0, SVG Export Plug-In . SVG Version: 6.00 Build 0)  -->
<svg version="1.1" id="Layer_1" xmlns="http://www.w3.org/2000/svg" xmlns:xlink="http://www.w3.org/1999/xlink" x="0px" y="0px"
	 viewBox="0 0 993.6 194.4" style="enable-background:new 0 0 993.6 194.4;" xml:space="preserve">
<style type="text/css">
	.st0{fill:#EC1E1E;}
</style>
<g>
	<g>
		<path class="st0" d="M255.2,7.6h17.3v7.7h-9.7v13.4h7v8.2h-7V51h9.7v7.7h-17.3V7.6z"/>
		<path class="st0" d="M276.7,7.6h7.6v44.2h10v7h-17.6V7.6z"/>
		<path class="st0" d="M298.1,7.6h17.3v7.7h-9.7v13.4h7v8.2h-7V51h9.7v7.7h-17.3V7.6z"/>
		<path class="st0" d="M339.7,41.2v7c-0.1,2.1-0.5,4-1.3,5.6c-0.6,1.4-1.6,2.7-3,3.8c-1.4,1.1-3.3,1.7-5.8,1.7
			c-2.5,0-4.5-0.6-5.9-1.7c-1.4-1-2.3-2.4-2.9-3.8c-0.8-1.6-1.2-3.5-1.3-5.6V18.1c0.1-2,0.5-3.9,1.3-5.5c0.6-1.4,1.5-2.8,2.9-3.8
			c1.4-1,3.4-1.7,5.9-1.7c2.5,0,4.4,0.7,5.8,1.7c1.4,1,2.4,2.4,3,3.8c0.8,1.6,1.2,3.5,1.3,5.5v7h-7.1v-7c0-1.4-0.4-2.4-1.1-3.2
			c-0.4-0.3-1-0.6-1.8-0.6c-1.3,0-2,1-2.3,1.9c-0.2,0.6-0.3,1.2-0.4,1.9v30.1c0.1,1.5,0.5,2.4,1.2,3.2c0.4,0.3,0.8,0.6,1.5,0.6
			c1.6,0,2.2-0.8,2.6-1.9c0.2-0.5,0.3-1.1,0.3-1.9v-7H339.7z"/>
		<path class="st0" d="M341.9,15.3V7.6h21.9v7.7h-7.2v43.4h-7.6V15.3H341.9z"/>
		<path class="st0" d="M380.6,58.7l-3.9-21.6h-2v21.6h-7.6V7.6h7.6c9,0,12.9,5.1,12.9,14.8c0,5.1-1.3,9.7-4.2,11.6l4.8,24.8H380.6z
			 M374.6,30.2c1.1,0,2.5-0.1,3.6-1.1c1.1-1,2-2.9,2-6.5s-0.9-5.6-2-6.5c-1.1-1-2.5-1-3.6-1V30.2z"/>
		<path class="st0" d="M412.4,48.2c-0.1,2.1-0.5,4-1.3,5.6c-0.6,1.4-1.6,2.7-3,3.8c-1.4,1.1-3.3,1.7-5.8,1.7c-2.5,0-4.5-0.6-5.9-1.7
			c-1.4-1-2.3-2.4-2.9-3.8c-0.8-1.6-1.2-3.5-1.3-5.6V18.1c0.1-2,0.5-3.9,1.3-5.5c0.6-1.4,1.5-2.8,2.9-3.8c1.4-1,3.4-1.7,5.9-1.7
			c2.5,0,4.4,0.7,5.8,1.7c1.4,1,2.4,2.4,3,3.8c0.8,1.6,1.2,3.5,1.3,5.5V48.2z M404.9,18.1c0-1.4-0.3-2.4-1-3.2
			c-0.4-0.3-0.9-0.6-1.5-0.6c-1.3,0-2,1-2.2,1.9c-0.2,0.6-0.3,1.2-0.3,1.9v30.1c0,1.5,0.4,2.4,1.1,3.2c0.4,0.3,0.8,0.6,1.5,0.6
			c1.3,0,2-0.8,2.2-1.9c0.2-0.5,0.3-1.1,0.3-1.9V18.1z"/>
		<path class="st0" d="M425.9,32.1l-0.6-2.4h-0.4v29h-6.9V7.6h6.7l7.4,26.7l0.6,2.4h0.4v-29h6.9v51.1h-6.7L425.9,32.1z"/>
		<path class="st0" d="M445.9,7.6h7.6v51.1h-7.6V7.6z"/>
		<path class="st0" d="M479.2,41.2v7c-0.1,2.1-0.5,4-1.3,5.6c-0.6,1.4-1.6,2.7-3,3.8c-1.4,1.1-3.3,1.7-5.8,1.7
			c-2.5,0-4.5-0.6-5.9-1.7c-1.4-1-2.3-2.4-2.9-3.8c-0.8-1.6-1.2-3.5-1.3-5.6V18.1c0.1-2,0.5-3.9,1.3-5.5c0.6-1.4,1.5-2.8,2.9-3.8
			c1.4-1,3.4-1.7,5.9-1.7c2.5,0,4.4,0.7,5.8,1.7c1.4,1,2.4,2.4,3,3.8c0.8,1.6,1.2,3.5,1.3,5.5v7h-7.1v-7c0-1.4-0.4-2.4-1.1-3.2
			c-0.4-0.3-1-0.6-1.8-0.6c-1.3,0-2,1-2.3,1.9c-0.2,0.6-0.3,1.2-0.4,1.9v30.1c0.1,1.5,0.5,2.4,1.2,3.2c0.4,0.3,0.8,0.6,1.5,0.6
			c1.6,0,2.2-0.8,2.6-1.9c0.2-0.5,0.3-1.1,0.3-1.9v-7H479.2z"/>
		<path class="st0" d="M272.5,79.2h-9.7v13.4h7v7.7h-7v22.3h-7.6V71.4h17.3V79.2z"/>
		<path class="st0" d="M290.2,122.6l-3.9-21.6h-2v21.6h-7.6V71.4h7.6c9,0,12.9,5.1,12.9,14.8c0,5.1-1.3,9.7-4.2,11.6l4.8,24.8H290.2
			z M284.2,94.1c1.1,0,2.5-0.1,3.6-1.1c1.1-1,2-2.9,2-6.5s-0.9-5.6-2-6.5c-1.1-1-2.5-1-3.6-1V94.1z"/>
		<path class="st0" d="M322,112.1c-0.1,2.1-0.5,4-1.3,5.6c-0.6,1.4-1.6,2.7-3,3.8c-1.4,1.1-3.3,1.7-5.8,1.7c-2.5,0-4.5-0.6-5.9-1.7
			c-1.4-1-2.3-2.4-2.9-3.8c-0.8-1.6-1.2-3.5-1.3-5.6V82c0.1-2,0.5-3.9,1.3-5.5c0.6-1.4,1.5-2.8,2.9-3.8c1.4-1,3.4-1.7,5.9-1.7
			c2.5,0,4.4,0.7,5.8,1.7c1.4,1,2.4,2.4,3,3.8c0.8,1.6,1.2,3.5,1.3,5.5V112.1z M314.4,82c0-1.4-0.3-2.4-1-3.2
			c-0.4-0.3-0.9-0.6-1.5-0.6c-1.3,0-2,1-2.2,1.9c-0.2,0.6-0.3,1.2-0.3,1.9v30.1c0,1.5,0.4,2.4,1.1,3.2c0.4,0.3,0.8,0.6,1.5,0.6
			c1.3,0,2-0.8,2.2-1.9c0.2-0.5,0.3-1.1,0.3-1.9V82z"/>
		<path class="st0" d="M335.5,95.9l-0.6-2.4h-0.4v29h-6.9V71.4h6.7l7.4,26.7l0.6,2.4h0.4v-29h6.9v51.1h-6.7L335.5,95.9z"/>
		<path class="st0" d="M352.8,79.2v-7.7h21.9v7.7h-7.1v43.4H360V79.2H352.8z"/>
		<path class="st0" d="M378,71.4h7.6v51.1H378V71.4z"/>
		<path class="st0" d="M391.5,71.4h17.3v7.7h-9.7v13.4h7v8.2h-7v14.1h9.7v7.7h-17.3V71.4z"/>
		<path class="st0" d="M426.9,122.6L423,101h-2v21.6h-7.6V71.4h7.6c9,0,12.9,5.1,12.9,14.8c0,5.1-1.3,9.7-4.2,11.6l4.8,24.8H426.9z
			 M421,94.1c1.1,0,2.5-0.1,3.6-1.1c1.1-1,2-2.9,2-6.5s-0.9-5.6-2-6.5c-1.1-1-2.5-1-3.6-1V94.1z"/>
		<path class="st0" d="M272.5,143h-9.7v13.4h7v7.7h-7v22.3h-7.6v-51.1h17.3V143z"/>
		<path class="st0" d="M296.4,175.9c-0.1,2.1-0.5,4-1.3,5.6c-0.6,1.4-1.6,2.7-3,3.8c-1.4,1.1-3.3,1.7-5.8,1.7
			c-2.5,0-4.5-0.6-5.9-1.7c-1.4-1-2.3-2.4-2.9-3.8c-0.8-1.6-1.2-3.5-1.3-5.6v-30.1c0.1-2,0.5-3.9,1.3-5.5c0.6-1.4,1.5-2.8,2.9-3.8
			c1.4-1,3.4-1.7,5.9-1.7c2.5,0,4.4,0.7,5.8,1.7c1.4,1,2.4,2.4,3,3.8c0.8,1.6,1.2,3.5,1.3,5.5V175.9z M288.8,145.8
			c0-1.4-0.3-2.4-1-3.2c-0.4-0.3-0.9-0.6-1.5-0.6c-1.3,0-2,1-2.2,1.9c-0.2,0.6-0.3,1.2-0.3,1.9v30.1c0,1.5,0.4,2.4,1.1,3.2
			c0.4,0.3,0.8,0.6,1.5,0.6c1.3,0,2-0.8,2.2-1.9c0.2-0.5,0.3-1.1,0.3-1.9V145.8z"/>
		<path class="st0" d="M322,135.3v40.6c-0.1,2.1-0.5,4-1.3,5.6c-0.6,1.4-1.6,2.7-3,3.8c-1.4,1.1-3.3,1.7-5.8,1.7
			c-2.5,0-4.5-0.6-5.9-1.7c-1.4-1-2.3-2.4-2.9-3.8c-0.8-1.6-1.2-3.5-1.3-5.6v-40.6h7.6v40.6c0,1.5,0.4,2.4,1.1,3.2
			c0.4,0.3,0.8,0.6,1.5,0.6c1.3,0,2-0.8,2.2-1.9c0.2-0.5,0.3-1.1,0.3-1.9v-40.6H322z"/>
		<path class="st0" d="M335.8,159.8l-0.6-2.4h-0.4v29h-6.9v-51.1h6.7l7.4,26.7l0.6,2.4h0.4v-29h6.9v51.1h-6.7L335.8,159.8z"/>
		<path class="st0" d="M355.9,186.4v-51.1h6c7,0,10.8,1.4,12.8,5.3c2,3.9,2.2,10.3,2.2,20.3c0,10-0.3,16.4-2.2,20.2
			c-2,3.9-5.8,5.3-12.8,5.3H355.9z M363.5,178.9c2.6,0,4.1-0.3,4.8-2.8c0.4-1.2,0.6-3,0.7-5.4c0.1-2.4,0.1-5.7,0.1-9.9
			s0-7.4-0.1-9.9c-0.1-2.4-0.4-4.2-0.7-5.4c-0.8-2.4-2.2-2.7-4.8-2.7V178.9z"/>
		<path class="st0" d="M379.6,186.4l7.8-51.1h9.3l7.8,51.1h-7.4l-1.4-10.4h-7.3l-1.4,10.4H379.6z M392.4,151.9l-0.2-1.3h-0.4
			l-0.2,1.3l-2.2,16.1h5.2L392.4,151.9z"/>
		<path class="st0" d="M403.5,143v-7.7h21.9v7.7h-7.2v43.4h-7.6V143H403.5z"/>
		<path class="st0" d="M429.6,135.3h7.6v51.1h-7.6V135.3z"/>
		<path class="st0" d="M462.9,175.9c-0.1,2.1-0.5,4-1.3,5.6c-0.6,1.4-1.6,2.7-3,3.8c-1.4,1.1-3.3,1.7-5.8,1.7
			c-2.5,0-4.5-0.6-5.9-1.7c-1.4-1-2.3-2.4-2.9-3.8c-0.8-1.6-1.2-3.5-1.3-5.6v-30.1c0.1-2,0.5-3.9,1.3-5.5c0.6-1.4,1.5-2.8,2.9-3.8
			c1.4-1,3.4-1.7,5.9-1.7c2.5,0,4.4,0.7,5.8,1.7c1.4,1,2.4,2.4,3,3.8c0.8,1.6,1.2,3.5,1.3,5.5V175.9z M455.3,145.8
			c0-1.4-0.3-2.4-1-3.2c-0.4-0.3-0.9-0.6-1.5-0.6c-1.3,0-2,1-2.2,1.9c-0.2,0.6-0.3,1.2-0.3,1.9v30.1c0,1.5,0.4,2.4,1.1,3.2
			c0.4,0.3,0.8,0.6,1.5,0.6c1.3,0,2-0.8,2.2-1.9c0.2-0.5,0.3-1.1,0.3-1.9V145.8z"/>
		<path class="st0" d="M476.3,159.8l-0.6-2.4h-0.4v29h-6.9v-51.1h6.7l7.4,26.7l0.6,2.4h0.4v-29h6.9v51.1h-6.7L476.3,159.8z"/>
	</g>
	<g>
		<polygon points="7.2,7.6 7.2,186.4 242.4,186.4 242.4,135.3 83.8,135.3 83.8,122.6 242.4,122.6 242.4,71.5 83.8,71.5 83.8,58.7 
			242.4,58.7 242.4,7.6 		"/>
		<polygon points="503.3,7.6 503.3,186.4 579.9,186.4 579.9,122.6 738.5,122.6 738.5,71.5 579.9,71.5 579.9,58.7 738.5,58.7 
			738.5,7.6 		"/>
		<polygon points="751.2,7.6 751.2,186.4 827.9,186.4 827.9,122.6 986.4,122.6 986.4,71.5 827.9,71.5 827.9,58.7 986.4,58.7 
			986.4,7.6 		"/>
	</g>
</g>
</svg>
