<?xml version="1.0" encoding="utf-8"?>
<!-- Generator: Adobe Illustrator 24.0.3, SVG Export Plug-In . SVG Version: 6.00 Build 0)  -->
<svg version="1.1" id="Layer_1" xmlns="http://www.w3.org/2000/svg" xmlns:xlink="http://www.w3.org/1999/xlink" x="0px" y="0px"
	 viewBox="0 0 450 350" style="enable-background:new 0 0 450 350;" xml:space="preserve">
<style type="text/css">
	.st0{fill:#229EB3;}
	.st1{fill:#C12026;}
	.st2{fill:#6FBA44;}
	.st3{fill:#ED8F22;}
	.st4{fill:#3B57A6;}
</style>
<g>
	<g id="XMLID_150_">
		<rect id="XMLID_155_" x="9.65" y="62.51" class="st0" width="58.84" height="224.43"/>
		<rect id="XMLID_154_" x="102.44" class="st1" width="58.84" height="307.78"/>
		<rect id="XMLID_153_" x="195.22" y="41.67" class="st2" width="58.84" height="307.78"/>
		<rect id="XMLID_152_" x="288.01" class="st3" width="58.84" height="307.78"/>
		<rect id="XMLID_151_" x="380.8" y="41.67" class="st4" width="58.84" height="245.27"/>
	</g>
	<path d="M222.07,279.67c-68.49,0-133.47-36.98-182.97-104.13l-2.1-2.85l2.1-2.85C88.6,102.7,153.58,65.71,222.07,65.71
		c68.49,0,133.47,36.98,182.97,104.13l2.1,2.85l-2.1,2.85C355.54,242.69,290.56,279.67,222.07,279.67z M48.95,172.69
		c47.36,62.83,108.72,97.38,173.12,97.38c64.4,0,125.76-34.55,173.12-97.38c-47.36-62.83-108.72-97.38-173.12-97.38
		C157.67,75.31,96.31,109.86,48.95,172.69z"/>
	<path d="M218.38,244.98c-40.58,0-73.59-33.01-73.59-73.58s33.01-73.59,73.59-73.59s73.58,33.01,73.58,73.59
		S258.95,244.98,218.38,244.98z M218.38,107.41c-35.28,0-63.99,28.71-63.99,63.99c0,35.28,28.71,63.99,63.99,63.99
		c35.28,0,63.99-28.71,63.99-63.99C282.36,136.11,253.66,107.41,218.38,107.41z"/>
	<path d="M218.38,218.75c-26.11,0-47.36-21.24-47.36-47.36s21.24-47.36,47.36-47.36s47.36,21.24,47.36,47.36
		S244.49,218.75,218.38,218.75z M218.38,133.64c-20.82,0-37.76,16.94-37.76,37.76c0,20.82,16.94,37.76,37.76,37.76
		c20.82,0,37.76-16.94,37.76-37.76C256.13,150.57,239.2,133.64,218.38,133.64z"/>
	<circle id="XMLID_145_" cx="218.38" cy="171.39" r="19.34"/>
</g>
</svg>
