<?xml version="1.0" encoding="utf-8"?>
<!-- Generator: Adobe Illustrator 24.0.1, SVG Export Plug-In . SVG Version: 6.00 Build 0)  -->
<svg version="1.1" id="Layer_1" xmlns="http://www.w3.org/2000/svg" xmlns:xlink="http://www.w3.org/1999/xlink" x="0px" y="0px"
	 viewBox="0 0 308.4 308.4" style="enable-background:new 0 0 308.4 308.4;" xml:space="preserve">
<style type="text/css">
	.st0{fill:#045E9B;}
	.st1{fill:#034377;}
	.st2{fill:#0098FF;}
	.st3{enable-background:new    ;}
	.st4{fill:#FFFFFF;}
</style>
<g>
	<polygon id="XMLID_51_" class="st0" points="308.4,53.44 254.96,0 53.44,53.44 19.87,274.83 53.44,308.4 308.4,308.4 	"/>
	<polyline id="XMLID_50_" class="st1" points="308.4,308.4 53.44,308.4 0,254.96 53.44,53.44 	"/>
	<rect id="XMLID_47_" class="st2" width="254.96" height="254.96"/>
	<g class="st3">
		<path class="st4" d="M55.64,195.99L73,156.69c15.08,8.91,35.19,14.62,52.78,14.62c15.31,0,20.79-3.2,20.79-8.68
			c0-20.11-88.43-3.88-88.43-63.52c0-29.71,24.91-53.93,74.49-53.93c21.48,0,43.64,4.57,60.32,13.94L176.74,98.2
			c-15.77-8-30.62-11.88-44.56-11.88c-15.77,0-20.79,4.57-20.79,10.05c0,19.19,88.43,3.2,88.43,62.15
			c0,29.25-24.91,53.93-74.49,53.93C98.6,212.45,71.63,205.82,55.64,195.99z"/>
	</g>
</g>
</svg>
