<?xml version="1.0" encoding="utf-8"?>
<!-- Generator: Adobe Illustrator 24.0.1, SVG Export Plug-In . SVG Version: 6.00 Build 0)  -->
<svg version="1.1" id="Layer_1" xmlns="http://www.w3.org/2000/svg" xmlns:xlink="http://www.w3.org/1999/xlink" x="0px" y="0px"
	 viewBox="0 0 1399.7 560" style="enable-background:new 0 0 1399.7 560;" xml:space="preserve">
<style type="text/css">
	.st0{fill:#EDEDED;}
	.st1{fill:#020202;}
	.st2{fill:#0098FF;}
	.st3{fill:#045E9B;}
	.st4{fill:#034377;}
	.st5{fill:#FFFFFF;}
</style>
<rect id="XMLID_105_" class="st0" width="1399.7" height="560"/>
<g id="XMLID_190_">
	<path id="XMLID_200_" class="st1" d="M533.4,301.2h-49.5v-54h-46.3v54H388V151.5h49.5v58.1h46.3v-58.1h49.5v149.7H533.4z"/>
	<path id="XMLID_198_" class="st1" d="M679.8,190.6h-42.7v110.6h-49.5V190.6h-42.5v-39.1h134.7V190.6z"/>
	<path id="XMLID_196_" class="st1" d="M825.6,190.6h-42.7v110.6h-49.5V190.6h-42.5v-39.1h134.7V190.6z"/>
	<path id="XMLID_193_" class="st1" d="M837.4,151.5h70.2c19.5,0,34.6,4.7,45.3,14s16,22.5,16,39.6c0,18.1-5.3,32.1-16,42.2
		c-10.7,10-25.8,15.1-45.3,15.1h-20.7v38.9h-49.5V151.5z M886.9,189.1v35.6H905c5.4,0,9.6-1.6,12.5-4.8s4.4-7.6,4.4-13.3
		c0-5.5-1.5-9.9-4.4-12.9c-2.9-3.1-7.1-4.6-12.5-4.6H886.9z"/>
	<path id="XMLID_191_" class="st1" d="M1048.7,149.4c11.7,0,23.3,1.6,34.9,4.8s21.7,7.5,30.2,12.9l-17.9,37.6
		c-8.4-4.6-17.5-8.6-27.4-12.2c-9.9-3.6-17.9-5.3-24-5.3s-9.2,2.1-9.2,6.2c0,2.8,1.9,5.3,5.8,7.4c3.8,2.1,8.6,3.7,14.3,4.8
		c5.7,1.1,11.9,2.9,18.7,5.2c6.8,2.3,13,5,18.7,8s10.5,7.6,14.3,13.8s5.8,13.6,5.8,22.1c0,15.8-6,27.8-17.9,35.9
		c-12,8.1-27,12.2-45,12.2c-13.2,0-26.6-2.1-40-6.3c-13.4-4.2-25.1-10.1-34.9-17.6l18.4-37.1c7.5,6.3,17,11.7,28.4,16.3
		c11.4,4.6,20.9,6.9,28.6,6.9c8,0,12-2.6,12-7.7c0-3-1.9-5.5-5.8-7.6c-3.8-2.1-8.6-3.6-14.3-4.7c-5.7-1.1-11.9-2.7-18.7-4.9
		s-13-4.7-18.7-7.6c-5.7-2.8-10.5-7.2-14.3-13.1c-3.8-5.9-5.8-13-5.8-21.2c0-14.9,5.8-26.8,17.4-35.5
		C1013.7,153.8,1029.2,149.4,1048.7,149.4z"/>
</g>
<g id="XMLID_157_">
	<path id="XMLID_188_" class="st2" d="M456.8,345.8h-43.7v10.4h39.7v21.3h-39.7V388h44.8v21.3H385v-84.9h71.9v21.4H456.8z"/>
	<path id="XMLID_186_" class="st2" d="M524.6,409.4h-29.1l-32.2-84.9h30.1l17.6,55.7l17.4-55.7H557L524.6,409.4z"/>
	<path id="XMLID_182_" class="st2" d="M635.7,345.8H592v10.4h39.7v21.3H592V388h44.8v21.3h-72.9v-84.9h71.9v21.4H635.7z"/>
	<path id="XMLID_175_" class="st2" d="M697.6,409.4l-10.2-22.1h-10.5v22.1h-28.1v-84.9h41.1c11.6,0,20.5,2.6,26.8,7.9
		s9.5,12.8,9.5,22.5c0,12.4-4.5,21.4-13.5,26.9l16.7,27.6H697.6z M676.9,366h13c3.1,0,5.4-0.9,7.1-2.7c1.7-1.8,2.5-4.3,2.5-7.6
		c0-3.2-0.8-5.6-2.5-7.3c-1.7-1.7-4-2.6-7.1-2.6h-13V366z"/>
	<path id="XMLID_169_" class="st2" d="M789.2,383v26.4h-28.1v-25.8l-31-59.1h28l17.1,32.7l16.5-32.7h28L789.2,383z"/>
	<path id="XMLID_167_" class="st2" d="M928.4,409.4h-29l-11.8-50.8l-12.1,50.8h-29L819,324.5h30.1l12.8,55.7l12.6-55.6l27.4-0.1
		l12.8,55.7l12.6-55.7H956L928.4,409.4z"/>
	<path id="XMLID_165_" class="st2" d="M1045.5,409.4h-28.1v-30.7h-26.3v30.7H963v-84.9h28.1v33h26.3v-33h28.1V409.4z"/>
	<path id="XMLID_163_" class="st2" d="M1130.8,345.8H1087v10.4h39.7v21.3H1087V388h44.8v21.3h-72.9v-84.9h71.9V345.8z"/>
	<path id="XMLID_160_" class="st2" d="M1192.7,409.4l-10.2-22.1H1172v22.1h-28.1v-84.9h41.1c11.6,0,20.5,2.6,26.8,7.9
		s9.5,12.8,9.5,22.5c0,12.4-4.5,21.4-13.5,26.9l16.7,27.6H1192.7z M1172,366h13c3.1,0,5.4-0.9,7.1-2.7c1.7-1.8,2.5-4.3,2.5-7.6
		c0-3.2-0.8-5.6-2.5-7.3c-1.7-1.7-4-2.6-7.1-2.6h-13V366z"/>
	<path id="XMLID_158_" class="st2" d="M1304.9,345.8h-43.7v10.4h39.7v21.3h-39.7V388h44.8v21.3h-73v-84.9h71.9L1304.9,345.8
		L1304.9,345.8z"/>
</g>
<polygon id="XMLID_156_" class="st3" points="338.3,195.7 293.2,150.7 123.4,195.7 95.1,382.3 123.4,410.6 338.3,410.6 "/>
<polyline id="XMLID_155_" class="st4" points="338.3,410.6 123.4,410.6 78.3,365.6 123.4,195.7 "/>
<rect id="XMLID_154_" x="78.3" y="150.7" class="st2" width="214.9" height="214.9"/>
<g id="XMLID_104_">
	<g>
		<path class="st1" d="M1153.6,193c-5.6,0-10.1,1.8-13.6,5.3s-5.3,8.1-5.3,13.6c0,5.7,1.8,10.3,5.3,13.8s8.1,5.3,13.6,5.3
			c5.7,0,10.3-1.8,13.8-5.3s5.3-8.1,5.3-13.8c0-5.6-1.8-10.1-5.3-13.6S1159.3,193,1153.6,193z"/>
		<path class="st1" d="M1153.6,248.1c-5.6,0-10.1,1.8-13.6,5.3c-3.5,3.5-5.3,8.1-5.3,13.6c0,5.7,1.8,10.3,5.3,13.8s8.1,5.3,13.6,5.3
			c5.7,0,10.3-1.8,13.8-5.3s5.3-8.1,5.3-13.8c0-5.6-1.8-10.1-5.3-13.6C1163.9,249.8,1159.3,248.1,1153.6,248.1z"/>
		<polygon class="st1" points="1226.6,157 1173.5,303.7 1209.2,303.7 1262.2,157 		"/>
		<polygon class="st1" points="1285.8,157 1232.7,303.7 1268.3,303.7 1321.4,157 		"/>
	</g>
</g>
<g>
	<path class="st5" d="M190.9,189.7c10.5,0,21,1.4,31.5,4.3c10.5,2.9,19.5,6.8,27.3,11.7l-16.2,33.9c-7.6-4.1-15.8-7.8-24.7-11
		s-16.1-4.8-21.7-4.8c-5.5,0-8.3,1.9-8.3,5.6c0,2.6,1.7,4.8,5.2,6.6c3.5,1.9,7.8,3.3,12.9,4.3c5.1,1,10.8,2.6,16.9,4.7
		c6.1,2.1,11.7,4.5,16.9,7.2c5.1,2.7,9.4,6.8,12.9,12.4s5.2,12.2,5.2,19.9c0,14.3-5.4,25-16.2,32.4c-10.8,7.3-24.3,11-40.6,11
		c-11.9,0-24-1.9-36.1-5.7c-12.1-3.8-22.6-9.1-31.5-15.9l16.6-33.5c6.8,5.7,15.3,10.6,25.6,14.7c10.3,4.2,18.9,6.3,25.8,6.3
		c7.2,0,10.8-2.3,10.8-6.9c0-2.7-1.7-5-5.2-6.8c-3.5-1.9-7.8-3.3-12.9-4.2c-5.1-1-10.8-2.4-16.9-4.4c-6.1-2-11.7-4.3-16.9-6.8
		c-5.1-2.6-9.4-6.5-12.9-11.8s-5.2-11.7-5.2-19.2c0-13.5,5.2-24.2,15.7-32.1C159.3,193.7,173.3,189.7,190.9,189.7z"/>
</g>
</svg>
