<svg xmlns="http://www.w3.org/2000/svg" viewBox="0 0 100 100"><defs><style>.cls-1{fill:#1e3a29;}</style></defs><title>CoverYourTracks_logo</title><g id="gold_text" data-name="gold text"><g id="paw"><path class="cls-1" d="M29.86,77.81c9.3,5.71,6,13.71,14.08,16.3,9.34,3,15.35-1.93,18.34-4.44s6.6-6.51,5.32-15.42c-2.17-6.22-1.28-8.74-4.06-13.37a37.62,37.62,0,0,0-8.37-10.74c-4.43-3.88-10.49-9.44-17.42-10.25-5.45-.65-9.29,2-12.45,1.69-3.69-.39-5.82-2.87-10.21-2.61-6.79,1.21-9,8.82-8.64,13.29C6.83,57.68,5,64.15,10,69.63,16.68,76.87,21.62,73,29.86,77.81Z"/><path class="cls-1" d="M83.92,73.22c2.23-4,4-12.89,2.3-14.57-.72-.69-4.62,1.43-6.75,2.62-3.72,2.07-7.5,3.49-8.38,8.88a11.06,11.06,0,0,0,2.14,7.32c1,1.33,3.63,2.58,5.39,1.93C81.48,78.36,81.77,76.94,83.92,73.22Z"/><path class="cls-1" d="M40.38,23.53c-1.46,2-4.05,5.07-4.88,9-.26,4,1,4,3.71,5,2.28.82,6.77,2.87,9.17.5,2.76-2.73,2.36-4.35,4.48-8.82,2.66-5.61,8.73-10.34,7.89-11.54s-4.71-2.28-10.6-.59C47.37,17.87,42.57,20.57,40.38,23.53Z"/><path class="cls-1" d="M61.75,25.05c-3.56,3.67-10,9.62-10.83,15.2-.42,2.88,1.76,5,5.44,7.5,4.37,2.92,5.58,2,8.67,0,4.31-2.81,11.16-12.42,13.27-18.24,1.7-4.69,1.4-9,.2-10.27-.85-.87-3.15-.91-7.2.13C68,20.22,64.3,22.81,61.75,25.05Z"/><path class="cls-1" d="M83.56,53.64c2.52-4.71,3.42-17.43,0-19.12-2.62-1.29-8.7,8.7-13.43,12.83-2,1.77-4.35,3.34-6.68,5.08s4.77,8.42,10,8.45C77.94,60.9,81.76,57,83.56,53.64Z"/><path class="cls-1" d="M25.53,19.57c-4.36,2.72-7.17,5.41-7.81,10.52,0,2.92.34,4.81,2.79,6.8,3.66,2.17,8,2.25,10.83-1.69,2.06-3.65.92-1.91,5.44-11.6.94-2,3.92-5.26,2.34-6.77C37.72,15.48,29.53,17.32,25.53,19.57Z"/><path class="cls-1" d="M40.35,12.71,47.9,9c1.87-.88,3.5.58,1.38,2s-6.37,5.18-6.37,5.18a.94.94,0,0,1-1.21.21l-2.45-1.07C38.66,14.88,39.15,13.53,40.35,12.71Z"/><path class="cls-1" d="M58.32,13.82l13.1-8.54c1.24-.68,1.24.7.87,1.31l-6.22,7.54c-.42.7-2,2.15-2.94,1.85L58.49,14.9A.64.64,0,0,1,58.32,13.82Z"/><path class="cls-1" d="M82.58,18.45,88.1,5.8a1,1,0,0,0-1.64-1.12l-10.36,10a1,1,0,0,0,.57,1.75l1.58.21a3.07,3.07,0,0,1,1.67.86L81,18.58A.9.9,0,0,0,82.58,18.45Z"/><path class="cls-1" d="M87.36,34.29l2.7-14.14c.28-.64-.46-1.62-1.33-.29l-7,11.77c-.41,1,1.95.5,3,1.15C85.62,33.34,86.81,35.36,87.36,34.29Z"/><path class="cls-1" d="M89.62,58.76l2.52-11.94a.54.54,0,0,0-1-.41l-5.63,8.84a.54.54,0,0,0,.29.81l1.47.47a.54.54,0,0,1,.32.29l1,2.06A.54.54,0,0,0,89.62,58.76Z"/></g></g></svg>